<svg width="44" height="31" viewBox="0 0 44 31" fill="none" xmlns="http://www.w3.org/2000/svg">
<path d="M0.2322 7.72979C0.2322 4.06276 3.20491 1.09005 6.87194 1.09005H36.9393C40.6063 1.09005 43.579 4.06276 43.579 7.72979V16.2108C43.579 16.7486 43.3751 17.2664 43.0085 17.6598L42.8849 17.7924C42.0329 18.7066 42.0745 20.136 42.9783 20.999C43.362 21.3654 43.579 21.8728 43.579 22.4033V24.3222C43.579 27.8719 40.7014 30.7495 37.1516 30.7495H6.87195C3.20493 30.7495 0.2322 27.7768 0.2322 24.1098V16.1219C0.2322 15.8779 0.343953 15.6472 0.535509 15.4959L0.429996 15.3623L0.53551 15.4959L0.55891 15.4775C1.13204 15.0249 1.12266 14.1527 0.539933 13.7125C0.346124 13.5661 0.2322 13.3373 0.2322 13.0944V7.72979Z" fill="#016FD0" stroke="#D9D9D9" stroke-width="0.3405"/>
<path d="M8.53638 24.7247V17.6511H15.7698L16.5459 18.6987L17.3476 17.6511H43.6031V24.2369C43.6031 24.2369 42.9165 24.7176 42.1224 24.7247H27.5841L26.7092 23.6097V24.7247H23.8419V22.8213C23.8419 22.8213 23.4502 23.087 22.6035 23.087H21.6275V24.7247H17.2862L16.5113 23.6547L15.7244 24.7247H8.53638Z" fill="white"/>
<path d="M0.0619507 12.2575L1.69309 8.31995H4.51398L5.43967 10.5256V8.31995H8.9463L9.49736 9.91411L10.0316 8.31995H25.7727V9.12139C25.7727 9.12139 26.6002 8.31995 27.9602 8.31995L33.0676 8.33843L33.9773 10.5152V8.31995H36.9118L37.7195 9.57032V8.31995H40.6809V15.3935H37.7195L36.9455 14.1391V15.3935H32.634L32.2004 14.2785H31.0413L30.6148 15.3935H27.6909C26.5207 15.3935 25.7727 14.6084 25.7727 14.6084V15.3935H21.3642L20.4892 14.2785V15.3935H4.09608L3.6628 14.2785H2.50743L2.07721 15.3935H0.0619507V12.2575Z" fill="white"/>
<path d="M2.23467 9.2229L0.0619507 14.4905H1.47651L1.8774 13.4357H4.20799L4.60681 14.4905H6.05252L3.88187 9.2229H2.23467ZM3.03854 10.4488L3.74893 12.292H2.32607L3.03854 10.4488Z" fill="#016FD0"/>
<path d="M6.34473 14.4905V9.2229L8.34476 9.23069L9.50805 12.6269L10.6435 9.2229H12.6275V14.4905H11.371V10.6091L10.039 14.4905H8.93698L7.60128 10.6091V14.4905H6.34473Z" fill="#016FD0"/>
<path d="M13.5042 14.4905V9.2229H17.7414V10.4012H14.8164V11.3022H17.6731V12.4112H14.8164V13.3468H17.7414V14.4905H13.5042Z" fill="#016FD0"/>
<path d="M18.472 9.2229V14.4905H19.765V12.6191H20.3094L21.8598 14.4905H23.4398L21.7385 12.5498C22.4368 12.4898 23.157 11.8794 23.157 10.9318C23.157 9.82335 22.3028 9.2229 21.3494 9.2229H18.472ZM19.765 10.4012H21.243C21.5976 10.4012 21.8555 10.6836 21.8555 10.9556C21.8555 11.3056 21.5213 11.5101 21.2622 11.5101H19.765V10.4012Z" fill="#016FD0"/>
<path d="M24.9009 14.4905H23.5859V9.2229H24.9009V14.4905Z" fill="#016FD0"/>
<path d="M28.0992 14.4905H27.818C26.4575 14.4905 25.6315 13.3841 25.6315 11.8783C25.6315 10.3354 26.4483 9.2229 28.1663 9.2229H29.5765V10.4705H28.1148C27.4173 10.4705 26.9241 11.0323 26.9241 11.8913C26.9241 12.9115 27.4881 13.3399 28.3006 13.3399H28.6364L28.0992 14.4905Z" fill="#016FD0"/>
<path d="M30.8726 9.2229L28.6998 14.4905H30.1144L30.5153 13.4357H32.8459L33.2447 14.4905H34.6904L32.5198 9.2229H30.8726ZM31.6764 10.4488L32.3868 12.292H30.9639L31.6764 10.4488Z" fill="#016FD0"/>
<path d="M34.8365 14.4905V9.2229H36.4582L38.5288 12.5325V9.2229H39.8043V14.4905H38.2351L36.112 11.0943V14.4905H34.8365Z" fill="#016FD0"/>
<path d="M9.41309 23.8218V18.5542H13.5042V19.7325H10.68V20.6335H13.4382V21.7425H10.68V22.6781H13.5042V23.8218H9.41309Z" fill="#016FD0"/>
<path d="M29.8687 23.8218V18.5542H34.1059V19.7325H31.1808V20.6335H34.0239V21.7425H31.1808V22.6781H34.1059V23.8218H29.8687Z" fill="#016FD0"/>
<path d="M13.6991 23.8218L15.7516 21.2205L13.6503 18.5542H15.2778L16.5292 20.2025L17.7849 18.5542H19.3486L17.2749 21.188L19.3311 23.8218H17.7039L16.4888 22.1995L15.3033 23.8218H13.6991Z" fill="#016FD0"/>
<path d="M19.4948 18.5542V23.8218H20.8114V22.1583H22.1617C23.3043 22.1583 24.1704 21.5361 24.1704 20.3259C24.1704 19.3235 23.4911 18.5542 22.3284 18.5542H19.4948ZM20.8114 19.7455H22.2335C22.6026 19.7455 22.8665 19.9777 22.8665 20.3519C22.8665 20.7035 22.6039 20.9584 22.2293 20.9584H20.8114V19.7455Z" fill="#016FD0"/>
<path d="M24.7548 18.5542V23.8218H26.0097V21.9504H26.5381L28.0428 23.8218H29.5764L27.9252 21.8811C28.6029 21.8211 29.3019 21.2107 29.3019 20.2631C29.3019 19.1546 28.4728 18.5542 27.5475 18.5542H24.7548ZM26.0097 19.7325H27.4442C27.7884 19.7325 28.0387 20.0149 28.0387 20.2869C28.0387 20.6369 27.7144 20.8414 27.4628 20.8414H26.0097V19.7325Z" fill="#016FD0"/>
<path d="M34.7056 23.8218V22.6781H37.2502C37.6267 22.6781 37.7897 22.4674 37.7897 22.2363C37.7897 22.0149 37.6272 21.791 37.2502 21.791H36.1003C35.1008 21.791 34.5442 21.1603 34.5442 20.2133C34.5442 19.3687 35.0539 18.5542 36.5392 18.5542H39.0151L38.4798 19.7394H36.3384C35.9291 19.7394 35.8031 19.9619 35.8031 20.1743C35.8031 20.3927 35.9588 20.6335 36.2715 20.6335H37.476C38.5902 20.6335 39.0736 21.2881 39.0736 22.1453C39.0736 23.0669 38.5349 23.8218 37.4153 23.8218H34.7056Z" fill="#016FD0"/>
<path d="M39.3812 23.8218V22.6781H41.9257C42.3022 22.6781 42.4653 22.4674 42.4653 22.2363C42.4653 22.0149 42.3028 21.791 41.9257 21.791H40.7759C39.7764 21.791 39.2198 21.1603 39.2198 20.2133C39.2198 19.3687 39.7295 18.5542 41.2148 18.5542H43.6907L43.1553 19.7394H41.014C40.6047 19.7394 40.4787 19.9619 40.4787 20.1743C40.4787 20.3927 40.6344 20.6335 40.9471 20.6335H42.1516C43.2658 20.6335 43.7492 21.2881 43.7492 22.1453C43.7492 23.0669 43.2105 23.8218 42.0909 23.8218H39.3812Z" fill="#016FD0"/>
</svg>
