<svg width="45" height="31" viewBox="0 0 45 31" fill="none" xmlns="http://www.w3.org/2000/svg">
<rect x="0.544884" y="1.09005" width="43.3468" height="29.6595" rx="6.63974" fill="white" stroke="#D9D9D9" stroke-width="0.3405"/>
<path d="M34.5359 18.875V18.5632H34.4602L34.3719 18.7711L34.2836 18.5632H34.208V18.875H34.2584V18.6412L34.3467 18.8491H34.4098L34.4981 18.6412V18.875H34.5359ZM34.0314 18.875V18.6152H34.1323V18.5632H33.88V18.6152H33.9809V18.875H34.0314Z" fill="#00A2E5"/>
<path d="M25.5678 20.2133H18.744V7.58484H25.5678V20.2133Z" fill="#7375CF"/>
<path d="M19.1855 13.899C19.1855 11.3395 20.3459 9.05286 22.1622 7.58473C20.8378 6.50637 19.1603 5.86975 17.344 5.86975C13.0428 5.86975 9.54895 9.46861 9.54895 13.899C9.54895 18.3293 13.0428 21.9282 17.344 21.9282C19.1603 21.9282 20.8378 21.2916 22.1622 20.2132C20.3459 18.7451 19.1855 16.4585 19.1855 13.899Z" fill="#EB001B"/>
<path d="M34.7755 13.899C34.7755 18.3293 31.2816 21.9282 26.9804 21.9282C25.1641 21.9282 23.4866 21.2916 22.1622 20.2132C23.9785 18.7451 25.1389 16.4585 25.1389 13.899C25.1389 11.3395 23.9785 9.05286 22.1622 7.58473C23.4866 6.50637 25.1641 5.86975 26.9804 5.86975C31.2816 5.86975 34.7755 9.46861 34.7755 13.899Z" fill="#00A2E5"/>
<path d="M27.8634 23.7861C27.9517 23.7861 28.0904 23.799 28.1787 23.838L28.04 24.2798C27.9391 24.2408 27.8508 24.2278 27.7625 24.2278C27.4724 24.2278 27.321 24.4227 27.321 24.7735V25.9688H26.8669V23.838H27.3084V24.0979C27.4345 23.903 27.6111 23.7861 27.8634 23.7861ZM26.1984 24.2538H25.4669V25.2152C25.4669 25.4231 25.5425 25.566 25.7696 25.566C25.8831 25.566 26.0345 25.527 26.1732 25.4491L26.2993 25.8518C26.1606 25.9558 25.9336 26.0207 25.7317 26.0207C25.202 26.0207 25.0128 25.7219 25.0128 25.2282V24.2538H24.5965V23.825H25.0128V23.1754H25.4669V23.825H26.1984V24.2538ZM20.4342 24.7085C20.4846 24.3967 20.6612 24.1888 20.9891 24.1888C21.2793 24.1888 21.4685 24.3707 21.5189 24.7085H20.4342ZM21.9856 24.9034C21.9856 24.2408 21.582 23.7861 21.0018 23.7861C20.3963 23.7861 19.9675 24.2408 19.9675 24.9034C19.9675 25.579 20.4089 26.0207 21.027 26.0207C21.3423 26.0207 21.6198 25.9428 21.8721 25.7219L21.645 25.3841C21.4685 25.527 21.254 25.605 21.0396 25.605C20.7495 25.605 20.4846 25.4621 20.4215 25.0853H21.9604C21.973 25.0203 21.9856 24.9683 21.9856 24.9034ZM23.9659 24.3837C23.8397 24.3057 23.5875 24.2018 23.3226 24.2018C23.0703 24.2018 22.9316 24.2928 22.9316 24.4487C22.9316 24.5916 23.083 24.6306 23.2848 24.6565L23.4992 24.6825C23.9533 24.7475 24.2181 24.9424 24.2181 25.3191C24.2181 25.7219 23.8776 26.0207 23.2722 26.0207C22.9316 26.0207 22.6163 25.9298 22.3766 25.7479L22.591 25.3841C22.7424 25.501 22.9694 25.605 23.2848 25.605C23.5875 25.605 23.7515 25.514 23.7515 25.3451C23.7515 25.2282 23.6379 25.1632 23.3857 25.1243L23.1712 25.0983C22.7046 25.0333 22.4523 24.8124 22.4523 24.4746C22.4523 24.0459 22.7928 23.7861 23.31 23.7861C23.6379 23.7861 23.9407 23.864 24.1551 24.0069L23.9659 24.3837ZM29.5157 24.2148C29.4274 24.2148 29.3391 24.2278 29.2635 24.2668C29.1878 24.3057 29.1121 24.3447 29.0616 24.4097C29.0112 24.4746 28.9607 24.5396 28.9229 24.6305C28.8851 24.7085 28.8724 24.8124 28.8724 24.9034C28.8724 25.0073 28.8851 25.0983 28.9229 25.1762C28.9607 25.2542 28.9986 25.3321 29.0616 25.3971C29.1247 25.4621 29.1878 25.501 29.2635 25.54C29.3391 25.579 29.4274 25.592 29.5157 25.592C29.604 25.592 29.6923 25.579 29.768 25.54C29.8437 25.501 29.9193 25.4621 29.9698 25.3971C30.0329 25.3321 30.0707 25.2672 30.1085 25.1762C30.1464 25.0983 30.159 24.9943 30.159 24.9034C30.159 24.7995 30.1464 24.7085 30.1085 24.6305C30.0707 24.5526 30.0329 24.4746 29.9698 24.4097C29.9067 24.3447 29.8437 24.3057 29.768 24.2668C29.6923 24.2408 29.604 24.2148 29.5157 24.2148ZM29.5157 23.7861C29.6797 23.7861 29.8311 23.812 29.9572 23.877C30.0959 23.929 30.2095 24.0069 30.3104 24.1109C30.4113 24.2148 30.4869 24.3317 30.55 24.4617C30.6005 24.6046 30.6383 24.7475 30.6383 24.9034C30.6383 25.0593 30.6131 25.2152 30.55 25.3451C30.4996 25.488 30.4113 25.605 30.3104 25.6959C30.2095 25.7999 30.0959 25.8778 29.9572 25.9298C29.8184 25.9817 29.6671 26.0207 29.5157 26.0207C29.3518 26.0207 29.2004 25.9947 29.0743 25.9298C28.9355 25.8778 28.822 25.7999 28.7211 25.6959C28.6202 25.592 28.5445 25.475 28.4814 25.3451C28.431 25.2022 28.3931 25.0593 28.3931 24.9034C28.3931 24.7475 28.4184 24.5916 28.4814 24.4617C28.5319 24.3187 28.6202 24.2018 28.7211 24.1109C28.822 24.0069 28.9355 23.929 29.0743 23.877C29.2004 23.812 29.3518 23.7861 29.5157 23.7861ZM17.8106 24.9034C17.8106 24.5266 18.0503 24.2148 18.4413 24.2148C18.8197 24.2148 19.0593 24.5136 19.0593 24.9034C19.0593 25.2932 18.807 25.579 18.4413 25.579C18.0503 25.579 17.8106 25.2802 17.8106 24.9034ZM19.4882 24.9034V23.838H19.0341V24.0979C18.8953 23.903 18.6809 23.7861 18.3782 23.7861C17.798 23.7861 17.3439 24.2538 17.3439 24.9034C17.3439 25.553 17.798 26.0207 18.3782 26.0207C18.6683 26.0207 18.8827 25.9038 19.0341 25.7089V25.9688H19.4882V24.9034ZM16.9529 25.9688V24.6305C16.9529 24.1239 16.6376 23.7861 16.133 23.7861C15.8682 23.7861 15.5907 23.864 15.4015 24.1628C15.2627 23.929 15.0357 23.7861 14.7203 23.7861C14.5059 23.7861 14.2789 23.851 14.1149 24.0979V23.838H13.6608V25.9688H14.1149V24.7865C14.1149 24.4227 14.3167 24.2148 14.6194 24.2148C14.9222 24.2148 15.0735 24.4097 15.0735 24.7735V25.9558H15.5276V24.7735C15.5276 24.4097 15.742 24.2018 16.0321 24.2018C16.3348 24.2018 16.4862 24.3967 16.4862 24.7605V25.9428H16.9529V25.9688Z" fill="black"/>
<path d="M31.1176 25.8V25.852H31.1681C31.1807 25.852 31.1933 25.852 31.1933 25.839C31.2059 25.839 31.2059 25.826 31.2059 25.813C31.2059 25.8 31.2059 25.8 31.1933 25.8C31.1933 25.8 31.1807 25.787 31.1681 25.787H31.1176V25.8ZM31.1681 25.774C31.1933 25.774 31.2059 25.774 31.2185 25.787C31.2311 25.8 31.2438 25.813 31.2438 25.839C31.2438 25.852 31.2438 25.865 31.2311 25.878C31.2185 25.891 31.2059 25.891 31.1807 25.891L31.2438 25.9689H31.1933L31.1302 25.891H31.1176V25.9689H31.0798V25.774H31.1681ZM31.1555 26.0339C31.1807 26.0339 31.1933 26.0339 31.2185 26.0209C31.2438 26.0079 31.2564 25.9949 31.269 25.9819C31.2816 25.9689 31.2942 25.9559 31.3068 25.9299C31.3194 25.904 31.3194 25.891 31.3194 25.865C31.3194 25.839 31.3194 25.826 31.3068 25.8C31.2942 25.774 31.2816 25.761 31.269 25.7481C31.2564 25.7351 31.2438 25.7221 31.2185 25.7091C31.2059 25.6961 31.1807 25.6961 31.1555 25.6961C31.1302 25.6961 31.1176 25.6961 31.0924 25.7091C31.0672 25.7221 31.0546 25.7351 31.0419 25.7481C31.0293 25.761 31.0167 25.787 31.0041 25.8C30.9915 25.826 30.9915 25.839 30.9915 25.865C30.9915 25.891 30.9915 25.904 31.0041 25.9299C31.0167 25.9559 31.0293 25.9689 31.0419 25.9819C31.0546 25.9949 31.0798 26.0079 31.0924 26.0209C31.1176 26.0339 31.1302 26.0339 31.1555 26.0339ZM31.1555 25.6571C31.1807 25.6571 31.2059 25.6571 31.2311 25.6701C31.2564 25.6831 31.2816 25.6961 31.2942 25.7091C31.3068 25.7221 31.3321 25.748 31.3447 25.774C31.3573 25.8 31.3573 25.826 31.3573 25.852C31.3573 25.878 31.3573 25.904 31.3447 25.9299C31.3321 25.9559 31.3194 25.9819 31.2942 25.9949C31.269 26.0079 31.2564 26.0339 31.2311 26.0469C31.2059 26.0599 31.1807 26.0599 31.1555 26.0599C31.1302 26.0599 31.0924 26.0599 31.0672 26.0469C31.0419 26.0339 31.0167 26.0209 31.0041 25.9949C30.9915 25.9819 30.9663 25.9559 30.9537 25.9299C30.941 25.904 30.941 25.878 30.941 25.852C30.941 25.826 30.941 25.8 30.9537 25.774C30.9663 25.748 30.9789 25.7221 31.0041 25.7091C31.0167 25.6961 31.0419 25.6701 31.0672 25.6701C31.0924 25.6571 31.1302 25.6571 31.1555 25.6571Z" fill="black"/>
</svg>
