<svg width="45" height="31" viewBox="0 0 45 31" fill="none" xmlns="http://www.w3.org/2000/svg">
<rect x="0.606773" y="1.09005" width="43.3468" height="29.6595" rx="6.63974" fill="white" stroke="#D9D9D9" stroke-width="0.3405"/>
<path d="M25.7899 9.5531H18.9026V22.3016H25.7899V9.5531Z" fill="#FF5F00"/>
<path d="M19.3399 15.9275C19.3388 14.6997 19.6089 13.4878 20.1297 12.3835C20.6506 11.2791 21.4085 10.3113 22.3462 9.55325C21.185 8.61313 19.7905 8.02848 18.322 7.86613C16.8535 7.70378 15.3703 7.97027 14.0419 8.63516C12.7135 9.30005 11.5935 10.3365 10.8099 11.6261C10.0264 12.9156 9.61084 14.4062 9.61084 15.9275C9.61084 17.4488 10.0264 18.9394 10.8099 20.229C11.5935 21.5185 12.7135 22.555 14.0419 23.2199C15.3703 23.8848 16.8535 24.1513 18.322 23.9889C19.7905 23.8266 21.185 23.2419 22.3462 22.3018C21.4086 21.5438 20.6506 20.5759 20.1298 19.4716C19.6089 18.3672 19.3388 17.1553 19.3399 15.9275Z" fill="#EB001B"/>
<path d="M35.0812 15.9274C35.0813 17.4487 34.6658 18.9393 33.8823 20.2288C33.0987 21.5184 31.9788 22.5549 30.6504 23.2197C29.322 23.8846 27.8388 24.1511 26.3704 23.9888C24.9019 23.8265 23.5074 23.2418 22.3463 22.3017C23.2831 21.5429 24.0404 20.5749 24.5612 19.4707C25.082 18.3665 25.3526 17.155 25.3526 15.9274C25.3526 14.6998 25.082 13.4883 24.5612 12.3841C24.0404 11.2799 23.2831 10.3119 22.3463 9.55313C23.5074 8.613 24.9019 8.02835 26.3704 7.86601C27.8388 7.70366 29.322 7.97016 30.6504 8.63506C31.9788 9.29995 33.0987 10.3364 33.8823 11.626C34.6658 12.9155 35.0813 14.4061 35.0812 15.9274Z" fill="#F79E1B"/>
<path d="M34.3303 20.9515V20.6905H34.4324V20.6374H34.1722V20.6905H34.2745V20.9515H34.3303ZM34.8355 20.9515V20.6368H34.7557L34.664 20.8533L34.5722 20.6368H34.4924V20.9515H34.5487V20.7142L34.6347 20.9188H34.6931L34.7792 20.7136V20.9515H34.8355Z" fill="#F79E1B"/>
</svg>
