<svg width="45" height="31" viewBox="0 0 45 31" fill="none" xmlns="http://www.w3.org/2000/svg">
<rect x="0.919517" y="1.09005" width="43.3468" height="29.6595" rx="6.63974" fill="white" stroke="#D9D9D9" stroke-width="0.3405"/>
<path d="M11.2225 11.9356C10.8027 11.4427 10.0439 11.2315 9.07314 11.2315H6.25572C6.05711 11.2315 5.88834 11.3802 5.85725 11.582L4.68414 19.2457C4.66081 19.3968 4.77441 19.5337 4.92312 19.5337H6.66248L7.09932 16.6797L7.08578 16.769C7.11687 16.5673 7.28439 16.4185 7.48275 16.4185H8.30929C9.93304 16.4185 11.2045 15.7392 11.5758 13.774C11.5869 13.7158 11.5964 13.6593 11.6047 13.604C11.7153 12.8776 11.6039 12.3832 11.2225 11.9356Z" fill="#003087"/>
<path d="M32.5162 15.5825C32.4099 16.3016 31.8767 16.3016 31.3609 16.3016H31.0675L31.2734 14.9589C31.2857 14.8778 31.3536 14.8182 31.4334 14.8182H31.568C31.9191 14.8182 32.2506 14.8182 32.4217 15.024C32.524 15.1472 32.5548 15.3301 32.5162 15.5825ZM32.2918 13.7061H30.3468C30.2136 13.7061 30.1005 13.8058 30.0797 13.9412L29.2933 19.0784C29.2777 19.1797 29.354 19.2714 29.4533 19.2714H30.4513C30.5444 19.2714 30.6236 19.2016 30.6382 19.1071L30.8614 17.6505C30.8819 17.5151 30.9953 17.4154 31.1282 17.4154H31.7436C33.0248 17.4154 33.7643 16.7769 33.9574 15.5109C34.0444 14.9576 33.9609 14.5226 33.7094 14.2181C33.4328 13.8833 32.9425 13.7061 32.2918 13.7061Z" fill="#009CDE"/>
<path d="M18.6436 15.5825C18.5373 16.3016 18.0041 16.3016 17.4883 16.3016H17.1949L17.4008 14.9589C17.413 14.8778 17.481 14.8182 17.5608 14.8182H17.6954C18.0465 14.8182 18.378 14.8182 18.549 15.024C18.6514 15.1472 18.6822 15.3301 18.6436 15.5825ZM18.4191 13.7061H16.4742C16.341 13.7061 16.2279 13.8058 16.2071 13.9412L15.4207 19.0784C15.4051 19.1797 15.4811 19.2714 15.5807 19.2714H16.5095C16.6424 19.2714 16.7555 19.1717 16.7763 19.0366L16.9887 17.6505C17.0093 17.5151 17.1227 17.4154 17.2556 17.4154H17.871C19.1521 17.4154 19.8917 16.7769 20.0848 15.5109C20.1718 14.9576 20.0883 14.5226 19.8368 14.2181C19.5602 13.8833 19.0699 13.7061 18.4191 13.7061Z" fill="#003087"/>
<path d="M22.9346 17.4268C22.8446 17.9749 22.4223 18.343 21.8834 18.343C21.6133 18.343 21.3969 18.2534 21.258 18.0839C21.1203 17.916 21.0684 17.6766 21.112 17.4103C21.1958 16.8668 21.6251 16.4871 22.1557 16.4871C22.4203 16.4871 22.6349 16.5775 22.7766 16.7485C22.9193 16.9208 22.9755 17.1615 22.9346 17.4268ZM24.2326 15.5595H23.3012C23.2215 15.5595 23.1535 15.6192 23.141 15.7005L23.1001 15.9686L23.0352 15.8715C22.8333 15.5701 22.3837 15.4691 21.9348 15.4691C20.9059 15.4691 20.0269 16.2724 19.8559 17.3989C19.7669 17.961 19.8933 18.498 20.2027 18.8728C20.4868 19.2171 20.8923 19.3605 21.3756 19.3605C22.2051 19.3605 22.665 18.8118 22.665 18.8118L22.6234 19.0784C22.6079 19.1797 22.6838 19.2714 22.7836 19.2714H23.6222C23.7554 19.2714 23.8685 19.1719 23.8893 19.0366L24.3929 15.7524C24.4084 15.6512 24.3322 15.5595 24.2326 15.5595Z" fill="#003087"/>
<path d="M36.8073 17.4268C36.7173 17.9749 36.295 18.343 35.7561 18.343C35.486 18.343 35.2696 18.2534 35.1306 18.0839C34.9927 17.916 34.9411 17.6766 34.9847 17.4103C35.0684 16.8668 35.4978 16.4871 36.0284 16.4871C36.293 16.4871 36.5076 16.5775 36.6493 16.7485C36.792 16.9208 36.8482 17.1615 36.8073 17.4268ZM38.1053 15.5595H37.1739C37.0942 15.5595 37.0262 15.6192 37.0137 15.7005L36.9728 15.9686L36.9076 15.8715C36.706 15.5701 36.2563 15.4691 35.8075 15.4691C34.7786 15.4691 33.8996 16.2724 33.7286 17.3989C33.6395 17.961 33.7659 18.498 34.0754 18.8728C34.3595 19.2171 34.765 19.3605 35.2482 19.3605C36.0778 19.3605 36.5377 18.8118 36.5377 18.8118L36.4961 19.0784C36.4805 19.1797 36.5565 19.2714 36.6563 19.2714H37.4949C37.6281 19.2714 37.7412 19.1719 37.762 19.0366L38.2655 15.7524C38.2811 15.6512 38.2048 15.5595 38.1053 15.5595Z" fill="#009CDE"/>
<path d="M29.1931 15.5596H28.257C28.1674 15.5596 28.0837 15.6053 28.0335 15.6818L26.742 17.6408L26.1949 15.7582C26.1605 15.6404 26.0552 15.5596 25.9358 15.5596H25.0157C24.9046 15.5596 24.8264 15.6722 24.8623 15.7804L25.8929 18.8972L24.9234 20.3062C24.8475 20.4168 24.9242 20.5697 25.0558 20.5697H25.991C26.0795 20.5697 26.1625 20.525 26.2132 20.4501L29.3262 15.8218C29.4007 15.7109 29.324 15.5596 29.1931 15.5596Z" fill="#003087"/>
<path d="M39.203 13.8473L38.4048 19.0785C38.3892 19.1798 38.4652 19.2715 38.5648 19.2715H39.3678C39.5007 19.2715 39.614 19.1718 39.6346 19.0364L40.4218 13.8992C40.4373 13.798 40.3613 13.7063 40.2615 13.7063H39.3632C39.2832 13.7063 39.2153 13.7659 39.203 13.8473Z" fill="#009CDE"/>
<path d="M11.2225 11.9356C10.8027 11.4427 10.0439 11.2315 9.07314 11.2315H6.25572C6.05711 11.2315 5.88834 11.3802 5.85725 11.582L4.68414 19.2457C4.66081 19.3968 4.77441 19.5337 4.92312 19.5337H6.66248L7.09932 16.6797L7.08578 16.769C7.11687 16.5673 7.28439 16.4185 7.48275 16.4185H8.30929C9.93304 16.4185 11.2045 15.7392 11.5758 13.774C11.5869 13.7158 11.5964 13.6593 11.6047 13.604C11.7153 12.8776 11.6039 12.3832 11.2225 11.9356Z" fill="#003087"/>
<path d="M7.56883 13.6137C7.58738 13.4923 7.66312 13.3928 7.76493 13.3425C7.81132 13.3197 7.86298 13.3071 7.91715 13.3071H10.1259C10.3875 13.3071 10.6315 13.3246 10.8544 13.3616C10.9184 13.3722 10.9803 13.3843 11.0405 13.3983C11.1007 13.412 11.1591 13.4275 11.2158 13.4445C11.2441 13.453 11.272 13.4618 11.2993 13.4711C11.4089 13.5088 11.511 13.5527 11.6047 13.6041C11.7153 12.8775 11.604 12.3834 11.2226 11.9357C10.8025 11.4429 10.0439 11.2316 9.07321 11.2316H6.25553C6.05717 11.2316 5.8884 11.3804 5.85731 11.5821L4.6842 19.2456C4.66088 19.3969 4.77448 19.5336 4.92293 19.5336H6.66254L7.09938 16.6795L7.56883 13.6137Z" fill="#003087"/>
<path d="M11.6048 13.6041C11.5962 13.6596 11.587 13.7159 11.5759 13.774C11.2045 15.739 9.93313 16.4186 8.30938 16.4186H7.48258C7.28422 16.4186 7.11671 16.5674 7.08586 16.7691L6.66256 19.5335L6.54244 20.3177C6.52213 20.45 6.62143 20.5698 6.75133 20.5698H8.21759C8.39113 20.5698 8.53883 20.4396 8.56592 20.2632L8.58021 20.1862L8.85656 18.3822L8.87437 18.2825C8.90145 18.1061 9.04915 17.9759 9.22269 17.9759H9.44211C10.8625 17.9759 11.9747 17.3815 12.2997 15.6625C12.4353 14.9442 12.3651 14.3444 12.0063 13.9231C11.8974 13.7955 11.7623 13.6901 11.6048 13.6041Z" fill="#009CDE"/>
<path d="M11.2159 13.4443C11.1592 13.4272 11.1008 13.4117 11.0406 13.398C10.9804 13.3843 10.9182 13.3722 10.8545 13.3616C10.6313 13.3244 10.3876 13.3068 10.1258 13.3068H7.91725C7.86283 13.3068 7.81117 13.3195 7.76503 13.3425C7.66296 13.3929 7.58748 13.492 7.56892 13.6137L7.09948 16.6795L7.08594 16.7689C7.11678 16.5672 7.2843 16.4184 7.48266 16.4184H8.30945C9.9332 16.4184 11.2046 15.7391 11.576 13.7739C11.587 13.7157 11.5963 13.6594 11.6048 13.6039C11.5108 13.5527 11.409 13.5086 11.2994 13.4711C11.2721 13.4618 11.2442 13.4528 11.2159 13.4443Z" fill="#012169"/>
</svg>
