<svg width="44" height="31" viewBox="0 0 44 31" fill="none" xmlns="http://www.w3.org/2000/svg">
<rect x="0.17025" y="1.09005" width="43.3468" height="29.6595" rx="6.63974" fill="white" stroke="#D9D9D9" stroke-width="0.3405"/>
<path d="M26.2954 11.1198C24.2067 11.1198 22.3402 12.2272 22.3402 14.2733C22.3402 16.6198 25.6506 16.7819 25.6506 17.9607C25.6506 18.4571 25.0945 18.9014 24.1448 18.9014C22.797 18.9014 21.7896 18.2806 21.7896 18.2806L21.3586 20.3453C21.3586 20.3453 22.5191 20.8698 24.0597 20.8698C26.3433 20.8698 28.1402 19.7079 28.1402 17.6268C28.1402 15.1473 24.8161 14.99 24.8161 13.8959C24.8161 13.5071 25.2725 13.081 26.2195 13.081C27.288 13.081 28.1598 13.5326 28.1598 13.5326L28.5816 11.5383C28.5816 11.5383 27.6331 11.1198 26.2954 11.1198ZM7.18616 11.2703L7.13559 11.5713C7.13559 11.5713 8.01429 11.7358 8.80571 12.0639C9.82472 12.4402 9.89731 12.6593 10.0689 13.3397L11.939 20.7145H14.4459L18.308 11.2703H15.8069L13.3253 17.6915L12.3126 12.2486C12.2197 11.6256 11.7493 11.2703 11.1735 11.2703H7.18616ZM19.3138 11.2703L17.3517 20.7145H19.7368L21.6919 11.2703H19.3138ZM32.6161 11.2703C32.041 11.2703 31.7362 11.5852 31.5126 12.1357L28.0184 20.7145H30.5195L31.0034 19.2847H34.0506L34.3448 20.7145H36.5517L34.6264 11.2703H32.6161ZM32.9414 13.8218L33.6827 17.3658H31.6965L32.9414 13.8218Z" fill="#1434CB"/>
</svg>
