<svg width="145" height="60" viewBox="0 0 145 60" fill="none" xmlns="http://www.w3.org/2000/svg">
<path d="M72.1318 47.573C78.5792 42.0437 87.6362 36.668 92.6099 34.7327C91.8423 34.2412 90.6449 33.5347 89.2941 32.7667C82.8774 34.8863 75.3862 39.5862 68.6932 44.9005C69.8292 45.7606 71.0265 46.6514 72.1318 47.573Z" fill="#E31837"/>
<path d="M69.1844 32.5517C68.2327 32.0909 67.1888 31.6608 66.3905 31.2922C63.0437 32.9846 59.8402 34.9468 56.8116 37.1594C57.6713 37.6202 58.5923 38.1731 59.5748 38.7261C62.645 36.4529 65.7458 34.3026 69.1844 32.5517Z" fill="#012169"/>
<path d="M74.9257 29.9099C73.7591 29.2648 69.7064 27.7596 66.9126 27.1145C66.0836 27.4217 64.917 27.8825 64.1188 28.2204C65.1319 28.4969 68.9082 29.5106 72.1319 31.1386C72.9608 30.7393 74.1275 30.2478 74.9257 29.9099Z" fill="#E31837"/>
<path d="M61.2022 29.5106C57.9524 31.06 54.8042 32.8145 51.7768 34.7634C52.5136 35.1013 53.2504 35.3778 54.2636 35.8693C58.8074 32.7975 62.3688 30.9236 63.7811 30.3092C62.7679 29.9406 61.8162 29.6949 61.2022 29.5106Z" fill="#012169"/>
<path d="M77.6274 28.9576C78.4564 28.6812 79.4081 28.4354 80.2371 28.1897C77.6065 27.071 74.8975 26.147 72.1318 25.425C71.702 25.5479 70.4125 25.8858 69.5222 26.1622C72.2921 26.8829 75.002 27.8175 77.6274 28.9576ZM62.4915 40.5077C63.474 41.0914 64.5178 41.8901 65.5309 42.5659C72.2546 37.3438 78.8862 33.3196 86.1625 31.0465C85.1494 30.5243 84.259 30.0635 83.123 29.5105C78.7634 30.6164 71.3029 33.5961 62.4915 40.5077Z" fill="#E31837"/>
<path d="M20.1283 19.168H23.0365C24.5088 19.168 25.1995 18.4042 25.1995 17.3312C25.1995 16.4583 24.7451 15.8763 23.8 15.6944C24.6361 15.4944 25.0178 14.9851 25.0178 14.2395C25.0178 13.2938 24.3271 12.53 22.8548 12.53H20.1465V19.168H20.1283ZM22.6548 16.3491C23.2001 16.3491 23.5818 16.6219 23.5818 17.1675C23.5818 17.7495 23.2183 17.9859 22.6548 17.9859H21.7097V16.331H22.6548V16.3491ZM22.4731 13.6939C23.0184 13.6939 23.4001 13.9303 23.4001 14.4759C23.4001 15.0215 23.0365 15.2579 22.4731 15.2579H21.7097V13.6939H22.4731ZM31.0706 12.5118H29.4347L26.9445 19.168H28.5985L29.0529 17.7859H31.4523L31.9067 19.168H33.5789L31.0706 12.5118ZM30.2526 14.1122L31.0342 16.5673H29.4347L30.2526 14.1122ZM41.8674 12.5118H40.3587V16.9675L37.5232 12.5118H35.8328V19.168H37.3414V14.7305L40.177 19.168H41.8674V12.5118ZM48.829 19.168L46.6478 15.7853V19.168H45.0301V12.5118H46.6478V15.7126L48.7199 12.5118H50.5194L48.3382 15.7126L50.7193 19.168H48.829ZM56.4449 15.8399C56.4449 17.1675 57.2447 17.9859 58.2808 17.9859C59.3168 17.9859 60.1166 17.1675 60.1166 15.8399C60.1166 14.5123 59.3168 13.6939 58.2808 13.6939C57.2447 13.6939 56.4449 14.5123 56.4449 15.8399ZM54.7363 15.8399C54.7545 13.8939 56.1178 12.3663 58.2808 12.3663C60.4438 12.3663 61.807 13.8939 61.8252 15.8399C61.807 17.7858 60.4438 19.3135 58.2808 19.3135C56.1178 19.3135 54.7545 17.7858 54.7363 15.8399ZM64.0427 19.168H65.6604V16.5492H67.7689V15.2761H65.6604V13.7848H68.2051L68.4959 12.5118H64.0427V19.168ZM76.0392 12.5118H74.4033L71.9131 19.168H73.5672L74.0216 17.7859H76.4209L76.8753 19.168H78.5475L76.0392 12.5118ZM75.2212 14.1122L76.0028 16.5673H74.4033L75.2212 14.1122ZM88.1447 12.5118H86.2544L84.5276 16.1127L82.8008 12.5118H80.9105V19.168H82.3646V14.7196L84.5094 19.1753L86.6543 14.7196V19.1753H88.1629L88.1447 12.5118ZM91.2893 19.168H95.8334V17.895H92.907V16.4037H95.2154V15.167H92.907V13.7848H95.5789L95.8698 12.5118H91.2893V19.168ZM101.995 19.168H103.758L102.104 16.3491C103.013 16.0945 103.449 15.458 103.449 14.5305C103.449 13.3302 102.722 12.53 101.086 12.53H98.5235V19.1862H100.105V16.5673H100.541L101.995 19.168ZM100.777 13.7485C101.45 13.7485 101.795 14.0394 101.795 14.6032C101.795 15.167 101.45 15.458 100.777 15.458H100.087V13.7485H100.777ZM106.176 19.168H107.794V12.5372H106.176V19.168ZM115.755 17.3857C115.258 17.7634 114.652 17.9679 114.028 17.9677C112.792 17.9677 111.92 17.1129 111.92 15.8399C111.92 14.5668 112.774 13.7121 113.974 13.7121C114.586 13.7127 115.181 13.9175 115.664 14.2941V12.7846C115.083 12.4767 114.431 12.3262 113.774 12.3481C111.574 12.3481 110.193 13.8758 110.175 15.8217C110.193 17.7859 111.538 19.2953 113.774 19.2953C114.454 19.317 115.129 19.1669 115.737 18.8589V17.3857H115.755ZM121.68 12.5118H120.044L117.554 19.168H119.208L119.663 17.7859H122.062L122.516 19.168H124.189L121.68 12.5118ZM120.862 14.1122L121.644 16.5673H120.044L120.862 14.1122Z" fill="#012169"/>
</svg>
