<svg width="145" height="60" viewBox="0 0 145 60" fill="none" xmlns="http://www.w3.org/2000/svg">
<path d="M63.52 39.2219L63.4327 39.3075C62.0514 40.7154 60.4536 41.459 58.8074 41.459C55.371 41.459 52.8782 38.8727 52.8782 35.3165C52.8782 31.7603 55.371 29.174 58.8074 29.174C60.4536 29.174 62.0514 29.9224 63.4327 31.3352L63.52 31.4192L65.7301 28.744L65.6719 28.6729C63.8334 26.5004 61.633 25.44 58.9156 25.44C56.1982 25.44 53.707 26.3565 51.9153 28.0069C49.9653 29.7963 48.9395 32.3196 48.9395 35.3084C48.9395 38.2972 49.9653 40.8254 51.9153 42.6148C53.707 44.2765 56.1966 45.1849 58.9156 45.1849C61.6346 45.1849 63.8334 44.1278 65.6719 41.952L65.7301 41.8874L63.52 39.2105" fill="#004685"/>
<path d="M67.9628 44.8326H71.8676V25.7585H67.9628V44.8326Z" fill="#004685"/>
<path d="M87.1622 40.6863C86.1201 41.3216 85.1524 41.6417 84.28 41.6417C83.0182 41.6417 82.4463 40.9725 82.4463 39.4886V29.3679H86.4206V25.7778H82.4463V19.8438L78.6206 21.8934V25.7729H75.3184V29.3631H78.6206V40.1287C78.6206 43.0609 80.3574 45.067 82.9504 45.1187C84.7113 45.1542 85.7712 44.6337 86.4142 44.2442L86.4545 44.2183L87.3932 40.5393L87.1622 40.6815" fill="#004685"/>
<path d="M90.395 44.8326H94.3047V25.7585H90.395V44.8326Z" fill="#004685"/>
<path d="M96.5811 22.4172C94.8329 19.9243 92.5104 17.8893 89.8099 16.4844C87.1094 15.0795 84.1105 14.346 81.0668 14.346C78.0231 14.346 75.0242 15.0795 72.3237 16.4844C69.6232 17.8893 67.3007 19.9243 65.5525 22.4172L65.3683 22.6758H69.8612L69.9097 22.6225C72.9663 19.4639 76.9584 17.7958 81.0571 17.7958C85.1558 17.7958 89.1511 19.4639 92.2143 22.6225L92.2643 22.6758H96.7605L96.5811 22.4172Z" fill="#EE1C25"/>
</svg>
