<svg width="142" height="61" viewBox="0 0 142 61" fill="none" xmlns="http://www.w3.org/2000/svg">
<path d="M28.5964 29.2678C28.5721 28.3187 28.7402 27.3745 29.0907 26.4922C29.4412 25.6099 29.9668 24.8078 30.6357 24.1343C31.3046 23.4609 32.1028 22.93 32.9824 22.5739C33.8621 22.2177 34.8047 22.0436 35.7535 22.0621C36.7554 22.0234 37.7543 22.1946 38.6864 22.5645C39.6184 22.9344 40.4631 23.495 41.1661 24.2104L39.6005 26.0006C38.4822 24.9712 37.3191 24.2552 35.7087 24.2552C33.0695 24.2552 31.1461 26.4482 31.1461 29.1336V29.1784C31.1461 31.9085 33.0695 34.1015 35.7087 34.1015C37.4085 34.1015 38.4821 33.4302 39.6899 32.3113L41.2555 33.8777C40.56 34.6839 39.6925 35.3235 38.7171 35.7495C37.7416 36.1755 36.683 36.3771 35.6193 36.3393C31.5934 36.3841 28.5964 33.2511 28.5964 29.2678ZM43.4026 22.2859H45.997L50.2018 28.8651L54.4513 22.2859H57.0458V36.1602H54.5855V26.2244L50.2018 32.7588H50.157L45.8181 26.2692V36.1602H43.4026V22.2859ZM59.6401 22.2859H69.9284V24.479H62.1004V28.0595H69.0338V30.2525H62.1004V33.9672H70.0179V36.1602H59.6401V22.2859ZM75.0725 29.2678C75.052 28.3197 75.2227 27.3772 75.5746 26.4966C75.9264 25.616 76.4521 24.8154 77.1202 24.1428C77.7883 23.4701 78.5852 22.9391 79.4631 22.5816C80.341 22.2241 81.2819 22.0474 82.2296 22.0621C84.1812 21.9694 86.0916 22.6441 87.5527 23.9419L85.9871 25.7769C84.9345 24.7916 83.5364 24.2609 82.0955 24.2999C79.5458 24.2999 77.6223 26.5377 77.6223 29.1784V29.223C77.6223 32.0874 79.501 34.191 82.3191 34.191C83.5173 34.2062 84.6903 33.8462 85.674 33.1616V30.5657H82.1402V28.4622H88.0447V34.2805C86.4397 35.6637 84.3926 36.4258 82.2744 36.4288C77.9354 36.3841 75.0725 33.2959 75.0725 29.2678ZM90.5497 25.6874H92.9652V28.0595C93.6362 26.493 94.8439 25.4189 96.6779 25.5084V28.0595H96.5437C94.4413 28.0595 92.9652 29.4469 92.9652 32.2218V36.205H90.5497V25.6874ZM97.6173 30.9686C97.6117 30.2365 97.7532 29.5108 98.0333 28.8345C98.3135 28.1582 98.7266 27.5451 99.2481 27.0316C99.7697 26.5181 100.389 26.1147 101.069 25.8454C101.75 25.576 102.477 25.4462 103.209 25.4636C103.932 25.4394 104.653 25.562 105.328 25.8238C106.003 26.0857 106.619 26.4815 107.137 26.9874C107.655 27.4933 108.065 28.0989 108.344 28.7677C108.622 29.4365 108.762 30.1547 108.755 30.8791V30.9238C108.753 31.6514 108.605 32.3712 108.321 33.0412C108.038 33.7112 107.624 34.318 107.103 34.8262C106.583 35.3344 105.966 35.7339 105.29 36.0014C104.614 36.2688 103.891 36.3989 103.164 36.384C102.442 36.4032 101.723 36.2772 101.05 36.0135C100.377 35.7498 99.7642 35.3538 99.247 34.8489C98.7299 34.344 98.3192 33.7405 98.0393 33.074C97.7594 32.4075 97.6159 31.6916 97.6173 30.9686ZM106.385 30.9686C106.385 29.0888 105.043 27.5671 103.164 27.5671C101.285 27.5671 100.033 29.0889 100.033 30.8791V30.9238C100.016 31.3541 100.085 31.7834 100.237 32.1865C100.388 32.5896 100.619 32.9584 100.915 33.2711C101.211 33.5838 101.566 33.8342 101.96 34.0076C102.354 34.1809 102.778 34.2737 103.209 34.2805C105.177 34.3253 106.385 32.8036 106.385 30.9686ZM110.679 32.356V25.6874H113.094V31.6399C113.094 33.2512 113.9 34.191 115.331 34.191C116.762 34.191 117.702 33.2064 117.702 31.5951V25.6874H120.117V36.1602H117.702V34.5491C117.364 35.1124 116.885 35.5779 116.312 35.8996C115.74 36.2214 115.093 36.3883 114.436 36.384C112.066 36.384 110.679 34.7728 110.679 32.356ZM122.533 25.6874H124.948V27.4328C125.326 26.8349 125.847 26.3414 126.464 25.9974C127.082 25.6533 127.775 25.4697 128.482 25.4636C130.942 25.4636 133.358 27.4329 133.358 30.8791V30.9238C133.358 34.37 130.987 36.3393 128.482 36.3393C127.787 36.3547 127.098 36.1946 126.481 35.874C125.863 35.5533 125.336 35.0822 124.948 34.5043V39.9198H122.533V25.6874ZM130.898 30.9686C130.898 28.9098 129.511 27.5671 127.901 27.5671C126.29 27.5671 124.859 28.9098 124.859 30.9238V30.9686C124.859 32.9826 126.29 34.3253 127.901 34.3253C129.511 34.3253 130.898 33.0274 130.898 30.9686Z" fill="black"/>
<path d="M21.0368 29.1335H16.9214V25.2846H20.3659C20.781 26.5267 21.0072 27.8241 21.0368 29.1335ZM12.3142 25.2846H9.31706L8.55664 26.0454V29.1335H11.6879C11.6811 27.8246 11.8928 26.5238 12.3142 25.2846ZM11.6879 29.7154H8.55664V32.8483L9.27239 33.5644H12.3142C11.8928 32.3252 11.6811 31.0243 11.6879 29.7154ZM16.9214 34.1462V37.5477H17.5924C18.7121 36.644 19.5887 35.4748 20.1422 34.1462H16.9214ZM14.7744 21.346H13.2088L9.89859 24.7027H12.5378C13.0317 23.435 13.7948 22.2897 14.7744 21.346ZM20.9026 33.5644H23.9444L24.7048 32.8035V29.6706H21.5736C21.5478 30.995 21.3215 32.3079 20.9026 33.5644ZM23.3629 24.7027L20.008 21.346H18.487C19.4666 22.2897 20.2297 23.435 20.7236 24.7027H23.3629ZM21.0368 29.7154H16.9214V33.5644H20.3211C20.7728 32.3304 21.0148 31.0294 21.0368 29.7154ZM23.9444 25.2846H20.9473C21.3686 26.5238 21.5803 27.8246 21.5736 29.1335H24.7048V26.0454L23.9444 25.2846ZM12.8956 33.5644H16.34V29.7154H12.2246C12.2542 31.0248 12.4804 32.3223 12.8956 33.5644ZM13.1192 24.7027H16.34V21.346H15.6243C14.5065 22.2228 13.6419 23.3813 13.1192 24.7027ZM17.6372 21.346H16.9214V24.7027H20.1422C19.6195 23.3813 18.7549 22.2228 17.6372 21.346ZM9.85392 34.1462L13.2535 37.5477H14.8191C13.8248 36.5897 13.0471 35.4298 12.5378 34.1462H9.85392ZM15.669 37.5477H16.34V34.1462H13.1192C13.6853 35.4663 14.5598 36.6313 15.669 37.5432V37.5477ZM18.4424 37.5477H20.008L23.4075 34.1462H20.7236C20.2138 35.4282 19.4361 36.5865 18.4424 37.5432V37.5477ZM12.2246 29.1335H16.34V25.2846H12.8956C12.4804 26.5267 12.2542 27.8241 12.2246 29.1335Z" fill="#0071BA"/>
</svg>
