<svg width="147" height="61" viewBox="0 0 147 61" fill="none" xmlns="http://www.w3.org/2000/svg">
<path d="M9.97721 42.4749H6.72571V32.5958H9.97721C13.4194 32.5958 15.2647 34.2769 15.2647 37.5353C15.2647 40.7511 13.7326 42.4749 9.97721 42.4749ZM9.74229 34.093H8.68002V40.9726H9.72356C12.4116 41.0271 13.2781 39.7138 13.2781 37.5387C13.2781 35.1541 12.0337 34.093 9.7474 34.093" fill="#2663AE"/>
<path d="M18.2474 38.3035C18.3002 37.4007 18.7411 36.5661 19.7608 36.5661C20.7516 36.5661 21.2401 37.3054 21.1993 38.3035H18.2474ZM19.8204 35.4079C17.2209 35.4079 16.3203 37.2543 16.3203 38.9848C16.3203 41.0509 17.357 42.5958 19.5735 42.6639C21.3355 42.6775 22.8965 42.1529 23.0021 40.2163H21.1993C21.1993 40.9964 20.5694 41.5023 19.8374 41.5023C18.593 41.5023 18.198 40.5859 18.181 39.4583L23.1604 39.4447C23.3085 37.4007 22.4182 35.3977 19.8255 35.3977" fill="#2663AE"/>
<path d="M31.1511 42.4748H29.2887L29.2768 41.354C28.9652 42.2415 28.0987 42.6928 27.0382 42.6928C25.7767 42.6928 24.5867 41.9281 24.5748 40.0953V35.6497H26.461V39.8347C26.4491 40.8192 26.8322 41.3677 27.7565 41.3796C28.5941 41.3796 29.2768 40.901 29.2768 39.5758V35.6582H31.1493V42.4833" fill="#2663AE"/>
<path d="M33.5702 35.677V34.6039L35.3901 33.6467V35.6906H37.1299V37.0175H35.3901V40.3134C35.3901 40.9845 35.6199 41.3677 36.3042 41.3933C36.5853 41.415 36.868 41.392 37.1418 41.3251V42.5021C36.2514 42.6248 35.2249 42.8581 34.3772 42.4067C33.7354 42.0661 33.5702 41.4631 33.5702 40.5059V37.0175H32.1079V35.6906H33.5702" fill="#2663AE"/>
<path d="M44.2067 39.5435C44.3598 39.8472 44.4327 40.1851 44.4184 40.525C44.4041 40.8649 44.3031 41.1955 44.1249 41.4852C43.4832 42.4697 42.0821 42.715 41.0079 42.6877C39.4758 42.5924 38.1139 42.1955 38.1786 40.3628H40.041C40.024 41.1565 40.5176 41.4443 41.2326 41.4716C41.9136 41.4716 42.5945 41.2383 42.5945 40.6097C42.5945 40.0988 42.1162 39.8841 41.5033 39.7479C40.802 39.598 40.3015 39.5298 39.5184 39.2147C38.8936 38.9132 38.2739 38.4074 38.2739 37.4501C38.2739 36.6564 38.8936 36.0551 39.7005 35.7264C40.2731 35.5118 40.8818 35.41 41.4931 35.4266C42.7886 35.4266 44.1982 35.878 44.1147 37.5183H42.3647C42.3747 37.3926 42.3566 37.2663 42.3119 37.1485C42.2671 37.0307 42.1968 36.9243 42.1059 36.8369C41.7229 36.4963 40.5432 36.4537 40.1789 37.0073C39.7652 37.9645 41.0301 38.0293 42.4464 38.4159C43.3368 38.622 43.9377 38.9899 44.2084 39.5384" fill="#2663AE"/>
<path d="M48.8694 35.3891C50.3607 35.3891 51.9047 36.0704 51.9047 37.9441L50.0713 37.9304C50.0713 37.055 49.5946 36.5218 48.6924 36.5678C48.4533 36.587 48.2211 36.6573 48.0114 36.7739C47.4462 37.1009 47.2692 38.0173 47.2692 38.9337C47.2692 39.9046 47.5058 40.8499 47.9297 41.1906C48.2123 41.4648 48.7196 41.5465 49.1554 41.4648C49.8806 41.3421 50.0985 40.6302 50.1155 40.0153L51.9081 40.0016C51.932 41.957 50.3334 42.6945 48.6736 42.6673C46.4453 42.5855 45.4204 41.1343 45.4204 38.9882C45.4204 36.8148 46.6631 35.3908 48.8796 35.3908" fill="#2663AE"/>
<path d="M53.3483 32.6009H55.2345V36.7296C55.7299 35.8559 56.4653 35.4726 57.4612 35.4726C58.7226 35.4726 59.9143 36.4162 59.9143 37.7704V42.4749H58.0485V38.2899C58.0485 37.3599 57.6535 36.745 56.7632 36.745C55.9324 36.745 55.2192 37.2917 55.2192 38.5488V42.4663H53.3466V32.5872" fill="#2663AE"/>
<path d="M63.3019 38.3035C63.3547 37.4007 63.7922 36.5661 64.817 36.5661C65.801 36.5661 66.2964 37.3054 66.2555 38.3035H63.3019ZM64.8766 35.4079C62.2771 35.4079 61.3749 37.2543 61.3749 38.9848C61.3749 41.0509 62.4116 42.5958 64.6281 42.6639C66.39 42.6775 67.9528 42.1529 68.0584 40.2163H66.2555C66.2555 40.9964 65.624 41.5023 64.8936 41.5023C63.6509 41.5023 63.256 40.5859 63.239 39.4583L68.2184 39.4447C68.3665 37.4007 67.4761 35.3977 64.8834 35.3977" fill="#2663AE"/>
<path d="M79.8388 42.187C79.0762 42.3995 78.286 42.4966 77.4946 42.4748H73.9197V32.6145H77.7211C79.4234 32.6145 81.1922 33.1476 81.262 35.0485C81.3028 36.2527 80.484 37.0175 79.4592 37.3599C80.2491 37.5643 80.8909 37.7976 81.3318 38.5351C81.5196 38.8787 81.6263 39.2607 81.6437 39.6519C81.6611 40.0431 81.5887 40.4331 81.4322 40.792C81.2794 41.1234 81.0585 41.4189 80.784 41.6593C80.5094 41.8996 80.1874 42.0794 79.8388 42.187ZM77.7245 34.0929H75.7974V36.6479H77.7534C78.7748 36.6479 79.3094 36.2238 79.3094 35.3891C79.3094 34.6039 78.6965 34.0929 77.7245 34.0929ZM77.9185 38.1263L75.7974 38.1144V41.01H77.8402C79.2021 41.01 79.6447 40.3389 79.6447 39.506C79.6447 38.8622 79.1783 38.111 77.9117 38.1229" fill="#2663AE"/>
<path d="M85.797 41.4904C85.1007 41.4359 84.6887 41.0935 84.6887 40.4377C84.7006 39.0018 86.5222 39.1517 87.4653 39.1517C87.513 40.2861 87.4176 41.4631 85.797 41.4904ZM89.2562 37.5234C89.2562 36.1284 87.753 35.4317 86.0217 35.4454C84.3653 35.4726 83.1634 36.0057 83.1396 37.6051H84.9543C84.9134 36.8676 85.4207 36.4844 86.0932 36.4707C87.101 36.4707 87.5538 36.9357 87.4551 38.0855C86.4524 38.1383 85.1143 38.0701 84.1184 38.5351C83.7271 38.7024 83.3953 38.9839 83.1664 39.3427C82.9374 39.7016 82.8218 40.1212 82.8349 40.5467C82.8349 41.86 83.7473 42.652 85.0854 42.6929C86.0455 42.79 87.1367 42.3658 87.5606 41.4767L87.6321 42.4748H89.2579V37.5234" fill="#2663AE"/>
<path d="M91.0742 35.6498H92.9604V36.745C93.4558 35.8559 94.3581 35.4726 95.371 35.4726C96.503 35.4726 97.6641 36.1284 97.6641 37.7704V42.4749H95.7778V38.2899C95.7898 37.4008 95.3539 36.745 94.4926 36.745C93.6312 36.745 92.9485 37.2918 92.9485 38.5488V42.4664H91.0759V35.6413" fill="#2663AE"/>
<path d="M104.268 42.4749L101.397 38.5573L103.997 35.6447H106.21L103.517 38.4892L106.687 42.4698L104.268 42.4749ZM99.489 32.5958H101.345V42.4749H99.489V32.5958Z" fill="#2663AE"/>
<path d="M116.691 18.346H140.695V42.4612H116.691V18.346ZM131.277 24.0571L121.901 36.6479H126.143L135.555 24.0554L131.277 24.0571ZM120.033 39.1211H137.355V21.6862H120.033V39.1211Z" fill="#2663AE"/>
</svg>
