<svg width="146" height="60" viewBox="0 0 146 60" fill="none" xmlns="http://www.w3.org/2000/svg">
<path d="M63.6485 17.346H38.5692V42.439H63.6485V17.346Z" fill="white"/>
<path d="M76.1881 29.922L63.6484 17.346V42.4686L76.1881 29.922Z" fill="#DA1F26"/>
<path d="M51.1089 29.922L63.6485 17.346H38.5692L51.1089 29.922Z" fill="#DA1F26"/>
<path d="M26 29.922L38.5692 42.4686V17.346L26 29.922Z" fill="#DA1F26"/>
<path d="M51.1089 29.9221L38.5692 42.4686H63.6485L51.1089 29.9221Z" fill="#DA1F26"/>
<path d="M87.1905 30.6601H82.6468V35.1473H80.3749V24.6378H82.6468V28.9479H87.1905V24.6378H89.4624V35.1473H87.1905V30.6601Z" fill="black"/>
<path d="M94.9503 35.3539C92.6784 35.3539 90.8196 34.4388 90.7901 31.9295H93.062C93.0915 33.0513 93.7407 33.7303 94.9799 33.7303C95.8945 33.7303 96.9567 33.2579 96.9567 32.2247C96.9567 31.3981 96.2486 31.1619 95.0684 30.8076L94.3012 30.601C92.649 30.1287 90.9967 29.4792 90.9967 27.5898C90.9967 25.2577 93.1801 24.4606 95.1569 24.4606C97.1927 24.4606 98.963 25.1691 98.9926 27.5013H96.7206C96.6321 26.5566 96.0716 25.9957 95.0094 25.9957C94.1537 25.9957 93.3276 26.4385 93.3276 27.3832C93.3276 28.1508 94.0357 28.3869 95.5109 28.8593L96.3961 29.1249C98.1959 29.6858 99.3466 30.3058 99.3466 32.0771C99.3171 34.4388 97.0157 35.3539 94.9503 35.3539Z" fill="black"/>
<path d="M100.615 24.6673H104.274C104.965 24.633 105.657 24.6725 106.339 24.7854C107.608 25.0806 108.582 25.9072 108.582 27.3242C108.582 28.6822 107.726 29.3612 106.487 29.6859C107.903 29.9516 108.965 30.6601 108.965 32.2247C108.965 34.6159 106.605 35.1473 104.776 35.1473H100.645L100.615 24.6673ZM104.274 29.0364C105.277 29.0364 106.31 28.8298 106.31 27.6194C106.31 26.5271 105.366 26.2319 104.422 26.2319H102.828V29.0364H104.274ZM104.481 33.5827C105.543 33.5827 106.575 33.3465 106.575 32.0476C106.575 30.7487 105.69 30.5124 104.599 30.5124H102.799V33.5827H104.481Z" fill="black"/>
<path d="M114.866 35.354C111.473 35.354 109.968 33.1989 109.968 29.9811C109.968 26.7633 111.65 24.4311 114.984 24.4311C117.079 24.4311 119.115 25.3758 119.174 27.7375H116.814C116.696 26.6747 115.988 26.1434 114.984 26.1434C112.919 26.1434 112.299 28.3574 112.299 30.0402C112.299 31.7229 112.919 33.6713 114.896 33.6713C115.929 33.6713 116.696 33.1104 116.843 32.0476H119.204C118.968 34.4683 117.05 35.354 114.866 35.354Z" fill="black"/>
</svg>
