<svg width="145" height="61" viewBox="0 0 145 61" fill="none" xmlns="http://www.w3.org/2000/svg">
<path fill-rule="evenodd" clip-rule="evenodd" d="M37.2572 23.1227H32.0992V35.1267L37.2572 29.9659V23.1227Z" fill="#00539F"/>
<path fill-rule="evenodd" clip-rule="evenodd" d="M25.2598 16.9222V22.083H37.2572L32.0992 16.9222H25.2598Z" fill="#00539F"/>
<path fill-rule="evenodd" clip-rule="evenodd" d="M31.0602 35.1267V29.966H19.0627L24.2207 35.1267H31.0602Z" fill="#00539F"/>
<path fill-rule="evenodd" clip-rule="evenodd" d="M19.069 28.9262H24.2206V16.9222L19.069 22.083V28.9262Z" fill="#00539F"/>
<path fill-rule="evenodd" clip-rule="evenodd" d="M54.6833 33.2111C54.6833 33.8916 54.3055 34.8998 52.498 34.8998H50.319V31.6862H52.498C54.3055 31.6862 54.6833 32.5432 54.6833 33.2111ZM52.2839 29.9597H47.2456V40.3316H50.2874V36.6705H52.8948C55.8988 36.6705 57.6937 35.2087 57.6937 33.2868C57.6937 31.1507 56.113 29.9912 52.2524 29.9912L52.2839 29.9597Z" fill="#00539F"/>
<path fill-rule="evenodd" clip-rule="evenodd" d="M122.379 32.1398C121.333 32.1173 120.315 32.4706 119.507 33.1355H119.469V32.3037H116.95V40.3315H119.507V34.8494C119.767 34.5531 120.088 34.3164 120.448 34.1555C120.807 33.9945 121.198 33.9131 121.592 33.9169C123.418 33.9169 123.481 35.0889 123.481 36.6138V40.3315H126V35.7757C126 34.0113 125.553 32.1651 122.379 32.1651V32.1398Z" fill="#00539F"/>
<path fill-rule="evenodd" clip-rule="evenodd" d="M67.0964 37.3132L64.4576 29.9596H59.6019V40.3001H62.543V32.1147H62.7131L65.7171 40.3001H68.4693L71.4734 32.1147H71.6497V40.3001H74.5908V29.9596H69.7541L67.0964 37.3132Z" fill="#00539F"/>
<path fill-rule="evenodd" clip-rule="evenodd" d="M83.9684 36.2925C83.9684 37.8552 83.1623 38.9201 81.4492 38.9201C79.7362 38.9201 78.9301 37.8552 78.9301 36.2925C78.9301 34.7298 79.7488 33.6522 81.4492 33.6522C83.1497 33.6522 83.9684 34.7298 83.9684 36.2925ZM86.6891 36.2925C86.6891 33.4443 84.403 32.0265 81.4745 32.0265C78.5459 32.0265 76.2661 33.4443 76.2661 36.2925C76.2661 39.1407 78.5522 40.5522 81.4745 40.5522C84.3967 40.5522 86.6891 39.1281 86.6891 36.2925Z" fill="#00539F"/>
<path fill-rule="evenodd" clip-rule="evenodd" d="M102.1 32.2975V33.0662H102.062C101.508 32.518 100.645 32.1336 99.1274 32.1336C98.5712 32.0974 98.0136 32.1778 97.4903 32.3698C96.9671 32.5618 96.4897 32.8612 96.0888 33.2487C95.688 33.6361 95.3724 34.1031 95.1625 34.6197C94.9526 35.1363 94.853 35.691 94.87 36.2484C94.87 38.5547 96.1989 40.2876 98.951 40.3821C100.048 40.4416 101.124 40.0682 101.949 39.3423V39.6763C101.949 40.9365 101.47 42.1149 98.9636 42.1149C97.8766 42.1237 96.8012 41.8912 95.8147 41.4344V43.2869C96.9675 43.6362 98.1689 43.7979 99.373 43.7658C103.536 43.7658 104.512 41.5099 104.512 39.3549V32.2975H102.1ZM99.7256 38.6932C98.2456 38.6932 97.5277 37.5024 97.5277 36.2862C97.5277 35.0701 98.1134 33.7657 99.8138 33.7657C101.319 33.7657 101.999 34.8747 101.999 36.2358C101.999 37.3952 101.369 38.6869 99.7256 38.6869V38.6932Z" fill="#00539F"/>
<path fill-rule="evenodd" clip-rule="evenodd" d="M114.922 35.2906C114.922 33.2364 113.663 32.1399 110.734 32.1399C109.55 32.1378 108.369 32.2816 107.22 32.5684V34.1626C108.169 33.836 109.164 33.6657 110.167 33.6585C111.427 33.6585 112.447 33.8224 112.447 35.4292H111.188C110.066 35.4061 108.945 35.5312 107.856 35.801C106.924 36.1098 106.042 36.7714 106.042 37.9371C106.042 39.8275 107.686 40.4955 109.537 40.4955C110.081 40.5427 110.629 40.4795 111.147 40.3095C111.665 40.1395 112.144 39.8661 112.554 39.5061H112.592V40.3316H114.922V35.2906ZM112.447 38.1703C111.764 38.6931 110.933 38.9844 110.073 39.002C109.197 39.002 108.593 38.75 108.593 37.9182C108.593 36.9415 110.01 36.7778 111.565 36.7778H112.447V38.1703Z" fill="#00539F"/>
<path fill-rule="evenodd" clip-rule="evenodd" d="M41.6845 29.9597V36.261C41.6845 37.6788 41.0548 38.5546 39.5874 38.5735C38.8076 38.5851 38.0288 38.5153 37.2634 38.3655V40.3316C38.1925 40.454 39.129 40.5108 40.066 40.5017C42.9567 40.5017 44.7327 38.9706 44.7327 36.6013V29.9723L41.6845 29.9597Z" fill="#00539F"/>
<path fill-rule="evenodd" clip-rule="evenodd" d="M93.4656 32.1399C92.9269 32.0859 92.384 32.1872 91.9008 32.4317C91.4177 32.6762 91.0144 33.0537 90.7386 33.5198H90.6946V32.3037H88.2699V40.3316H90.9087V36.4185C90.8694 35.8563 90.9779 35.2936 91.2236 34.7864C91.3589 34.5443 91.5525 34.3397 91.7867 34.1912C92.0209 34.0427 92.2884 33.955 92.565 33.9358C92.9833 33.876 93.4098 33.9463 93.7867 34.1373L94.9707 32.4423C94.492 32.2523 93.9807 32.1581 93.4656 32.1651V32.1399Z" fill="#00539F"/>
</svg>
