<svg width="146" height="60" viewBox="0 0 146 60" fill="none" xmlns="http://www.w3.org/2000/svg">
<path d="M79.4432 32.7281C79.4432 38.3405 76.3729 39.0494 73.3025 39.0494C68.0475 39.0494 66.9257 36.3319 66.9257 32.4919V21.5626H64.9772V20.4814H72.3578V21.5448H70.2912V32.1196C70.2912 35.8415 71.2359 37.732 73.952 37.732C76.6681 37.732 78.0261 36.3732 78.0261 32.4741V21.5448H76.0777V20.4814H81.3326V21.5448H79.5613L79.4432 32.7281ZM84.5801 37.7497V21.5626H82.5135V20.4814H90.6618C94.1454 20.4814 95.8578 22.4309 95.8578 24.735C95.8578 27.2162 93.614 28.575 91.6655 28.9885C95.5034 29.343 96.5663 31.8243 96.5663 33.6557C96.5663 37.3776 93.3779 38.7954 90.3075 38.7954H82.3955V37.732L84.5801 37.7497ZM92.5512 24.9889C92.5512 23.2757 91.6656 21.5626 89.7171 21.5626H87.5915V28.5927H89.4809C91.6065 28.5927 92.5512 26.8794 92.5512 24.9889ZM93.2598 33.7324C93.2598 31.3103 92.1969 29.6561 89.7761 29.6561H87.7095V37.8088H89.4218C91.9608 37.7498 93.2598 36.2137 93.2598 33.7324ZM104.774 21.3262C102.825 21.3262 101.585 22.4487 101.585 24.4573C101.585 26.2296 103.534 27.1158 105.423 27.7657C106.703 28.1606 107.903 28.7807 108.966 29.597C109.515 30.1169 109.943 30.752 110.219 31.4567C110.494 32.1614 110.611 32.9184 110.56 33.6734C110.501 36.8636 108.257 39.0494 104.301 39.0494C102.527 39.0587 100.773 38.6754 99.1643 37.927L98.9871 33.1416H100.168C100.286 36.3909 101.762 38.0451 104.419 38.0451C106.545 38.0451 107.726 36.6272 107.726 34.4413C107.726 32.5508 106.191 31.7829 103.829 30.9558C102.578 30.5894 101.427 29.9429 100.463 29.0654C100.013 28.6157 99.6563 28.0815 99.4132 27.4935C99.17 26.9055 99.0452 26.2752 99.0461 25.6389C99.0461 21.917 101.703 20.2628 105.01 20.2628C106.549 20.3132 108.06 20.6962 109.438 21.3853L109.556 25.5797H108.375C108.198 22.6259 106.899 21.3262 104.774 21.3262Z" fill="#E31E26"/>
<path d="M55.7069 24.2211L55.2345 24.6346L55.7659 26.3478L54.2308 25.5207L53.6993 25.9343L55.4117 26.8795L53.5812 28.3565L53.1089 27.7066L53.7584 27.1749L53.286 26.5842L52.6365 27.1158L52.1051 26.4069L52.7546 25.8751L52.2822 25.2254L48.9757 28.002L52.1642 30.5423L52.7546 29.8334C52.953 29.8591 53.1404 29.9387 53.2966 30.0638C53.4528 30.1888 53.5717 30.3543 53.6403 30.5423L53.0499 31.2512L53.4041 31.5466C54.1909 30.8108 55.2207 30.3902 56.2973 30.3651C56.8258 30.3688 57.3482 30.4777 57.8342 30.6854C58.3201 30.8931 58.76 31.1954 59.1281 31.5747C59.4963 31.9541 59.7853 32.4029 59.9785 32.895C60.1717 33.3872 60.2651 33.9127 60.2533 34.4413C60.2602 35.2103 60.056 35.9665 59.6629 36.6273L60.2533 37.0998C60.2289 37.3298 60.1375 37.5475 59.9906 37.7261C59.8437 37.9046 59.6476 38.0362 59.4267 38.1042L58.8362 37.6316C58.0635 38.3891 57.0248 38.8133 55.943 38.8131C55.4176 38.8164 54.8968 38.7143 54.4115 38.5129C53.9262 38.3114 53.4862 38.0146 53.1174 37.6401C52.7486 37.2656 52.4586 36.821 52.2644 36.3325C52.0703 35.844 51.976 35.3215 51.987 34.7959C52.0164 34.058 52.1973 33.334 52.5184 32.669L52.1051 32.3736L51.5146 33.1417C51.3088 33.1125 51.1158 33.0245 50.9587 32.8882C50.8016 32.752 50.6871 32.5733 50.629 32.3736L51.2194 31.7239L48.5624 29.4789V33.0235H49.4481C49.5591 33.1789 49.6209 33.3642 49.6252 33.5552C49.6215 33.7646 49.5602 33.969 49.4481 34.1459H48.5624V34.5596C49.5327 34.7132 50.4205 35.1964 51.0765 35.9281C51.7324 36.6597 52.1166 37.595 52.1642 38.5767C52.1378 39.5712 51.7624 40.5248 51.1039 41.2701C50.4453 42.0155 49.5456 42.5051 48.5624 42.6532V43.3621C48.3676 43.4829 48.142 43.5446 47.9129 43.5393C47.6652 43.5438 47.4208 43.4826 47.2044 43.3621V42.6532C46.2235 42.5115 45.3262 42.022 44.6759 41.2737C44.0256 40.5255 43.6657 39.5683 43.6617 38.5767C43.678 37.6011 44.0451 36.6639 44.6957 35.937C45.3463 35.2101 46.2369 34.742 47.2044 34.6186V34.1459H46.2597C46.1444 33.9705 46.0829 33.7651 46.0829 33.5552C46.0829 33.3452 46.1444 33.1398 46.2597 32.9644H47.2044V29.4198L44.4883 31.6647L45.0788 32.3146C45.0206 32.5143 44.9061 32.693 44.749 32.8293C44.5919 32.9655 44.3989 33.0535 44.1931 33.0827L43.6026 32.3146L43.2483 32.669C43.6215 33.3167 43.8247 34.0484 43.8388 34.7959C43.845 35.3202 43.7474 35.8405 43.5515 36.3269C43.3557 36.8132 43.0655 37.2559 42.6977 37.6294C42.3298 38.0029 41.8917 38.2999 41.4086 38.503C40.9254 38.7062 40.4068 38.8116 39.8828 38.8131C38.801 38.8133 37.7623 38.3891 36.9896 37.6316L36.3991 38.1042C36.192 38.0138 36.0092 37.8756 35.8656 37.7011C35.7219 37.5266 35.6215 37.3205 35.5725 37.0998L36.1629 36.6273C35.7891 35.9585 35.5862 35.2075 35.5725 34.4413C35.5607 33.9127 35.6542 33.3872 35.8474 32.895C36.0405 32.4029 36.3296 31.9541 36.6977 31.5747C37.0659 31.1954 37.5057 30.8931 37.9917 30.6854C38.4777 30.4777 39.0001 30.3688 39.5285 30.3651C40.6052 30.3902 41.635 30.8108 42.4217 31.5466L42.776 31.3103L42.1855 30.6013C42.2558 30.4144 42.3751 30.25 42.531 30.1252C42.6869 30.0004 42.8735 29.92 43.0712 29.8924L43.6617 30.6013L46.8501 28.0611L43.5435 25.2843L43.0712 25.9343L43.7207 26.4659L43.2483 27.1158L42.5988 26.5842L42.1265 27.1749L42.6579 27.5884L42.1855 28.2382L40.4142 26.7613L42.0674 25.8161L41.5951 25.4026L40.0599 26.2296L40.5323 24.6346L40.0599 24.2211L39.4695 26.0524L37.639 24.5754L38.1114 23.9847L38.7609 24.5165L39.2923 23.9257L38.6428 23.3349L39.1152 22.7441L39.7647 23.2166L40.237 22.6259L38.8199 21.5626C38.8845 21.3255 38.9962 21.1038 39.1484 20.9109C39.3006 20.7181 39.4901 20.5578 39.7056 20.44L47.2044 26.5842V22.5077H46.4368V23.2758H45.6692V22.5077H44.9016V23.2758H44.134V20.9718L45.9053 21.7397V21.0722L44.2521 20.3633L45.9053 19.7134V19.1226L44.134 19.8315V17.4684H44.9016V18.2956H45.6692V17.4684H46.4368V18.2956H47.2044V16.4641C47.4349 16.396 47.6728 16.3564 47.9129 16.346C48.1342 16.3512 48.3534 16.3911 48.5624 16.4641V26.5664L56.0611 20.4223C56.4652 20.6959 56.7745 21.0881 56.9468 21.5448L55.5297 22.6673L56.0021 23.258L56.6516 22.7854L57.1239 23.3762L56.4744 23.9669L56.9468 24.5577L57.5963 24.0261L58.0687 24.6168L56.2382 26.0938L55.7069 24.2211ZM40.4142 35.3275C40.4109 35.6161 40.5199 35.8947 40.7183 36.1042C40.9167 36.3137 41.1888 36.4378 41.477 36.45L40.5323 37.1589C40.1868 37.017 39.8877 36.7816 39.6686 36.4789C39.4496 36.1762 39.3193 35.8185 39.2923 35.4458C39.2968 35.2625 39.3369 35.0819 39.4104 34.914H39.2333C38.7979 34.8699 38.389 34.6843 38.069 34.3855C37.7491 34.0868 37.5359 33.6913 37.4619 33.2598L38.4657 32.4919V32.7873C38.4862 33.057 38.6065 33.3093 38.803 33.495C38.9995 33.6807 39.2582 33.7865 39.5285 33.7916C39.817 33.7949 40.0953 33.6857 40.3047 33.4872C40.5141 33.2887 40.6381 33.0165 40.6504 32.7281C40.6506 32.5679 40.6182 32.4093 40.5552 32.262C40.4922 32.1146 40.3999 31.9816 40.2839 31.8711C40.1679 31.7606 40.0306 31.6748 39.8805 31.619C39.7303 31.5632 39.5704 31.5386 39.4104 31.5466C38.1114 31.5466 36.8125 32.8463 36.8125 34.5005C36.8191 34.9686 36.9195 35.4306 37.1077 35.8593L37.6981 35.3866C37.9076 35.4894 38.0909 35.6385 38.2342 35.8228C38.3774 36.007 38.4767 36.2216 38.5247 36.45L37.9343 36.9227C38.5032 37.3809 39.2115 37.631 39.9418 37.6316C41.477 37.6316 42.6579 36.3909 42.6579 35.3275C42.6708 35.179 42.6532 35.0294 42.6059 34.888C42.5586 34.7466 42.4828 34.6165 42.3831 34.5057C42.2834 34.3948 42.162 34.3058 42.0265 34.2439C41.8909 34.182 41.7441 34.1486 41.5951 34.1459C41.2883 34.1654 40.9991 34.2962 40.7817 34.5137C40.5643 34.7312 40.4337 35.0205 40.4142 35.3275ZM48.4443 37.6906C48.4435 37.8305 48.4705 37.9691 48.5236 38.0985C48.5767 38.2278 48.655 38.3454 48.7539 38.4443C48.8527 38.5432 48.9702 38.6215 49.0995 38.6747C49.2288 38.7278 49.3674 38.7548 49.5072 38.754C49.6749 38.7477 49.8396 38.7079 49.9917 38.6369C50.1438 38.5659 50.2803 38.4651 50.3928 38.3405V39.5812C50.107 39.7488 49.7791 39.8308 49.4481 39.8174C49.1458 39.8471 48.8415 39.7908 48.5699 39.6549C48.2983 39.519 48.0705 39.3091 47.9129 39.0494C47.7427 39.311 47.5041 39.5209 47.223 39.6563C46.942 39.7917 46.6292 39.8474 46.3187 39.8174C45.9885 39.8234 45.6626 39.742 45.374 39.5812V38.3405C45.5133 38.5166 45.7033 38.6454 45.9184 38.7096C46.1334 38.7737 46.3631 38.7701 46.5759 38.6991C46.7888 38.6281 46.9747 38.4932 47.1082 38.3128C47.2418 38.1324 47.3166 37.915 47.3224 37.6906C47.3351 37.5528 47.3183 37.4139 47.2731 37.2831C47.228 37.1524 47.1555 37.0328 47.0606 36.9322C46.9656 36.8316 46.8504 36.7523 46.7225 36.6997C46.5946 36.6471 46.4569 36.6225 46.3187 36.6273C45.1968 36.6273 44.7244 37.6907 44.7244 38.695C44.727 39.3843 44.9704 40.051 45.4125 40.5797C45.8546 41.1084 46.4677 41.4657 47.1454 41.5898V40.8808C47.3491 40.7895 47.572 40.749 47.7948 40.7627C48.0371 40.7441 48.2802 40.7846 48.5033 40.8808V41.5898C49.1741 41.4513 49.7784 41.09 50.2179 40.5644C50.6574 40.0388 50.9063 39.3801 50.9242 38.695C50.9242 37.6907 50.5109 36.6273 49.33 36.6273C48.8576 36.5682 48.4443 37.0998 48.4443 37.6906ZM55.1755 32.7873C55.2036 33.0698 55.3324 33.3328 55.5384 33.5281C55.7444 33.7233 56.0138 33.8378 56.2973 33.8506C56.5676 33.8455 56.8263 33.7397 57.0228 33.554C57.2193 33.3683 57.3396 33.116 57.3601 32.8463V32.5509L58.3048 33.3189C58.2314 33.7822 57.9945 34.2039 57.637 34.5074C57.2795 34.8109 56.8252 34.9761 56.3564 34.9731C56.4051 35.1459 56.425 35.3255 56.4154 35.5048C56.3885 35.8775 56.2581 36.2352 56.0391 36.5379C55.82 36.8405 55.521 37.0762 55.1755 37.2181L54.2898 36.45C54.578 36.4378 54.8501 36.3137 55.0485 36.1042C55.2468 35.8947 55.3559 35.6161 55.3526 35.3275C55.3519 35.183 55.3221 35.0401 55.2647 34.9075C55.2073 34.7749 55.1238 34.6552 55.0189 34.5559C54.9141 34.4565 54.7901 34.3794 54.6546 34.3293C54.5192 34.2791 54.375 34.257 54.2308 34.2642C54.0818 34.2669 53.9349 34.3001 53.7993 34.362C53.6637 34.4239 53.5424 34.513 53.4427 34.6238C53.343 34.7346 53.2672 34.8648 53.2199 35.0061C53.1726 35.1475 53.1549 35.2972 53.1679 35.4458C53.2711 36.1019 53.6098 36.6979 54.1207 37.122C54.6316 37.5462 55.2795 37.7693 55.943 37.7497C56.6568 37.7569 57.349 37.5051 57.8915 37.0408L57.3011 36.5682C57.349 36.3397 57.4485 36.1252 57.5917 35.9409C57.7349 35.7566 57.9182 35.6075 58.1277 35.5048L58.7182 35.9774C58.9519 35.5628 59.074 35.0946 59.0724 34.6186C59.0724 33.3189 58.0686 31.6647 56.4744 31.6647C56.3146 31.6485 56.1531 31.6651 55.9999 31.7135C55.8466 31.7618 55.7049 31.8409 55.5833 31.946C55.4617 32.0511 55.3628 32.1799 55.2927 32.3246C55.2225 32.4692 55.1827 32.6267 55.1755 32.7873Z" fill="black"/>
</svg>
