<svg width="35" height="36" viewBox="0 0 35 36" fill="none" xmlns="http://www.w3.org/2000/svg">
<path d="M7.20951 14.1214L4.82896 10.5506C4.74923 10.479 4.68906 10.3884 4.65413 10.2871C4.58308 10.1545 4.56071 10.0011 4.5909 9.85371C4.62108 9.70628 4.7019 9.57408 4.81937 9.48003C4.85001 9.45546 4.88289 9.43381 4.91757 9.41536L8.60333 3.89032C8.65061 3.81964 8.71136 3.75898 8.78211 3.71181C8.85285 3.66464 8.93221 3.63189 9.01563 3.61543C9.09905 3.59896 9.18489 3.59912 9.26825 3.61588C9.35161 3.63264 9.43085 3.66567 9.50143 3.71308C9.57079 3.76088 9.63085 3.82095 9.67865 3.89032L12.6986 8.41909C14.1972 7.50797 15.8407 6.85998 17.5579 6.50316C16.9753 5.12358 16.0625 3.90831 14.9 2.96428C13.7374 2.02025 12.3607 1.37638 10.8909 1.0893C9.4211 0.802215 7.90328 0.880716 6.47095 1.31791C5.03862 1.75511 3.73567 2.5376 2.67673 3.59654C1.61778 4.65548 0.83531 5.95842 0.398113 7.39075C-0.0390836 8.82308 -0.117585 10.3409 0.169498 11.8107C0.456581 13.2805 1.10046 14.6572 2.0445 15.8198C2.98853 16.9823 4.20378 17.8951 5.58336 18.4777C5.90139 16.9515 6.44971 15.4826 7.20951 14.1214Z" fill="#D2D2D2"/>
<path d="M8.73026 11.8869L6.85742 11.2786L7.95431 12.9239C8.19859 12.5679 8.45724 12.2222 8.73026 11.8869Z" fill="#D2D2D2"/>
<path d="M10.1672 10.3494C10.6306 9.92129 11.1192 9.52142 11.6305 9.15193L9.14458 5.39192L6.27069 9.70276L9.14458 10.6943L10.1672 10.3494Z" fill="#D2D2D2"/>
<path d="M24.9654 17.8526C24.9647 17.1599 24.6892 16.4956 24.1994 16.0058C23.7095 15.5159 23.0453 15.2404 22.3525 15.2398H17.5795V20.4655H22.3525C23.0453 20.4648 23.7095 20.1894 24.1994 19.6995C24.6892 19.2096 24.9647 18.5454 24.9654 17.8526Z" fill="#FF1A50"/>
<path d="M23.4326 22.8029H17.5795V28.0262H23.4326C23.7823 28.0368 24.1304 27.9771 24.4566 27.8506C24.7827 27.7241 25.0801 27.5334 25.3311 27.2899C25.5822 27.0463 25.7817 26.7548 25.918 26.4327C26.0543 26.1106 26.1246 25.7643 26.1246 25.4146C26.1246 25.0648 26.0543 24.7186 25.918 24.3964C25.7817 24.0743 25.5822 23.7828 25.3311 23.5392C25.0801 23.2957 24.7827 23.105 24.4566 22.9785C24.1304 22.852 23.7823 22.7923 23.4326 22.8029Z" fill="#FF1A50"/>
<path d="M20.7264 7.36772C17.9033 7.36772 15.1436 8.20486 12.7964 9.77327C10.4491 11.3417 8.61956 13.5709 7.53922 16.1791C6.45889 18.7872 6.17622 21.6572 6.72697 24.426C7.27772 27.1949 8.63716 29.7382 10.6334 31.7344C12.6296 33.7306 15.1729 35.09 17.9417 35.6408C20.7105 36.1915 23.5805 35.9088 26.1887 34.8285C28.7968 33.7482 31.0261 31.9187 32.5945 29.5714C34.1629 27.2241 35 24.4644 35 21.6414C35 17.8558 33.4962 14.2252 30.8194 11.5484C28.1425 8.87155 24.512 7.36772 20.7264 7.36772ZM24.0601 30.3205V31.3647C24.0672 31.5225 24.0423 31.6801 23.9869 31.8279C23.9314 31.9758 23.8466 32.1109 23.7375 32.2251C23.6283 32.3393 23.4972 32.4301 23.352 32.4922C23.2068 32.5543 23.0505 32.5863 22.8926 32.5863C22.7346 32.5863 22.5783 32.5543 22.4331 32.4922C22.2879 32.4301 22.1568 32.3393 22.0477 32.2251C21.9385 32.1109 21.8537 31.9758 21.7983 31.8279C21.7428 31.6801 21.7179 31.5225 21.725 31.3647V30.3708H19.7397V31.3647C19.7468 31.5225 19.7219 31.6801 19.6665 31.8279C19.611 31.9758 19.5262 32.1109 19.4171 32.2251C19.3079 32.3393 19.1768 32.4301 19.0316 32.4922C18.8864 32.5543 18.7301 32.5863 18.5721 32.5863C18.4142 32.5863 18.2579 32.5543 18.1127 32.4922C17.9675 32.4301 17.8363 32.3393 17.7272 32.2251C17.6181 32.1109 17.5333 31.9758 17.4778 31.8279C17.4224 31.6801 17.3975 31.5225 17.4046 31.3647V30.3708H14.2529C14.0951 30.378 13.9376 30.3531 13.7897 30.2976C13.6418 30.2422 13.5067 30.1573 13.3925 30.0482C13.2784 29.9391 13.1875 29.8079 13.1254 29.6627C13.0633 29.5175 13.0313 29.3612 13.0313 29.2033C13.0313 29.0454 13.0633 28.8891 13.1254 28.7439C13.1875 28.5986 13.2784 28.4675 13.3925 28.3584C13.5067 28.2493 13.6418 28.1644 13.7897 28.109C13.9376 28.0535 14.0951 28.0286 14.2529 28.0358H15.2444V15.2398H14.2529C14.0951 15.2469 13.9376 15.222 13.7897 15.1666C13.6418 15.1111 13.5067 15.0263 13.3925 14.9172C13.2784 14.808 13.1875 14.6769 13.1254 14.5317C13.0633 14.3865 13.0313 14.2302 13.0313 14.0723C13.0313 13.9143 13.0633 13.758 13.1254 13.6128C13.1875 13.4676 13.2784 13.3365 13.3925 13.2274C13.5067 13.1182 13.6418 13.0334 13.7897 12.978C13.9376 12.9225 14.0951 12.8976 14.2529 12.9047H17.4046V11.9133C17.3975 11.7555 17.4224 11.5979 17.4778 11.45C17.5333 11.3022 17.6181 11.167 17.7272 11.0529C17.8363 10.9387 17.9675 10.8478 18.1127 10.7857C18.2579 10.7237 18.4142 10.6917 18.5721 10.6917C18.7301 10.6917 18.8864 10.7237 19.0316 10.7857C19.1768 10.8478 19.3079 10.9387 19.4171 11.0529C19.5262 11.167 19.611 11.3022 19.6665 11.45C19.7219 11.5979 19.7468 11.7555 19.7397 11.9133V12.9047H21.725V11.9133C21.7179 11.7555 21.7428 11.5979 21.7983 11.45C21.8537 11.3022 21.9385 11.167 22.0477 11.0529C22.1568 10.9387 22.2879 10.8478 22.4331 10.7857C22.5783 10.7237 22.7346 10.6917 22.8926 10.6917C23.0505 10.6917 23.2068 10.7237 23.352 10.7857C23.4972 10.8478 23.6283 10.9387 23.7375 11.0529C23.8466 11.167 23.9314 11.3022 23.9869 11.45C24.0423 11.5979 24.0672 11.7555 24.0601 11.9133V13.2137C24.8222 13.4926 25.5037 13.9551 26.0445 14.5601C26.5854 15.1651 26.9687 15.8941 27.1607 16.6826C27.3528 17.4711 27.3475 18.2947 27.1455 19.0806C26.9434 19.8666 26.5508 20.5906 26.0024 21.1887C26.8787 21.7214 27.5677 22.5132 27.9742 23.4547C28.3806 24.3961 28.4844 25.4407 28.271 26.4437C28.0577 27.4467 27.5378 28.3587 26.7834 29.0532C26.029 29.7478 25.0773 30.1907 24.0601 30.3205Z" fill="#FF1A50"/>
</svg>
