<svg width="35" height="36" viewBox="0 0 35 36" fill="none" xmlns="http://www.w3.org/2000/svg">
<path d="M7.69886 34.3381L16.3094 22.2399L3.91768 18.614C3.79266 18.5798 3.67583 18.5206 3.57418 18.4401C3.47254 18.3595 3.38816 18.2593 3.32614 18.1453C3.26412 18.0313 3.22571 17.9059 3.21322 17.7767C3.20073 17.6475 3.21442 17.517 3.25346 17.3932C3.31633 17.1729 3.45713 16.9831 3.64956 16.8591L18.4087 6.62263C20.8462 4.96538 23.2837 3.26541 25.7547 1.55322C25.9657 1.40703 26.2255 1.34944 26.4784 1.3928C26.7312 1.43615 26.9571 1.57702 27.1075 1.78518C27.2165 1.95437 27.2746 2.15147 27.2746 2.35285C27.2746 2.55423 27.2165 2.75132 27.1075 2.92052L18.4422 15.0584L30.8247 18.6842C30.9971 18.7369 31.1517 18.8363 31.2712 18.9715C31.3908 19.1066 31.4707 19.2722 31.5023 19.4499C31.5338 19.6277 31.5156 19.8108 31.4499 19.9789C31.3841 20.147 31.2732 20.2936 31.1294 20.4025C26.3489 23.894 21.4007 27.2574 16.4434 30.6573C14.0059 32.3146 11.5958 33.9688 9.01512 35.742C8.8231 35.8767 8.58929 35.9381 8.356 35.9151C8.12271 35.892 7.90536 35.786 7.74333 35.6163C7.58129 35.4466 7.48526 35.2245 7.47263 34.99C7.46001 34.7555 7.53161 34.5242 7.67448 34.3381" fill="#FF1A50"/>
<path d="M6.58977 29.4792C6.76069 29.6645 6.85373 29.9086 6.84947 30.1608C6.84522 30.413 6.74402 30.6538 6.56695 30.8332C6.38988 31.0125 6.15058 31.1165 5.89886 31.1236C5.64715 31.1306 5.40243 31.0401 5.21564 30.871C2.69101 28.3838 0.981252 25.1863 0.313338 21.7029C-0.354576 18.2195 0.0509255 14.615 1.47604 11.3679C2.90116 8.12082 5.27848 5.38469 8.29241 3.52269C11.3063 1.6607 14.8144 0.760917 18.3508 0.942812C18.6098 0.958596 18.8519 1.07679 19.0239 1.27139C19.1959 1.466 19.2836 1.72108 19.2679 1.98051C19.2521 2.23994 19.1341 2.48247 18.9398 2.65475C18.7456 2.82703 18.4909 2.91494 18.2319 2.89915C15.0884 2.73089 11.9684 3.52657 9.28789 5.18009C6.6074 6.8336 4.49385 9.26636 3.22906 12.154C1.96428 15.0416 1.60839 18.2468 2.20883 21.3422C2.80927 24.4377 4.33751 27.2762 6.58977 29.4792Z" fill="#D2D2D2"/>
<path d="M28.5212 7.44667C28.3374 7.26414 28.2335 7.01593 28.2323 6.75664C28.2312 6.49736 28.3329 6.24826 28.5152 6.06411C28.6974 5.87996 28.9451 5.77585 29.204 5.7747C29.4628 5.77356 29.7115 5.87547 29.8954 6.058C32.3992 8.56895 34.0808 11.7838 34.7166 15.2751C35.3525 18.7665 34.9125 22.369 33.455 25.6038C31.9976 28.8386 29.5918 31.5525 26.5575 33.3847C23.5231 35.2169 20.004 36.0806 16.4678 35.861C16.3395 35.8532 16.2141 35.8202 16.0986 35.7638C15.9831 35.7074 15.8798 35.6288 15.7946 35.5324C15.7095 35.4361 15.6441 35.3239 15.6022 35.2022C15.5604 35.0805 15.5428 34.9518 15.5506 34.8233C15.5584 34.6949 15.5914 34.5692 15.6477 34.4535C15.704 34.3378 15.7825 34.2344 15.8787 34.1491C15.9749 34.0638 16.0869 33.9983 16.2083 33.9564C16.3298 33.9144 16.4583 33.8969 16.5866 33.9047C19.7317 34.1148 22.866 33.3576 25.5697 31.7345C28.2735 30.1114 30.4178 27.6997 31.7158 24.8223C33.0137 21.945 33.4033 18.7391 32.8324 15.6339C32.2615 12.5286 30.7573 9.67212 28.5212 7.44667Z" fill="#D2D2D2"/>
</svg>
