<svg width="35" height="36" viewBox="0 0 35 36" fill="none" xmlns="http://www.w3.org/2000/svg">
<path d="M5.71863 11.9983L5.85066 12.2551C6.1173 12.7752 6.51408 13.2175 7.00236 13.5388C7.31871 13.0044 7.66591 12.4888 8.04218 11.9947L5.71863 11.9983Z" fill="#D2D2D2"/>
<path d="M6.34401 14.7694C6.25048 14.7107 6.16061 14.652 6.06525 14.586C5.20682 13.9715 4.56999 13.096 4.24969 12.09L4.20934 11.9727H3.34741C3.15458 11.978 2.96721 11.9083 2.82475 11.7783C2.75884 11.7148 2.70644 11.6387 2.6707 11.5545C2.61691 11.4278 2.60285 11.2877 2.63036 11.1528C2.65786 11.0179 2.72564 10.8945 2.82475 10.799C2.96721 10.6689 3.15458 10.5992 3.34741 10.6046H3.95443V9.76465H3.36024C3.16875 9.77417 2.98115 9.70834 2.83759 9.58126C2.77108 9.51834 2.71858 9.44211 2.68354 9.35753C2.6472 9.27358 2.62845 9.18308 2.62845 9.09161C2.62845 9.00014 2.6472 8.90964 2.68354 8.82569C2.71902 8.74081 2.77144 8.66406 2.83759 8.60013C2.98115 8.47304 3.16875 8.40721 3.36024 8.41674H4.18917L4.22402 8.2902C4.42179 7.61548 4.75431 6.98787 5.20149 6.44529C5.66678 5.88563 6.24974 5.43542 6.90885 5.12672C7.58833 4.81129 8.32924 4.65032 9.07835 4.6554C9.51297 4.65281 9.94557 4.71462 10.3621 4.83879C10.7769 4.96358 11.1724 5.14501 11.5376 5.37796C11.6486 5.43161 11.7416 5.51635 11.8054 5.62187C11.8679 5.72776 11.8991 5.84923 11.8952 5.97214C11.894 6.15247 11.829 6.32654 11.7118 6.46363C11.6568 6.5412 11.5831 6.60359 11.4975 6.64496C11.4118 6.68633 11.3171 6.70533 11.2222 6.70021C11.0809 6.70079 10.9419 6.66477 10.8187 6.59567C10.3038 6.24862 9.69747 6.06224 9.07652 6.06017C8.33369 6.0474 7.60497 6.26384 6.98954 6.68003C6.44671 7.0519 6.01809 7.56751 5.75166 8.16915L5.64162 8.4149L8.11922 8.42957C8.31224 8.42304 8.50005 8.49289 8.64189 8.62397C8.70964 8.68257 8.76297 8.75599 8.79777 8.83853C8.86497 9.00817 8.86497 9.19705 8.79777 9.36669C8.76132 9.4509 8.70759 9.5265 8.64005 9.5886C8.49821 9.71967 8.3104 9.78952 8.11738 9.78299H5.36653V10.0746C5.36515 10.2124 5.37128 10.3501 5.38488 10.4872L5.39772 10.6486L8.12106 10.6651C8.31366 10.6591 8.50107 10.7281 8.64371 10.8577C8.71033 10.9173 8.76348 10.9904 8.7996 11.0722C8.7996 11.0722 8.7996 11.0887 8.7996 11.0961C11.0539 8.54473 14.0652 6.7814 17.3933 6.06384C16.7536 4.75256 15.8099 3.61305 14.6409 2.74015C13.4718 1.86725 12.1112 1.28622 10.6722 1.04543C9.23322 0.804628 7.75753 0.911026 6.36798 1.35577C4.97843 1.80051 3.71522 2.57074 2.68348 3.60232C1.65174 4.6339 0.881342 5.897 0.436391 7.28649C-0.00856051 8.67597 -0.115184 10.1516 0.125398 11.5906C0.36598 13.0297 0.946806 14.3904 1.81953 15.5596C2.69225 16.7288 3.83162 17.6726 5.1428 18.3125C5.40213 17.0882 5.80533 15.8989 6.34401 14.7694Z" fill="#D2D2D2"/>
<path d="M22.6235 23.0714L22.2292 22.8752V27.1427L22.596 26.9886C22.9475 26.8479 23.2692 26.6419 23.5442 26.3816V26.3706C23.718 26.212 23.8568 26.0188 23.9515 25.8034C24.0463 25.588 24.0949 25.3552 24.0943 25.1199C24.0943 24.617 23.9073 24.132 23.5698 23.7591C23.2971 23.4763 22.9768 23.2435 22.6235 23.0714Z" fill="#FF1A50"/>
<path d="M18.2937 16.1631C18.1104 16.3373 17.9644 16.547 17.8646 16.7793C17.7641 17.0104 17.711 17.2594 17.7085 17.5114C17.706 17.7634 17.7541 18.0133 17.8499 18.2464C17.9469 18.4807 18.0897 18.6933 18.2699 18.8718C18.6078 19.1685 18.9951 19.4038 19.4142 19.5668L19.7902 19.7209V15.4296L19.4399 15.5304C19.0132 15.6479 18.6204 15.8647 18.2937 16.1631Z" fill="#FF1A50"/>
<path d="M20.7163 7.36958C17.8927 7.37067 15.1329 8.20897 12.7858 9.77848C10.4386 11.348 8.60957 13.5782 7.52988 16.1872C6.45019 18.7962 6.16834 21.6667 6.71999 24.4358C7.27164 27.205 8.63201 29.7484 10.6291 31.7444C12.6261 33.7404 15.1702 35.0995 17.9396 35.6497C20.7091 36.2 23.5795 35.9166 26.1879 34.8356C28.7963 33.7546 31.0256 31.9244 32.5939 29.5764C34.1622 27.2285 34.9991 24.4682 34.9987 21.6447C34.9987 19.7694 34.6292 17.9125 33.9114 16.1801C33.1935 14.4477 32.1414 12.8737 30.815 11.5481C29.4887 10.2224 27.9142 9.17106 26.1814 8.4541C24.4486 7.73714 22.5915 7.36861 20.7163 7.36958ZM26.2638 26.6604C26.0461 27.1762 25.7239 27.6414 25.3175 28.0266C24.5212 28.7857 23.5283 29.3067 22.4512 29.5304L22.2293 29.5763V31.3112C22.235 31.4747 22.2069 31.6376 22.1467 31.7898C22.0872 31.9422 21.9968 32.0806 21.8813 32.1964C21.7658 32.3122 21.6277 32.4029 21.4755 32.4629C21.3232 32.5228 21.1605 32.5514 20.9969 32.5472C20.8367 32.5508 20.6776 32.5215 20.5292 32.461C20.3803 32.4014 20.2454 32.3115 20.1331 32.1969C20.0177 32.0807 19.9272 31.9422 19.8672 31.7898C19.8067 31.6378 19.7792 31.4746 19.7865 31.3112V29.6331L19.5463 29.6056C18.8319 29.5176 18.1328 29.3325 17.4684 29.0555C16.6958 28.7158 15.9879 28.2448 15.376 27.6635C15.216 27.5413 15.0856 27.3846 14.9945 27.2051C14.904 27.0251 14.8557 26.8269 14.8533 26.6255C14.8571 26.4682 14.8925 26.3133 14.9574 26.17C15.0223 26.0266 15.1154 25.8978 15.2311 25.7911C15.3394 25.6733 15.4713 25.5798 15.6183 25.5166C15.7652 25.4534 15.9239 25.4219 16.0838 25.4243C16.363 25.414 16.6353 25.5127 16.8431 25.6994C17.2786 26.1194 17.7728 26.474 18.3102 26.7521C18.6793 26.9358 19.0681 27.0767 19.4692 27.1721L19.8067 27.2509V22.2333L19.6031 22.1838C18.2582 21.8378 17.219 21.3213 16.4855 20.6342C15.6841 19.886 15.2769 18.8571 15.2769 17.5734C15.2615 16.9984 15.368 16.4266 15.5892 15.8956C15.8105 15.3646 16.1415 14.8864 16.5607 14.4925C17.3987 13.7287 18.4474 13.2353 19.5701 13.0767L19.792 13.04V11.9727C19.7875 11.8075 19.8178 11.6433 19.881 11.4907C19.9442 11.3381 20.0388 11.2005 20.1588 11.0869C20.2765 10.974 20.4153 10.8854 20.5673 10.8262C20.7193 10.7671 20.8815 10.7385 21.0445 10.7421C21.2027 10.7373 21.36 10.7654 21.5067 10.8247C21.6539 10.8852 21.7864 10.9765 21.8955 11.0924C22.0083 11.2095 22.0963 11.3481 22.1543 11.5C22.2123 11.6519 22.239 11.8139 22.2329 11.9763V13.0767L22.453 13.1189C23.0341 13.2282 23.6004 13.4054 24.1402 13.647C24.7195 13.8965 25.2507 14.2453 25.71 14.6777C25.8785 14.8047 26.0168 14.9674 26.1151 15.1542C26.2134 15.3409 26.2692 15.547 26.2785 15.7578C26.2724 16.0711 26.1452 16.3698 25.9237 16.5914C25.7021 16.8129 25.4034 16.9401 25.0901 16.9462C24.8643 16.9533 24.6442 16.8746 24.4739 16.7261C24.165 16.4288 23.8118 16.1813 23.4268 15.9926C23.1573 15.8521 22.8763 15.735 22.5869 15.6423L22.2329 15.5268V20.3261L22.4292 20.3829C23.7587 20.7626 24.7784 21.2797 25.4587 21.9289C26.1923 22.6258 26.5774 23.6711 26.5774 25.0282C26.5867 25.5881 26.4799 26.1438 26.2638 26.6604Z" fill="#FF1A50"/>
</svg>
