<svg width="35" height="36" viewBox="0 0 35 36" fill="none" xmlns="http://www.w3.org/2000/svg">
<path d="M22.7007 21.4054H11.5472L12.8004 15.0948H21.4475L22.7007 21.4054Z" fill="#FF1A50"/>
<path d="M17.312 28.6626H6.15857L7.41177 22.352H16.0588L17.312 28.6626Z" fill="#D2D2D2"/>
<path d="M29.2353 28.6626H18.0818L19.335 22.352H27.9821L29.2353 28.6626Z" fill="#D2D2D2"/>
<path d="M35 35.9198H23.8465L25.0997 29.6092H33.7468L35 35.9198Z" fill="#FF1A50"/>
<path d="M11.1535 35.9198H0L1.2532 29.6092H9.90027L11.1535 35.9198Z" fill="#FF1A50"/>
<path d="M23.0767 35.9198H11.9232L13.1764 29.6092H21.8235L23.0767 35.9198Z" fill="#D2D2D2"/>
<path d="M3.19506 5.03449H2.17847V10.4718H3.19506V5.03449Z" fill="#D2D2D2"/>
<path d="M5.37341 8.26677V7.2388H-2.09808e-05V8.26677H5.37341Z" fill="#D2D2D2"/>
<path d="M32.8215 1.94847H31.8049V7.38575H32.8215V1.94847Z" fill="#D2D2D2"/>
<path d="M35 5.18075V4.15278H29.6266V5.18075H35Z" fill="#D2D2D2"/>
<path d="M18.4803 0.9198H17.683V5.18145H18.4803V0.9198Z" fill="#D2D2D2"/>
<path d="M20.1868 3.4542V2.64798L15.9752 2.64798V3.4542H20.1868Z" fill="#D2D2D2"/>
<path d="M12.9468 8.87434H12.5394V11.0519H12.9468V8.87434Z" fill="#D2D2D2"/>
<path d="M13.8187 10.1694V9.7574H11.6667V10.1694H13.8187Z" fill="#D2D2D2"/>
<path d="M30.977 15.238H30.5696V17.4156H30.977V15.238Z" fill="#D2D2D2"/>
<path d="M31.849 16.533V16.121H29.697V16.533H31.849Z" fill="#D2D2D2"/>
<path d="M3.37048 15.2194H2.96307V17.397H3.37048V15.2194Z" fill="#D2D2D2"/>
<path d="M4.24243 16.5144V16.1025H2.09041V16.5144H4.24243Z" fill="#D2D2D2"/>
<path d="M24.6134 9.93495H24.206V12.1125H24.6134V9.93495Z" fill="#D2D2D2"/>
<path d="M25.4854 11.23V10.818H23.3333V11.23H25.4854Z" fill="#D2D2D2"/>
</svg>
