<svg width="35" height="36" viewBox="0 0 35 36" fill="none" xmlns="http://www.w3.org/2000/svg">
<path d="M11.0055 34.6748C11.1924 34.7496 11.3794 34.8217 11.569 34.8885C11.7285 34.9453 11.8979 34.9687 12.0668 34.9572C12.2357 34.9457 12.4004 34.8995 12.5507 34.8216C12.701 34.7436 12.8337 34.6356 12.9404 34.5042C13.0472 34.3727 13.1258 34.2207 13.1713 34.0576L13.8816 31.474C13.9627 31.1757 13.9289 30.8579 13.787 30.5833C13.6451 30.3087 13.4053 30.0974 13.1152 29.9912H13.0938C12.8057 29.8792 12.4863 29.8788 12.1978 29.99C11.9094 30.1011 11.6728 30.3159 11.5343 30.5923L10.3459 32.9809C10.2702 33.1342 10.2273 33.3016 10.2199 33.4725C10.2124 33.6433 10.2406 33.8138 10.3027 33.9732C10.3647 34.1325 10.4593 34.2772 10.5803 34.398C10.7013 34.5188 10.8461 34.613 11.0055 34.6748Z" fill="#D2D2D2"/>
<path d="M7.52852 27.5839L5.55768 29.4007C5.43304 29.5141 5.33316 29.6521 5.26433 29.806C5.19551 29.9599 5.15921 30.1263 5.1577 30.2949C5.1562 30.4635 5.18953 30.6306 5.2556 30.7856C5.32167 30.9407 5.41906 31.0805 5.54166 31.1961C5.69387 31.3404 5.84876 31.4793 6.00365 31.6156C6.13147 31.7256 6.28056 31.8081 6.44164 31.858C6.60271 31.9079 6.77233 31.9241 6.93993 31.9055C7.10752 31.887 7.26951 31.8341 7.41579 31.7502C7.56208 31.6663 7.68954 31.5532 7.79023 31.4179L9.39254 29.2805C9.5759 29.0317 9.65976 28.7234 9.62765 28.4159C9.59553 28.1085 9.44978 27.8241 9.21897 27.6186L9.1976 27.5999C8.97139 27.3897 8.67489 27.2716 8.36616 27.2686C8.05743 27.2656 7.75872 27.3781 7.52852 27.5839Z" fill="#D2D2D2"/>
<path d="M16.3572 31.9122L16.1356 34.5839C16.1209 34.7525 16.1411 34.9223 16.195 35.0827C16.249 35.2431 16.3354 35.3906 16.449 35.5161C16.5626 35.6415 16.7008 35.7421 16.855 35.8115C17.0093 35.881 17.1762 35.9179 17.3453 35.9198H17.4922H17.9649C18.1332 35.9141 18.2985 35.8739 18.4505 35.8015C18.6025 35.7291 18.738 35.6261 18.8485 35.499C18.959 35.3719 19.0421 35.2234 19.0927 35.0628C19.1433 34.9021 19.1603 34.7327 19.1426 34.5652L18.8755 31.8935C18.8449 31.5879 18.7009 31.3049 18.4721 31.1001C18.2432 30.8954 17.9461 30.7838 17.6391 30.7874H17.575C17.2685 30.7895 16.9738 30.906 16.7486 31.114C16.5234 31.3221 16.3838 31.6067 16.3572 31.9122Z" fill="#D2D2D2"/>
<path d="M4.87936 23.3385L2.38241 24.3137C2.22515 24.3746 2.08212 24.4673 1.96222 24.5859C1.84232 24.7046 1.74812 24.8467 1.68549 25.0033C1.62286 25.16 1.59314 25.3278 1.59817 25.4965C1.60321 25.6651 1.64291 25.8309 1.71478 25.9835C1.80558 26.1706 1.89905 26.3576 1.99786 26.5419C2.07695 26.6909 2.18592 26.8219 2.31793 26.9268C2.44994 27.0317 2.60215 27.1083 2.76506 27.1516C2.92797 27.195 3.09809 27.2043 3.26476 27.1789C3.43142 27.1536 3.59105 27.0941 3.73369 27.0042L6.00631 25.5855C6.26476 25.4199 6.45263 25.1644 6.53353 24.8682C6.61444 24.5721 6.58264 24.2564 6.44428 23.9824V23.961C6.30981 23.6791 6.07392 23.4583 5.78377 23.3429C5.49362 23.2275 5.17062 23.2259 4.87936 23.3385Z" fill="#D2D2D2"/>
<path d="M29.109 25.3744L31.4056 26.753C31.5498 26.8405 31.7104 26.8973 31.8775 26.9198C32.0446 26.9424 32.2145 26.9302 32.3767 26.8841C32.5388 26.8379 32.6897 26.7588 32.82 26.6517C32.9502 26.5445 33.0569 26.4117 33.1335 26.2614C33.2269 26.0744 33.3177 25.8847 33.4005 25.695C33.4699 25.5412 33.5068 25.3748 33.5089 25.2062C33.5111 25.0375 33.4784 24.8702 33.413 24.7147C33.3476 24.5592 33.2508 24.4189 33.1287 24.3026C33.0067 24.1862 32.8619 24.0963 32.7035 24.0385L30.1879 23.1087C29.897 23.0036 29.5774 23.0112 29.2918 23.1298C29.0062 23.2484 28.7752 23.4697 28.6443 23.75V23.7713C28.5071 24.0482 28.4787 24.3665 28.5648 24.6633C28.6508 24.9602 28.845 25.2139 29.109 25.3744Z" fill="#D2D2D2"/>
<path d="M21.3378 31.4072L22.0962 33.9774C22.1443 34.1401 22.2255 34.291 22.3346 34.4208C22.4438 34.5506 22.5786 34.6564 22.7305 34.7317C22.8824 34.8069 23.0482 34.8499 23.2176 34.8581C23.3869 34.8662 23.5561 34.8393 23.7145 34.779C23.9015 34.7068 24.0884 34.6347 24.2727 34.5572C24.4288 34.491 24.5696 34.3933 24.6864 34.2703C24.8032 34.1474 24.8934 34.0017 24.9515 33.8423C25.0096 33.6829 25.0343 33.5133 25.0241 33.344C25.0139 33.1746 24.969 33.0092 24.8922 32.858L23.6691 30.4721C23.5263 30.1975 23.2859 29.9865 22.9952 29.8807C22.7045 29.7748 22.3847 29.7818 22.0989 29.9003H22.0775C21.787 30.0119 21.5493 30.2292 21.4122 30.5086C21.275 30.788 21.2484 31.109 21.3378 31.4072Z" fill="#D2D2D2"/>
<path d="M25.7869 29.1229L27.4292 31.2389C27.5321 31.3726 27.6614 31.4837 27.8091 31.5651C27.9569 31.6465 28.1198 31.6966 28.2877 31.7122C28.4557 31.7277 28.625 31.7084 28.7852 31.6555C28.9453 31.6025 29.0928 31.5171 29.2185 31.4045C29.3734 31.2656 29.5256 31.124 29.6751 30.9797C29.7954 30.8615 29.8901 30.7197 29.9533 30.5632C30.0164 30.4067 30.0467 30.2389 30.0422 30.0702C30.0377 29.9015 29.9985 29.7356 29.9271 29.5827C29.8556 29.4298 29.7535 29.2933 29.6271 29.1816L27.6215 27.4023C27.3893 27.1983 27.0891 27.0888 26.7802 27.0953C26.4713 27.1017 26.176 27.2236 25.9524 27.437L25.9311 27.4557C25.7027 27.665 25.5611 27.9525 25.5344 28.2612C25.5077 28.5699 25.5978 28.8774 25.7869 29.1229Z" fill="#D2D2D2"/>
<path d="M17.4921 0.919805C15.0327 0.917904 12.6006 1.43528 10.3548 2.43811C8.10898 3.44094 6.09998 4.90664 4.4591 6.73942C2.81823 8.5722 1.58242 10.7308 0.832466 13.0741C0.0825142 15.4174 -0.164704 17.8927 0.106972 20.3381C0.126048 20.5062 0.179603 20.6685 0.264263 20.8149C0.348923 20.9613 0.462874 21.0886 0.598991 21.189C0.735108 21.2893 0.890456 21.3604 1.05531 21.3979C1.22017 21.4354 1.39099 21.4384 1.55708 21.4068L4.19021 20.9152C4.49413 20.8591 4.76573 20.6904 4.95084 20.4428C5.13596 20.1952 5.22099 19.8869 5.18898 19.5794C5.15159 19.1866 5.13289 18.7938 5.13289 18.3984C5.13737 15.5044 6.15486 12.7033 8.00866 10.4816C9.86246 8.25991 12.4355 6.75797 15.2809 6.23661L15.5666 4.01103C15.6295 3.54227 15.8603 3.11227 16.2162 2.80088C16.572 2.48948 17.0287 2.31785 17.5014 2.31785C17.9742 2.31785 18.4308 2.48948 18.7867 2.80088C19.1425 3.11227 19.3733 3.54227 19.4362 4.01103L19.7219 6.23661C22.5673 6.75797 25.1404 8.25991 26.9942 10.4816C28.848 12.7033 29.8654 15.5044 29.8699 18.3984C29.8699 18.7137 29.8699 19.0316 29.8352 19.3469C29.8107 19.6538 29.9018 19.9588 30.0906 20.202C30.2793 20.4452 30.5521 20.6091 30.8553 20.6614L33.4992 21.1076C33.6657 21.1355 33.8361 21.1289 33.9999 21.0881C34.1638 21.0473 34.3174 20.9732 34.4514 20.8705C34.5854 20.7677 34.6969 20.6385 34.7788 20.4909C34.8608 20.3432 34.9115 20.1803 34.9279 20.0122C34.976 19.4778 35 18.9435 35 18.4091C34.9922 13.7684 33.1443 9.32042 29.8618 6.04146C26.5794 2.76249 22.1306 0.920506 17.4921 0.919805Z" fill="#D2D2D2"/>
<path d="M18.1037 4.20073L20.4057 22.1015C20.4593 22.5158 20.4239 22.9368 20.302 23.3364C20.18 23.7359 19.9743 24.1049 19.6986 24.4187C19.4229 24.7324 19.0835 24.9838 18.703 25.1559C18.3226 25.3281 17.9098 25.4172 17.4922 25.4171C17.0748 25.4168 16.6624 25.3275 16.2822 25.1551C15.9021 24.9828 15.563 24.7314 15.2876 24.4177C15.0121 24.1039 14.8067 23.7351 14.6849 23.3357C14.5632 22.9363 14.5278 22.5156 14.5813 22.1015L16.8833 4.20073C16.9005 4.05087 16.9722 3.91256 17.0847 3.81216C17.1973 3.71176 17.3428 3.65628 17.4935 3.65628C17.6443 3.65628 17.7898 3.71176 17.9023 3.81216C18.0149 3.91256 18.0866 4.05087 18.1037 4.20073Z" fill="#FF1A50"/>
</svg>
