<svg width="35" height="36" viewBox="0 0 35 36" fill="none" xmlns="http://www.w3.org/2000/svg">
<path d="M26.25 16.9008H28.4375C28.6696 16.9008 28.8921 16.8086 29.0562 16.6445C29.2203 16.4804 29.3125 16.2579 29.3125 16.0258V1.7948C29.3125 1.56274 29.4047 1.34018 29.5688 1.17608C29.7329 1.01199 29.9554 0.9198 30.1875 0.9198C30.4196 0.9198 30.6421 1.01199 30.8062 1.17608C30.9703 1.34018 31.0625 1.56274 31.0625 1.7948V16.0258C31.0625 16.2579 31.1547 16.4804 31.3188 16.6445C31.4829 16.8086 31.7054 16.9008 31.9375 16.9008H34.125C34.3571 16.9008 34.5796 16.993 34.7437 17.1571C34.9078 17.3212 35 17.5437 35 17.7758V30.8693C35 31.1014 34.9078 31.3239 34.7437 31.488C34.5796 31.6521 34.3571 31.7443 34.125 31.7443H31.9375C31.7054 31.7443 31.4829 31.8365 31.3188 32.0006C31.1547 32.1647 31.0625 32.3872 31.0625 32.6193V35.0448C31.0625 35.2769 30.9703 35.4994 30.8062 35.6635C30.6421 35.8276 30.4196 35.9198 30.1875 35.9198C29.9554 35.9198 29.7329 35.8276 29.5688 35.6635C29.4047 35.4994 29.3125 35.2769 29.3125 35.0448V32.6193C29.3125 32.3872 29.2203 32.1647 29.0562 32.0006C28.8921 31.8365 28.6696 31.7443 28.4375 31.7443H26.25C26.0179 31.7443 25.7954 31.6521 25.6313 31.488C25.4672 31.3239 25.375 31.1014 25.375 30.8693V17.7758C25.375 17.5437 25.4672 17.3212 25.6313 17.1571C25.7954 16.993 26.0179 16.9008 26.25 16.9008Z" fill="#D2D2D2"/>
<path d="M13.5625 4.7698H15.75C15.9821 4.7698 16.2046 4.67761 16.3687 4.51352C16.5328 4.34942 16.625 4.12686 16.625 3.8948V1.7948C16.625 1.56274 16.7172 1.34018 16.8813 1.17608C17.0454 1.01199 17.2679 0.9198 17.5 0.9198C17.7321 0.9198 17.9546 1.01199 18.1187 1.17608C18.2828 1.34018 18.375 1.56274 18.375 1.7948V3.8948C18.375 4.12686 18.4672 4.34942 18.6313 4.51352C18.7954 4.67761 19.0179 4.7698 19.25 4.7698H21.4375C21.6696 4.7698 21.8921 4.86199 22.0562 5.02608C22.2203 5.19018 22.3125 5.41274 22.3125 5.6448V30.8693C22.3125 31.1014 22.2203 31.3239 22.0562 31.488C21.8921 31.6521 21.6696 31.7443 21.4375 31.7443H19.25C19.0179 31.7443 18.7954 31.8365 18.6313 32.0006C18.4672 32.1647 18.375 32.3872 18.375 32.6193V35.0448C18.375 35.2769 18.2828 35.4994 18.1187 35.6635C17.9546 35.8276 17.7321 35.9198 17.5 35.9198C17.2679 35.9198 17.0454 35.8276 16.8813 35.6635C16.7172 35.4994 16.625 35.2769 16.625 35.0448V32.6193C16.625 32.3872 16.5328 32.1647 16.3687 32.0006C16.2046 31.8365 15.9821 31.7443 15.75 31.7443H13.5625C13.3304 31.7443 13.1079 31.6521 12.9438 31.488C12.7797 31.3239 12.6875 31.1014 12.6875 30.8693V5.6448C12.6875 5.41274 12.7797 5.19018 12.9438 5.02608C13.1079 4.86199 13.3304 4.7698 13.5625 4.7698Z" fill="#FF1A50"/>
<path d="M0.875 4.7698H3.0625C3.29456 4.7698 3.51712 4.67761 3.68122 4.51352C3.84531 4.34942 3.9375 4.12686 3.9375 3.8948V1.7948C3.9375 1.56274 4.02969 1.34018 4.19378 1.17608C4.35788 1.01199 4.58044 0.9198 4.8125 0.9198C5.04456 0.9198 5.26712 1.01199 5.43122 1.17608C5.59531 1.34018 5.6875 1.56274 5.6875 1.7948V3.8948C5.6875 4.12686 5.77969 4.34942 5.94378 4.51352C6.10788 4.67761 6.33044 4.7698 6.5625 4.7698H8.75C8.98206 4.7698 9.20462 4.86199 9.36872 5.02608C9.53281 5.19018 9.625 5.41274 9.625 5.6448V18.7383C9.625 18.9704 9.53281 19.1929 9.36872 19.357C9.20462 19.5211 8.98206 19.6133 8.75 19.6133H6.5625C6.33044 19.6133 6.10788 19.7055 5.94378 19.8696C5.77969 20.0337 5.6875 20.2562 5.6875 20.4883V35.0448C5.6875 35.2769 5.59531 35.4994 5.43122 35.6635C5.26712 35.8276 5.04456 35.9198 4.8125 35.9198C4.58044 35.9198 4.35788 35.8276 4.19378 35.6635C4.02969 35.4994 3.9375 35.2769 3.9375 35.0448V20.4883C3.9375 20.2562 3.84531 20.0337 3.68122 19.8696C3.51712 19.7055 3.29456 19.6133 3.0625 19.6133H0.875C0.642936 19.6133 0.420378 19.5211 0.256284 19.357C0.0921898 19.1929 0 18.9704 0 18.7383V5.6448C0 5.41274 0.0921898 5.19018 0.256284 5.02608C0.420378 4.86199 0.642936 4.7698 0.875 4.7698Z" fill="#D2D2D2"/>
</svg>
