<svg width="35" height="36" viewBox="0 0 35 36" fill="none" xmlns="http://www.w3.org/2000/svg">
<path d="M26.2716 26.8471L25.9951 26.7106V29.7209L26.2611 29.6124C26.508 29.5117 26.7345 29.367 26.9297 29.1853C27.0519 29.0736 27.1496 28.9377 27.2167 28.7863C27.2839 28.6343 27.3174 28.4695 27.3147 28.3033C27.3153 27.9491 27.1843 27.6072 26.9471 27.3442C26.7546 27.1381 26.5256 26.9696 26.2716 26.8471Z" fill="#FF1A50"/>
<path d="M23.2202 21.9657C23.0906 22.0899 22.9871 22.2386 22.9157 22.4032C22.8439 22.5666 22.8058 22.7428 22.8036 22.9213C22.8039 23.1 22.8384 23.277 22.9052 23.4428C22.974 23.6082 23.0751 23.7581 23.2027 23.8839C23.4404 24.0929 23.7129 24.2587 24.0078 24.3739L24.2738 24.4824V21.4547L24.0288 21.5247C23.7284 21.6064 23.4515 21.7574 23.2202 21.9657Z" fill="#FF1A50"/>
<path d="M24.9278 15.7683C22.9351 15.7676 20.9869 16.3579 19.3297 17.4645C17.6725 18.5711 16.3807 20.1442 15.6176 21.985C14.8546 23.8258 14.6546 25.8516 15.0429 27.8061C15.4313 29.7606 16.3905 31.556 17.7993 32.9653C19.2081 34.3746 21.0032 35.3344 22.9575 35.7234C24.9119 36.1124 26.9377 35.9132 28.7788 35.1507C30.6199 34.3883 32.1935 33.0971 33.3006 31.4402C34.4078 29.7834 34.9987 27.8355 34.9987 25.8428C34.9987 23.1715 33.9378 20.6095 32.0492 18.7203C30.1606 16.8311 27.5991 15.7692 24.9278 15.7683ZM28.84 29.3771C28.6879 29.7418 28.4614 30.0707 28.1751 30.3429C27.6116 30.8741 26.9112 31.2376 26.1525 31.3927L25.995 31.4242V32.6489C25.9981 32.7644 25.9781 32.8793 25.936 32.9869C25.8939 33.0945 25.8307 33.1926 25.7501 33.2753C25.667 33.3556 25.5697 33.4196 25.4631 33.4643C25.3516 33.5069 25.2325 33.526 25.1132 33.5203C25.0006 33.5233 24.8887 33.503 24.7843 33.4608C24.6784 33.4183 24.5824 33.3544 24.5023 33.2731C24.4222 33.1918 24.3598 33.0949 24.3189 32.9884C24.2752 32.8771 24.2549 32.7579 24.2594 32.6384V31.4557L24.0914 31.4347C23.5872 31.3751 23.0937 31.2456 22.6252 31.0497C22.0781 30.811 21.5771 30.4782 21.145 30.0664C21.0324 29.979 20.9404 29.8679 20.8755 29.741C20.812 29.6151 20.7784 29.4762 20.7776 29.3351C20.779 29.2238 20.8041 29.1141 20.8511 29.0132C20.8973 28.9118 20.9626 28.8203 21.0435 28.7437C21.1195 28.6598 21.2124 28.593 21.3162 28.5477C21.42 28.5025 21.5322 28.4798 21.6454 28.4813C21.8422 28.4781 22.0326 28.5508 22.1773 28.6842C22.4895 28.981 22.8431 29.2309 23.2271 29.4261C23.4876 29.5566 23.7624 29.6565 24.0459 29.7235L24.2804 29.7795V26.2557L24.1369 26.2207C23.3259 26.0426 22.5712 25.6677 21.9393 25.1289C21.5312 24.6865 21.2556 24.1382 21.1442 23.5467C21.0328 22.9551 21.0901 22.3442 21.3095 21.7836C21.4716 21.4086 21.7099 21.0713 22.0093 20.7933C22.6016 20.2558 23.3415 19.9084 24.1334 19.796L24.2909 19.768V19.0157C24.286 18.8996 24.3062 18.7838 24.3503 18.6762C24.3944 18.5687 24.4613 18.472 24.5463 18.3928C24.7137 18.2325 24.9374 18.1445 25.1692 18.1478C25.3392 18.1451 25.5058 18.1951 25.6462 18.291C25.7865 18.3869 25.8937 18.5239 25.953 18.6832C25.9958 18.7947 26.0148 18.9139 26.009 19.0332V19.803L26.1665 19.8345C26.5763 19.9107 26.9757 20.0352 27.3563 20.2054C27.7641 20.3824 28.1383 20.6286 28.462 20.9333C28.5835 21.0261 28.6817 21.1459 28.749 21.2832C28.8185 21.4153 28.858 21.5611 28.8645 21.7101C28.86 21.9311 28.7699 22.1418 28.6133 22.2977C28.4567 22.4537 28.2457 22.5429 28.0246 22.5465C27.8655 22.5535 27.7098 22.4983 27.5907 22.3925C27.3728 22.1828 27.1238 22.0081 26.8524 21.8746C26.6617 21.7746 26.4626 21.6914 26.2575 21.6261L26.009 21.5457V24.94L26.149 24.9785C26.9384 25.1672 27.6714 25.5414 28.2871 26.0703C28.8085 26.5602 29.0744 27.2985 29.0744 28.2538C29.0739 28.6403 28.9941 29.0226 28.84 29.3771Z" fill="#FF1A50"/>
<path d="M13.1876 27.253C11.4817 27.9908 9.91288 29.0118 8.54753 30.2729L13.1876 24.4326C13.5353 21.5632 14.9208 18.9202 17.0828 17.0018C19.2448 15.0835 22.0339 14.0224 24.9243 14.0186C25.1762 14.0186 25.4281 14.0186 25.6766 14.0466C26.6923 13.3454 27.6071 12.5082 28.3955 11.5586C31.5099 7.67792 31.111 2.13152 30.3797 1.52964C29.6483 0.927757 24.1999 1.67311 21.0855 5.55383C18.8495 8.35327 17.8137 12.7449 17.6772 15.2329L15.4762 18.0008C16.3125 16.0762 16.9633 13.6197 16.7569 11.2437C16.323 6.26419 11.081 0.836779 10.1432 0.920762C9.20542 1.00475 6.94136 7.09703 7.37527 12.08C7.77419 16.6641 11.3575 20.9718 12.6522 21.5561L8.38307 26.9311C9.1996 24.9634 9.55856 22.836 9.43286 20.7093C8.99895 15.7298 3.75699 10.3059 2.81918 10.3899C1.88136 10.4738 -0.379193 16.5661 0.0547199 21.5456C0.439643 25.9722 3.78848 30.1364 5.18471 30.9483L4.2749 32.096C4.17464 32.2215 4.10248 32.367 4.06324 32.5228C4.024 32.6785 4.0186 32.8408 4.04743 32.9988C4.09415 33.2585 4.23185 33.493 4.43585 33.6602C4.54757 33.7524 4.67656 33.8214 4.8153 33.8632C4.95403 33.9049 5.09972 33.9185 5.24378 33.9032C5.38784 33.8878 5.52738 33.8439 5.65424 33.7739C5.7811 33.704 5.89273 33.6094 5.98256 33.4958L7.10231 32.096C7.07909 32.1622 7.06959 32.2325 7.07434 32.3025C7.18281 33.2473 12.5437 36.4387 17.4498 35.8473C17.76 35.8076 18.075 35.7586 18.3946 35.7003C16.9672 34.7528 15.7625 33.5068 14.8636 32.0484C13.9646 30.59 13.3928 28.9539 13.1876 27.253Z" fill="#D2D2D2"/>
<path d="M26.0335 29.5345V29.629L26.1245 29.594L26.0335 29.5345Z" fill="#D2D2D2"/>
</svg>
