<svg width="645" height="409" viewBox="0 0 645 409" fill="none" xmlns="http://www.w3.org/2000/svg">
<g clip-path="url(#clip0_305_2104)">
<rect x="0.5" y="1.41992" width="644" height="407" rx="19.5" fill="white" stroke="#D9D9D9"/>
<path d="M591.397 294.494H384.085V212.197H591.397V294.494ZM385.35 293.626H590.132V213.065H385.35V293.626Z" fill="#E0E0E0"/>
<path d="M548.629 256.079H411.851V258.829H548.629V256.079Z" fill="#F0F0F0"/>
<path d="M558.053 266.336H411.851V269.338H558.053V266.336Z" fill="#F0F0F0"/>
<path d="M558.053 276.714H411.851V279.716H558.053V276.714Z" fill="#F0F0F0"/>
<path d="M459.653 241.18H411.851V248.321H459.653V241.18Z" fill="#F0F0F0"/>
<path d="M590.764 212.631H384.755V225.734H590.764V212.631Z" fill="#E0E0E0"/>
<path d="M574.915 223.772C574.649 223.599 577.305 221.403 580.835 218.87C584.364 216.336 587.463 214.418 587.716 214.583C587.969 214.748 585.325 216.952 581.796 219.494C578.267 222.037 575.168 223.946 574.915 223.772Z" fill="white"/>
<path d="M587.741 223.772C587.488 223.946 584.402 222.037 580.86 219.494C577.318 216.952 574.674 214.757 574.94 214.583C575.206 214.409 578.279 216.318 581.821 218.87C585.363 221.421 587.982 223.599 587.741 223.772Z" fill="white"/>
<path d="M336.296 49.6589H130.287V131.097H336.296V49.6589Z" fill="#E6E6E6"/>
<path d="M294.173 93.1157H157.395V95.8665H294.173V93.1157Z" fill="#F0F0F0"/>
<path d="M303.597 103.373H157.395V106.375H303.597V103.373Z" fill="#F0F0F0"/>
<path d="M303.597 113.751H157.395V116.753H303.597V113.751Z" fill="#F0F0F0"/>
<path d="M205.197 78.2163H157.395V85.3579H205.197V78.2163Z" fill="#F0F0F0"/>
<path d="M336.296 49.6589H130.287V62.7619H336.296V49.6589Z" fill="#E0E0E0"/>
<path d="M319.75 60.7401C319.484 60.5753 322.141 58.3712 325.67 55.8374C329.199 53.3035 332.298 51.3858 332.551 51.5594C332.804 51.7329 330.161 53.9283 326.631 56.4621C323.102 58.996 320.003 60.8963 319.75 60.7401Z" fill="white"/>
<path d="M332.551 60.7402C332.298 60.9137 329.212 59.0047 325.67 56.4622C322.128 53.9197 319.484 51.733 319.75 51.5594C320.016 51.3859 323.09 53.2949 326.631 55.8374C330.173 58.3799 332.817 60.5753 332.551 60.7402Z" fill="white"/>
<path d="M258.274 200.942H51V118.636H258.274V200.942ZM52.2649 200.074H257.009V119.504H52.2649V200.074Z" fill="#E0E0E0"/>
<path d="M215.519 162.527H78.7403V165.278H215.519V162.527Z" fill="#F0F0F0"/>
<path d="M224.943 172.784H78.7403V175.786H224.943V172.784Z" fill="#F0F0F0"/>
<path d="M224.943 183.162H78.7403V186.165H224.943V183.162Z" fill="#F0F0F0"/>
<path d="M126.543 147.628H78.7403V154.769H126.543V147.628Z" fill="#F0F0F0"/>
<path d="M257.641 119.07H51.6325V132.173H257.641V119.07Z" fill="#E0E0E0"/>
<path d="M497.487 219.799H254.239V369.19H497.487V219.799Z" fill="#E6E6E6"/>
<path d="M266.471 172.74H75.9194V308.551H266.471V172.74Z" fill="#F0F0F0"/>
<path d="M266.471 172.74H75.9194V187.535H266.471V172.74Z" fill="#E0E0E0"/>
<path d="M91.6553 179.986C91.6207 180.522 91.3571 181.04 90.8973 181.475C90.4375 181.909 89.8018 182.242 89.0691 182.431C88.3363 182.62 87.5387 182.657 86.7754 182.538C86.012 182.419 85.3165 182.149 84.775 181.761C84.2336 181.373 83.8701 180.885 83.7297 180.356C83.5892 179.828 83.6781 179.283 83.9851 178.789C84.2922 178.295 84.8039 177.874 85.4569 177.577C86.1098 177.281 86.8753 177.123 87.6581 177.122C88.7407 177.141 89.7688 177.452 90.5178 177.988C91.2668 178.525 91.6757 179.243 91.6553 179.986Z" fill="white"/>
<path d="M107.885 179.986C107.852 180.525 107.59 181.046 107.129 181.483C106.669 181.921 106.031 182.255 105.296 182.446C104.56 182.637 103.759 182.675 102.992 182.556C102.225 182.437 101.526 182.165 100.982 181.776C100.438 181.386 100.073 180.895 99.9326 180.364C99.7922 179.833 99.8824 179.286 100.192 178.79C100.502 178.294 101.017 177.872 101.674 177.575C102.331 177.279 103.101 177.121 103.887 177.122C104.97 177.141 105.998 177.452 106.747 177.988C107.496 178.525 107.905 179.243 107.885 179.986Z" fill="white"/>
<path d="M124.114 179.986C124.082 180.525 123.819 181.046 123.359 181.483C122.898 181.921 122.261 182.255 121.525 182.446C120.789 182.637 119.988 182.675 119.221 182.556C118.454 182.437 117.755 182.165 117.211 181.776C116.667 181.386 116.302 180.895 116.162 180.364C116.021 179.833 116.112 179.286 116.421 178.79C116.731 178.294 117.246 177.872 117.903 177.575C118.56 177.279 119.33 177.121 120.117 177.122C121.199 177.141 122.227 177.452 122.976 177.988C123.725 178.525 124.134 179.243 124.114 179.986Z" fill="white"/>
<path d="M564.188 79.3619H320.939V245.675H564.188V79.3619Z" fill="#F0F0F0"/>
<path d="M564.188 79.3619H320.939V98.8429H564.188V79.3619Z" fill="#E0E0E0"/>
<path d="M341.659 88.9069C341.614 89.6151 341.267 90.2988 340.661 90.8729C340.055 91.4471 339.217 91.8865 338.25 92.1366C337.283 92.3866 336.23 92.4364 335.222 92.2796C334.215 92.1229 333.296 91.7665 332.581 91.2548C331.866 90.743 331.386 90.0985 331.2 89.4012C331.014 88.7038 331.131 87.9844 331.536 87.3323C331.941 86.6801 332.617 86.124 333.479 85.7329C334.34 85.3417 335.351 85.1329 336.384 85.1322C337.812 85.155 339.169 85.5649 340.158 86.2724C341.146 86.9798 341.686 87.9271 341.659 88.9069Z" fill="white"/>
<path d="M361.481 86.3562C362.182 86.8786 362.643 87.531 362.808 88.2322C362.973 88.9333 362.833 89.6522 362.406 90.2992C361.979 90.9462 361.284 91.4928 360.408 91.8707C359.531 92.2487 358.512 92.4414 357.477 92.4249C356.442 92.4083 355.437 92.1832 354.588 91.7776C353.738 91.372 353.081 90.8038 352.698 90.1438C352.316 89.4839 352.225 88.7613 352.437 88.0662C352.649 87.3711 353.155 86.7341 353.891 86.2347C354.922 85.5617 356.3 85.1966 357.722 85.2194C359.145 85.2422 360.497 85.651 361.481 86.3562Z" fill="white"/>
<path d="M384.389 88.9069C384.344 89.6151 383.997 90.2988 383.391 90.8729C382.785 91.4471 381.947 91.8865 380.98 92.1366C380.013 92.3866 378.96 92.4364 377.952 92.2796C376.945 92.1229 376.026 91.7665 375.311 91.2548C374.596 90.743 374.116 90.0985 373.93 89.4012C373.744 88.7038 373.861 87.9844 374.266 87.3323C374.671 86.6801 375.347 86.124 376.208 85.7329C377.07 85.3417 378.081 85.1329 379.114 85.1322C380.542 85.155 381.899 85.5649 382.888 86.2724C383.876 86.9798 384.416 87.9271 384.389 88.9069Z" fill="white"/>
<path d="M380.349 293.78C362.934 281.618 358.989 259.041 359.676 238.741C359.789 235.359 359.417 231.775 361.029 228.811C362.641 225.846 366.406 223.806 369.438 225.226C371.951 226.41 373.045 229.34 374.454 231.764C376.334 234.992 379.088 237.621 382.4 239.35C384.553 240.477 387.224 241.153 389.355 239.981C392.285 238.369 392.623 234.345 392.601 230.963C392.601 224.674 392.563 218.392 392.488 212.117C392.286 208.748 392.628 205.368 393.503 202.108C394.551 198.907 396.884 195.942 400.074 195.041C403.264 194.139 407.243 195.999 407.964 199.29C408.088 200.684 408.122 202.085 408.066 203.483C408.156 204.892 408.809 206.436 410.128 206.865C411.447 207.293 412.822 206.312 413.837 205.32C417.308 201.939 419.675 197.532 421.873 193.181C424.071 188.83 426.224 184.355 429.38 180.647C432.536 176.938 436.898 173.997 441.779 173.715C446.66 173.433 451.743 176.431 452.961 181.165C454.178 185.899 451.416 190.735 448.452 194.579C443.979 200.284 438.705 205.314 432.796 209.514C431.642 210.143 430.721 211.127 430.169 212.32C429.437 214.575 431.567 216.829 433.787 217.539C436.301 218.373 439.029 218.114 441.678 218.429C444.326 218.745 447.144 219.895 448.147 222.374C449.523 225.824 446.637 229.431 443.808 231.798C438.127 236.532 431.676 240.256 424.736 242.81C422.257 243.712 419.653 244.512 417.646 246.248C415.64 247.984 414.445 251.016 415.651 253.394C416.857 255.772 419.957 256.528 422.561 256.043C425.165 255.558 427.475 254.161 429.955 253.225C434.588 251.478 440.562 251.793 443.481 255.795C444.385 257.173 444.958 258.743 445.154 260.38C445.349 262.017 445.162 263.677 444.608 265.229C443.48 268.319 441.744 271.152 439.502 273.559C432.12 282.379 422.528 289.081 411.706 292.98C400.964 296.7 391.012 297.714 380.337 293.803" fill="#FF1A50"/>
<path d="M448.001 176.499C448.001 176.499 447.9 176.612 447.674 176.815L446.671 177.705C445.792 178.494 444.496 179.644 442.861 181.165C438.227 185.468 433.924 190.114 429.989 195.063C427.475 198.186 424.872 201.725 422.099 205.569C419.326 209.412 416.463 213.56 413.623 217.967C410.594 222.615 407.821 227.424 405.315 232.373C404.008 234.954 402.858 237.648 401.675 240.398L398.18 248.795C393.575 259.373 389.563 270.199 386.165 281.224C383.428 290.244 381.541 299.501 380.529 308.873C379.873 315.198 379.768 321.568 380.213 327.911C380.394 330.165 380.563 331.89 380.721 333.062C380.788 333.626 380.833 334.077 380.878 334.403V334.866C380.83 334.719 380.796 334.568 380.777 334.415C380.721 334.088 380.653 333.648 380.563 333.085C380.36 331.957 380.146 330.177 379.943 327.922C379.399 321.567 379.437 315.176 380.056 308.828C381.005 299.416 382.85 290.116 385.567 281.055C388.937 269.999 392.938 259.145 397.549 248.547L401.134 240.184C402.317 237.445 403.478 234.728 404.797 232.136C407.32 227.172 410.116 222.352 413.172 217.697C416.057 213.188 418.965 209.108 421.704 205.298C424.443 201.488 427.092 197.926 429.594 194.815C433.57 189.879 437.931 185.266 442.636 181.019C444.304 179.52 445.634 178.393 446.536 177.637L447.584 176.792C447.712 176.68 447.852 176.582 448.001 176.499Z" fill="#263238"/>
<path d="M404.943 232.113C404.784 231.649 404.675 231.169 404.616 230.682C404.436 229.746 404.233 228.428 403.997 226.714C403.512 223.333 403.016 218.7 402.486 213.572C401.956 208.443 401.359 203.799 400.863 200.451C400.604 198.783 400.378 197.442 400.221 196.506C400.097 196.027 400.033 195.535 400.029 195.041C400.223 195.493 400.363 195.966 400.446 196.45C400.694 197.374 400.976 198.704 401.291 200.384C401.934 203.765 402.565 208.364 403.095 213.504C403.625 218.644 404.075 223.152 404.425 226.658C404.594 228.236 404.74 229.577 404.853 230.648C404.941 231.131 404.971 231.623 404.943 232.113Z" fill="#263238"/>
<path d="M448.317 224.02C447.768 224.14 447.21 224.208 446.648 224.223C445.521 224.325 443.921 224.46 441.937 224.685C437.969 225.114 432.514 225.903 426.529 227.03C420.543 228.157 415.167 229.431 411.301 230.411C409.373 230.907 407.818 231.358 406.792 231.662C406.244 231.857 405.678 231.993 405.101 232.068C405.622 231.806 406.165 231.591 406.724 231.426C407.784 231.054 409.317 230.535 411.233 229.983C415.077 228.856 420.453 227.514 426.461 226.365C431.55 225.392 436.685 224.677 441.847 224.223C443.842 224.054 445.454 223.986 446.581 223.964C447.16 223.924 447.741 223.943 448.317 224.02Z" fill="#263238"/>
<path d="M386.12 280.266C386 280.102 385.901 279.924 385.827 279.736L385.083 278.169C384.44 276.805 383.572 274.788 382.535 272.319C380.439 267.36 377.767 260.416 374.927 252.706C372.086 244.997 369.471 238.053 367.488 233.037C366.518 230.603 365.718 228.608 365.121 227.12L364.489 225.508C364.402 225.322 364.341 225.125 364.309 224.922C364.429 225.085 364.528 225.263 364.602 225.452L365.346 227.018C365.977 228.382 366.856 230.4 367.893 232.868C369.99 237.828 372.661 244.771 375.502 252.481C378.342 260.191 380.957 267.134 382.941 272.15C383.91 274.585 384.711 276.58 385.297 278.068C385.556 278.71 385.77 279.195 385.939 279.68C386.027 279.865 386.088 280.063 386.12 280.266Z" fill="#263238"/>
<path d="M443.695 261.701C443.515 261.805 443.322 261.884 443.12 261.938L441.452 262.501L435.287 264.497C430.079 266.187 422.888 268.599 414.998 271.26C407.108 273.92 399.882 276.287 394.641 277.865C392.026 278.665 389.896 279.274 388.419 279.679L386.717 280.119C386.519 280.182 386.315 280.223 386.108 280.243C386.289 280.139 386.482 280.06 386.683 280.006L388.352 279.443L394.517 277.448C399.725 275.757 406.916 273.345 414.806 270.685C422.696 268.025 429.91 265.658 435.151 264.079C437.778 263.279 439.897 262.671 441.385 262.265L443.087 261.825C443.284 261.762 443.489 261.721 443.695 261.701Z" fill="#263238"/>
<path d="M457.072 50.2849L451.267 52.3589L448.776 44.7731C444.199 30.785 429.614 23.3569 416.212 28.0798C402.81 32.8026 395.675 48.1433 400.251 62.1314L402.742 69.7172L396.915 71.8024C394.693 72.6643 392.888 74.3494 391.876 76.5074C390.865 78.6653 390.723 81.1302 391.482 83.3897L407.634 132.748C407.969 133.867 408.526 134.906 409.271 135.806C410.016 136.705 410.934 137.445 411.971 137.982C413.008 138.519 414.142 138.843 415.306 138.933C416.47 139.024 417.641 138.879 418.748 138.508L478.905 116.99C481.156 116.13 482.986 114.43 484.01 112.248C485.034 110.066 485.171 107.572 484.394 105.29L468.23 55.932C467.886 54.8166 467.321 53.7819 466.569 52.8898C465.816 51.9976 464.891 51.2661 463.85 50.7391C462.809 50.212 461.672 49.9002 460.507 49.8222C459.342 49.7441 458.174 49.9015 457.072 50.2849ZM411.218 58.175C409.985 54.5379 410.206 50.5644 411.837 47.087C413.467 43.6095 416.38 40.898 419.965 39.5205C421.736 38.9148 423.61 38.6719 425.476 38.8063C427.342 38.9407 429.162 39.4497 430.828 40.3028C432.493 41.1559 433.969 42.3358 435.169 43.7719C436.368 45.2081 437.266 46.8711 437.808 48.6618L440.288 56.2476L413.698 65.7609L411.218 58.175ZM445.033 101.977L449.159 114.578C449.235 114.831 449.21 115.103 449.09 115.338C448.971 115.573 448.765 115.753 448.516 115.841L442.734 117.903C442.504 117.967 442.258 117.94 442.048 117.826C441.838 117.713 441.68 117.522 441.607 117.295L437.448 104.749C435.154 104.624 432.954 103.802 431.141 102.392C429.328 100.982 427.989 99.0514 427.303 96.8593C426.323 93.9613 426.502 90.7964 427.802 88.0272C429.103 85.2581 431.424 83.0995 434.28 82.0033C435.69 81.5215 437.183 81.3285 438.67 81.4358C440.156 81.5432 441.606 81.9487 442.932 82.6282C444.258 83.3077 445.434 84.2472 446.39 85.3908C447.345 86.5345 448.061 87.8587 448.494 89.2848C449.219 91.5115 449.279 93.9015 448.666 96.1618C448.054 98.4221 446.795 100.455 445.045 102.01L445.033 101.977Z" fill="#FF1A50"/>
<path d="M451.007 52.2237C451.007 52.3815 440.243 56.4281 426.852 61.241C413.462 66.054 402.539 69.9202 402.483 69.8075C402.427 69.6948 413.247 65.6144 426.649 60.7902C440.051 55.9659 450.951 52.0772 451.007 52.2237Z" fill="#263238"/>
<path d="M463.789 54.2977C463.839 54.3955 463.881 54.4973 463.913 54.6021C464.004 54.8275 464.105 55.1206 464.24 55.4813C464.533 56.3041 464.939 57.4425 465.446 58.8627L469.775 71.4644C471.578 76.8072 473.731 83.1419 476.121 90.1754C477.248 93.7034 478.578 97.3779 479.818 101.244C480.481 103.236 480.768 105.335 480.663 107.432C480.567 108.523 480.257 109.584 479.75 110.554C479.208 111.522 478.485 112.375 477.62 113.068C475.878 114.339 473.945 115.325 471.894 115.987L466.089 118.073L455.099 122.006L436.489 128.634L423.922 133.053L420.54 134.18L419.638 134.473C419.542 134.516 419.439 134.542 419.334 134.552C419.334 134.552 419.424 134.552 419.616 134.417L420.495 134.067L423.877 132.793L436.377 128.195L454.952 121.432L465.92 117.464L471.725 115.367C473.718 114.732 475.595 113.776 477.282 112.538C478.087 111.895 478.76 111.103 479.265 110.205C479.743 109.308 480.03 108.322 480.111 107.308C480.215 105.287 479.939 103.265 479.299 101.346C478.082 97.5132 476.797 93.8048 475.636 90.2768C473.291 83.232 471.127 76.8748 469.414 71.5321C467.701 66.1893 466.258 61.8948 465.266 58.874C464.793 57.3974 464.432 56.2477 464.139 55.4136L463.868 54.5119C463.834 54.4436 463.808 54.3718 463.789 54.2977Z" fill="#263238"/>
<path d="M432.048 38.754C432.048 38.754 431.451 38.4609 430.346 38.01C428.772 37.4051 427.107 37.0697 425.421 37.0181C422.922 36.9325 420.435 37.4021 418.139 38.3933C415.348 39.6275 412.961 41.6238 411.252 44.1531C409.532 46.6751 408.61 49.6556 408.603 52.7083C408.627 55.2103 409.006 57.6962 409.731 60.0912C410.317 62.1426 410.925 63.777 411.331 64.9155C411.571 65.4937 411.766 66.089 411.917 66.6964C411.597 66.1557 411.329 65.5858 411.117 64.9944C410.655 63.8672 409.99 62.2666 409.336 60.2039C408.534 57.7837 408.097 55.2574 408.04 52.7083C408.01 49.5403 408.954 46.4396 410.745 43.8262C412.513 41.2046 414.998 39.1465 417.903 37.8973C420.27 36.9007 422.834 36.4611 425.398 36.6124C427.121 36.7001 428.813 37.1012 430.392 37.7959C430.814 37.9906 431.221 38.2167 431.609 38.4722C431.769 38.5426 431.918 38.6377 432.048 38.754Z" fill="#263238"/>
<path d="M432.567 82.8602C432.747 82.7512 432.935 82.6569 433.131 82.5784C433.695 82.3238 434.279 82.1164 434.878 81.9585C435.828 81.6781 436.808 81.5116 437.797 81.4625C439.143 81.3902 440.489 81.5935 441.753 82.0599C444.639 83.0744 447.288 86.0163 448.595 89.9501C449.222 92.0611 449.222 94.3089 448.595 96.42C447.9 98.7112 446.654 100.797 444.966 102.495L445.033 102.191C446.533 106.305 448.167 110.769 449.858 115.424L449.959 115.706L449.677 115.807L447.096 116.664L441.46 118.546L441.178 118.636L441.088 118.355C439.544 113.688 437.853 109.337 436.58 105.065L436.828 105.257C434.624 105.074 432.523 104.247 430.786 102.879C429.214 101.668 427.926 100.13 427.01 98.37C426.184 96.8095 425.772 95.0629 425.815 93.2977C425.867 91.4936 426.318 89.7234 427.134 88.1138C427.951 86.5042 429.113 85.0951 430.538 83.9874C431.125 83.5112 431.783 83.1308 432.488 82.8602C431.851 83.238 431.234 83.648 430.64 84.0888C429.074 85.4131 427.875 87.1168 427.157 89.037C426.54 90.4851 426.251 92.0516 426.312 93.6243C426.372 95.197 426.78 96.7368 427.506 98.1333C428.407 99.826 429.664 101.303 431.192 102.462C432.849 103.762 434.852 104.546 436.952 104.716H437.143L437.2 104.885C438.439 109.078 440.142 113.463 441.708 118.152L441.336 117.971L446.972 116.089L449.542 115.221L449.362 115.604C447.682 110.949 446.059 106.474 444.571 102.36V102.191L444.707 102.056C446.345 100.428 447.567 98.429 448.268 96.2284C448.866 94.209 448.866 92.0596 448.268 90.0402C447.04 86.253 444.504 83.3787 441.753 82.3642C440.536 81.8948 439.236 81.6763 437.932 81.7218C436.959 81.7441 435.991 81.8764 435.047 82.1163C433.367 82.5333 432.578 82.9166 432.567 82.8602Z" fill="#263238"/>
<path d="M360.86 346.317L248.268 345.799C241.765 345.763 235.543 343.148 230.968 338.528C226.392 333.908 223.837 327.661 223.864 321.159L225.059 38.9059C225.072 35.6845 225.721 32.4973 226.966 29.5266C228.212 26.5558 230.031 23.8596 232.319 21.5922C234.608 19.3249 237.32 17.5307 240.303 16.3123C243.285 15.0939 246.478 14.4752 249.699 14.4915L362.28 15.01C368.782 15.0428 375.006 17.655 379.583 22.2728C384.161 26.8905 386.718 33.1364 386.695 39.6386L385.5 321.88C385.486 325.103 384.839 328.291 383.593 331.263C382.348 334.235 380.529 336.933 378.241 339.202C375.953 341.471 373.24 343.268 370.258 344.488C367.276 345.709 364.082 346.331 360.86 346.317Z" fill="#455A64"/>
<path d="M362.111 24.7148H340.289C339.577 24.728 338.875 24.8814 338.222 25.1661C337.569 25.4508 336.979 25.8614 336.485 26.3743C335.991 26.8872 335.603 27.4924 335.343 28.1553C335.082 28.8182 334.956 29.5259 334.969 30.2379V34.1943C334.982 34.9058 334.855 35.6129 334.595 36.2752C334.335 36.9375 333.947 37.5419 333.452 38.0539C332.958 38.5659 332.368 38.9754 331.715 39.2589C331.062 39.5424 330.36 39.6944 329.649 39.7061L287.11 39.5145C285.671 39.4761 284.305 38.8682 283.314 37.8242C282.323 36.7802 281.787 35.3854 281.823 33.9463V29.99C281.86 28.5527 281.325 27.1597 280.336 26.116C279.347 25.0723 277.985 24.4631 276.548 24.4218H268.872L249.767 24.3316C245.222 24.3045 240.853 26.0793 237.614 29.2672C234.375 32.4551 232.532 36.7964 232.487 41.3405L231.36 316.842C231.35 319.096 231.783 321.331 232.637 323.417C233.49 325.504 234.745 327.402 236.332 329.004C237.919 330.605 239.806 331.878 241.884 332.751C243.963 333.623 246.193 334.077 248.448 334.088L360.804 334.606C363.059 334.616 365.295 334.182 367.383 333.329C369.471 332.475 371.371 331.218 372.973 329.631C374.576 328.043 375.85 326.155 376.723 324.075C377.596 321.995 378.05 319.763 378.06 317.507L379.188 42.0055C379.215 37.4486 377.431 33.0674 374.229 29.8251C371.027 26.5827 366.668 24.7446 362.111 24.7148Z" fill="white"/>
<path d="M346.996 297.849L263.45 297.488C262.582 297.488 261.884 296.542 261.895 295.392L261.985 273.536C261.985 272.409 262.695 271.44 263.563 271.44L347.109 271.823C347.589 271.906 348.02 272.172 348.31 272.564C348.599 272.957 348.726 273.447 348.664 273.931L348.585 295.764C348.585 296.925 347.864 297.86 346.996 297.849Z" fill="#FF1A50"/>
<path d="M288.625 285.982C288.202 285.982 287.796 285.915 287.406 285.779C287.021 285.638 286.723 285.459 286.511 285.242L286.747 284.779C286.948 284.974 287.216 285.139 287.552 285.275C287.893 285.405 288.251 285.47 288.625 285.47C288.983 285.47 289.273 285.427 289.495 285.34C289.723 285.248 289.888 285.126 289.991 284.974C290.1 284.822 290.154 284.654 290.154 284.47C290.154 284.248 290.089 284.069 289.959 283.933C289.834 283.798 289.669 283.692 289.463 283.616C289.257 283.535 289.029 283.464 288.78 283.405C288.53 283.345 288.281 283.283 288.032 283.218C287.782 283.147 287.552 283.055 287.341 282.941C287.135 282.827 286.966 282.678 286.836 282.494C286.712 282.304 286.649 282.058 286.649 281.754C286.649 281.472 286.723 281.215 286.869 280.982C287.021 280.743 287.251 280.553 287.56 280.412C287.869 280.266 288.265 280.193 288.747 280.193C289.067 280.193 289.384 280.239 289.699 280.331C290.013 280.418 290.284 280.54 290.512 280.697L290.308 281.177C290.065 281.014 289.804 280.895 289.528 280.819C289.257 280.743 288.994 280.705 288.739 280.705C288.398 280.705 288.116 280.751 287.893 280.843C287.671 280.936 287.506 281.06 287.397 281.217C287.294 281.369 287.243 281.543 287.243 281.738C287.243 281.96 287.305 282.139 287.43 282.275C287.56 282.41 287.728 282.516 287.934 282.592C288.146 282.668 288.376 282.735 288.625 282.795C288.875 282.855 289.121 282.92 289.365 282.99C289.615 283.061 289.842 283.153 290.048 283.267C290.26 283.375 290.428 283.521 290.552 283.706C290.682 283.89 290.748 284.131 290.748 284.429C290.748 284.706 290.672 284.963 290.52 285.202C290.368 285.435 290.135 285.625 289.821 285.771C289.512 285.912 289.113 285.982 288.625 285.982ZM292.059 285.934V280.242H292.66V285.934H292.059ZM294.512 285.934V280.242H295.008L298.936 285.186H298.675V280.242H299.269V285.934H298.773L294.854 280.99H295.114V285.934H294.512ZM303.623 285.982C303.19 285.982 302.788 285.912 302.42 285.771C302.057 285.625 301.739 285.421 301.468 285.161C301.203 284.901 300.994 284.595 300.842 284.242C300.696 283.89 300.623 283.505 300.623 283.088C300.623 282.67 300.696 282.285 300.842 281.933C300.994 281.581 301.205 281.274 301.477 281.014C301.748 280.754 302.065 280.553 302.428 280.412C302.796 280.266 303.198 280.193 303.631 280.193C304.065 280.193 304.461 280.261 304.818 280.396C305.182 280.532 305.491 280.738 305.745 281.014L305.371 281.396C305.133 281.158 304.87 280.987 304.583 280.884C304.295 280.781 303.986 280.73 303.656 280.73C303.303 280.73 302.978 280.789 302.68 280.908C302.387 281.022 302.13 281.188 301.907 281.404C301.691 281.616 301.52 281.865 301.395 282.153C301.276 282.434 301.216 282.746 301.216 283.088C301.216 283.424 301.276 283.735 301.395 284.023C301.52 284.31 301.691 284.562 301.907 284.779C302.13 284.99 302.387 285.156 302.68 285.275C302.978 285.389 303.301 285.446 303.648 285.446C303.973 285.446 304.279 285.397 304.566 285.299C304.859 285.202 305.127 285.036 305.371 284.803L305.713 285.259C305.442 285.497 305.125 285.679 304.762 285.803C304.398 285.923 304.019 285.982 303.623 285.982ZM305.136 285.186V283.088H305.713V285.259L305.136 285.186ZM311.837 285.982C311.111 285.982 310.539 285.774 310.121 285.356C309.704 284.939 309.495 284.321 309.495 283.502V280.242H310.097V283.478C310.097 284.15 310.249 284.646 310.552 284.966C310.856 285.286 311.284 285.446 311.837 285.446C312.395 285.446 312.826 285.286 313.13 284.966C313.433 284.646 313.585 284.15 313.585 283.478V280.242H314.171V283.502C314.171 284.321 313.962 284.939 313.545 285.356C313.133 285.774 312.563 285.982 311.837 285.982ZM315.984 285.934V280.242H318.114C318.597 280.242 319.011 280.32 319.358 280.478C319.705 280.629 319.971 280.852 320.155 281.144C320.345 281.432 320.44 281.781 320.44 282.193C320.44 282.594 320.345 282.941 320.155 283.234C319.971 283.521 319.705 283.744 319.358 283.901C319.011 284.058 318.597 284.137 318.114 284.137H316.317L316.586 283.852V285.934H315.984ZM316.586 283.901L316.317 283.608H318.098C318.667 283.608 319.098 283.486 319.391 283.242C319.689 282.993 319.838 282.643 319.838 282.193C319.838 281.738 319.689 281.385 319.391 281.136C319.098 280.887 318.667 280.762 318.098 280.762H316.317L316.586 280.478V283.901Z" fill="#E8E8E3"/>
<path d="M280.114 105.702L251.124 105.57L251.1 110.89L280.09 111.022L280.114 105.702Z" fill="#FF1A50"/>
<path opacity="0.1" d="M280.114 105.702L251.124 105.57L251.1 110.89L280.09 111.022L280.114 105.702Z" fill="black"/>
<path d="M365.098 138.367C365.326 138.344 365.549 138.291 365.763 138.209C366.075 138.087 366.346 137.88 366.546 137.61C366.745 137.341 366.864 137.021 366.89 136.687C366.89 134.895 366.89 132.28 366.89 128.921C366.89 127.242 366.89 125.359 366.89 123.285C366.89 122.778 366.89 122.248 366.89 121.719C366.964 121.204 366.852 120.681 366.575 120.242C366.419 120.031 366.218 119.86 365.985 119.74C365.752 119.621 365.495 119.557 365.233 119.554H363.475H347.187L252.911 119.205C252.67 119.201 252.431 119.255 252.216 119.363C252 119.471 251.813 119.629 251.672 119.825C251.399 120.266 251.295 120.79 251.378 121.302C251.378 122.429 251.378 123.556 251.378 124.683C251.378 126.937 251.378 129.192 251.378 131.446C251.378 132.573 251.378 133.7 251.378 134.827C251.332 135.352 251.332 135.881 251.378 136.405C251.438 136.631 251.548 136.839 251.7 137.015C251.853 137.191 252.043 137.329 252.258 137.42C252.48 137.508 252.718 137.551 252.957 137.544H258.694L283.728 137.679L326.109 137.938L354.683 138.164L362.449 138.254H364.467C364.929 138.254 365.154 138.254 365.154 138.254H364.467H362.449H354.683H326.109L283.728 138.119L258.694 138.017H252.957C252.641 138.03 252.326 137.976 252.032 137.86C251.735 137.733 251.471 137.54 251.261 137.296C251.05 137.052 250.897 136.763 250.815 136.451C250.75 136.155 250.727 135.851 250.747 135.549V134.715C250.747 133.588 250.747 132.46 250.747 131.333C250.747 129.079 250.747 126.825 250.747 124.57C250.747 123.443 250.747 122.316 250.747 121.189C250.726 120.889 250.726 120.587 250.747 120.287C250.789 119.955 250.918 119.641 251.119 119.374C251.314 119.102 251.571 118.881 251.869 118.73C252.168 118.579 252.498 118.502 252.833 118.506L347.109 119.025L363.396 119.137H365.154C365.464 119.138 365.769 119.212 366.044 119.356C366.319 119.499 366.555 119.706 366.732 119.96C367.05 120.45 367.178 121.039 367.093 121.617C367.093 122.147 367.093 122.677 367.093 123.184C367.093 125.235 367.093 127.118 367.093 128.82C367.093 132.201 367.014 134.794 366.992 136.597C366.964 136.944 366.838 137.276 366.628 137.553C366.419 137.831 366.134 138.043 365.808 138.164C365.595 138.296 365.349 138.366 365.098 138.367Z" fill="#E0E0E0"/>
<path d="M312.854 124.863H259.832V129.834H312.854V124.863Z" fill="#FF1A50"/>
<path opacity="0.2" d="M312.854 124.863H259.832V129.834H312.854V124.863Z" fill="white"/>
<path d="M279.917 154.236L250.926 154.105L250.902 159.425L279.893 159.556L279.917 154.236Z" fill="#FF1A50"/>
<path opacity="0.1" d="M279.917 154.236L250.926 154.105L250.902 159.425L279.893 159.556L279.917 154.236Z" fill="black"/>
<path d="M364.365 186.903C364.593 186.875 364.819 186.833 365.042 186.779C365.357 186.678 365.646 186.512 365.891 186.29C366.136 186.069 366.331 185.797 366.462 185.494C366.639 185.039 366.709 184.549 366.665 184.062C366.665 183.521 366.665 182.935 366.665 182.281C366.665 180.974 366.665 179.486 366.665 177.773V170.615C366.719 170.097 366.604 169.575 366.338 169.127C366.06 168.668 365.623 168.327 365.109 168.169C364.548 168.069 363.976 168.039 363.407 168.079H347.187L253.238 167.73C252.733 167.731 252.245 167.915 251.866 168.249C251.486 168.583 251.241 169.043 251.176 169.544C251.176 170.615 251.176 171.799 251.176 172.926C251.176 175.18 251.176 177.434 251.176 179.689C251.176 180.816 251.176 181.943 251.176 183.07C251.134 183.597 251.156 184.127 251.243 184.648C251.384 185.105 251.674 185.502 252.066 185.775C252.482 186.04 252.971 186.166 253.464 186.136H255.03H258.288L283.232 186.26L325.467 186.519L353.939 186.745L361.683 186.835H353.939H325.467L283.21 186.79L258.265 186.7H253.362C252.753 186.736 252.148 186.574 251.638 186.238C251.125 185.882 250.751 185.361 250.578 184.761C250.477 184.188 250.447 183.605 250.488 183.025C250.488 181.898 250.488 180.771 250.488 179.644C250.488 177.389 250.488 175.135 250.488 172.881C250.488 171.754 250.488 170.626 250.488 169.499C250.57 168.855 250.885 168.262 251.372 167.833C251.86 167.403 252.487 167.166 253.137 167.166L347.086 167.685L363.306 167.808C363.91 167.771 364.516 167.813 365.109 167.932C365.695 168.124 366.189 168.525 366.496 169.06C366.787 169.556 366.914 170.132 366.856 170.705C366.856 171.235 366.856 171.754 366.856 172.272C366.856 174.312 366.856 176.183 366.856 177.908C366.856 179.632 366.856 181.086 366.856 182.417C366.856 183.059 366.856 183.656 366.856 184.209C366.897 184.713 366.816 185.219 366.62 185.685C366.473 185.996 366.262 186.272 365.999 186.494C365.737 186.716 365.429 186.878 365.098 186.97C364.852 186.991 364.604 186.968 364.365 186.903Z" fill="#E0E0E0"/>
<path d="M279.698 204.878L250.708 204.747L250.684 210.067L279.674 210.198L279.698 204.878Z" fill="#FF1A50"/>
<path opacity="0.1" d="M279.698 204.878L250.708 204.747L250.684 210.067L279.674 210.198L279.698 204.878Z" fill="black"/>
<path d="M364.14 237.523C364.368 237.496 364.594 237.455 364.816 237.399C365.13 237.3 365.418 237.135 365.663 236.915C365.908 236.695 366.103 236.426 366.236 236.126C366.413 235.67 366.483 235.181 366.439 234.694C366.439 234.142 366.439 233.567 366.439 232.902C366.439 231.606 366.439 230.107 366.439 228.393V221.236C366.493 220.718 366.378 220.196 366.112 219.748C365.828 219.297 365.392 218.961 364.884 218.801C364.323 218.697 363.751 218.663 363.182 218.7H346.962L253.013 218.35C252.507 218.351 252.02 218.536 251.64 218.87C251.261 219.204 251.016 219.664 250.95 220.165C250.95 221.292 250.95 222.419 250.95 223.546C250.95 225.801 250.95 228.055 250.95 230.309C250.95 231.437 250.95 232.564 250.95 233.691C250.908 234.214 250.931 234.74 251.018 235.258C251.153 235.718 251.444 236.116 251.841 236.385C252.254 236.655 252.745 236.782 253.238 236.746H258.141L283.086 236.881L325.32 237.14L353.793 237.366L361.536 237.456H353.793H325.32L283.086 237.332L258.141 237.23H253.238C252.628 237.271 252.022 237.109 251.514 236.768C251.001 236.413 250.626 235.891 250.454 235.292C250.353 234.719 250.323 234.136 250.364 233.556C250.364 232.429 250.364 231.301 250.364 230.174C250.364 227.92 250.364 225.666 250.364 223.411C250.364 222.284 250.364 221.157 250.364 219.973C250.444 219.33 250.756 218.738 251.241 218.308C251.727 217.878 252.353 217.641 253.002 217.64L346.951 218.159L363.171 218.283C363.775 218.246 364.381 218.287 364.974 218.407C365.56 218.598 366.054 219 366.36 219.534C366.652 220.03 366.778 220.606 366.721 221.179C366.721 221.709 366.721 222.239 366.721 222.746C366.721 224.786 366.721 226.657 366.721 228.382C366.721 230.107 366.721 231.561 366.721 232.891C366.721 233.533 366.721 234.131 366.721 234.683C366.764 235.187 366.683 235.694 366.484 236.159C366.338 236.47 366.126 236.746 365.864 236.968C365.601 237.19 365.294 237.352 364.963 237.444C364.698 237.535 364.417 237.562 364.14 237.523Z" fill="#E0E0E0"/>
<path d="M311.722 174.804L258.701 174.564L258.678 179.534L311.7 179.775L311.722 174.804Z" fill="#FF1A50"/>
<path opacity="0.2" d="M311.722 174.804L258.701 174.564L258.678 179.534L311.7 179.775L311.722 174.804Z" fill="white"/>
<path d="M263.495 228.326C263.462 228.779 263.297 229.213 263.019 229.573C262.742 229.933 262.365 230.204 261.935 230.352C261.505 230.5 261.041 230.518 260.601 230.405C260.16 230.291 259.763 230.051 259.458 229.714C259.153 229.377 258.954 228.958 258.885 228.508C258.816 228.059 258.88 227.599 259.07 227.186C259.26 226.773 259.567 226.425 259.953 226.185C260.339 225.944 260.787 225.823 261.241 225.835C261.869 225.87 262.458 226.151 262.88 226.617C263.302 227.084 263.523 227.698 263.495 228.326Z" fill="#FF1A50"/>
<path d="M270.676 228.36C270.698 228.677 270.654 228.996 270.548 229.297C270.442 229.597 270.275 229.872 270.057 230.105C269.84 230.338 269.577 230.524 269.285 230.651C268.993 230.778 268.678 230.843 268.359 230.843C268.041 230.843 267.725 230.778 267.433 230.651C267.141 230.524 266.878 230.338 266.661 230.105C266.444 229.872 266.277 229.597 266.17 229.297C266.064 228.996 266.021 228.677 266.043 228.36C266.021 228.042 266.064 227.723 266.17 227.423C266.277 227.122 266.444 226.847 266.661 226.614C266.878 226.381 267.141 226.196 267.433 226.069C267.725 225.942 268.041 225.876 268.359 225.876C268.678 225.876 268.993 225.942 269.285 226.069C269.577 226.196 269.84 226.381 270.057 226.614C270.275 226.847 270.442 227.122 270.548 227.423C270.654 227.723 270.698 228.042 270.676 228.36Z" fill="#FF1A50"/>
<path d="M277.867 228.393C277.834 228.847 277.668 229.281 277.39 229.641C277.113 230.001 276.736 230.272 276.306 230.419C275.876 230.567 275.412 230.586 274.972 230.472C274.532 230.359 274.134 230.119 273.829 229.782C273.524 229.445 273.325 229.025 273.256 228.576C273.187 228.127 273.251 227.667 273.441 227.254C273.631 226.841 273.938 226.493 274.324 226.252C274.71 226.012 275.158 225.89 275.612 225.902C276.239 225.94 276.827 226.222 277.248 226.688C277.669 227.154 277.892 227.766 277.867 228.393Z" fill="#FF1A50"/>
<path d="M285.047 228.427C285.014 228.881 284.848 229.314 284.571 229.675C284.293 230.035 283.916 230.305 283.486 230.453C283.056 230.601 282.592 230.619 282.152 230.506C281.712 230.393 281.315 230.153 281.01 229.816C280.704 229.478 280.505 229.059 280.436 228.61C280.367 228.161 280.432 227.701 280.621 227.288C280.811 226.875 281.118 226.526 281.504 226.286C281.89 226.046 282.338 225.924 282.793 225.936C283.419 225.974 284.007 226.256 284.428 226.722C284.849 227.188 285.072 227.8 285.047 228.427Z" fill="#FF1A50"/>
<path d="M292.227 228.45C292.196 228.904 292.032 229.339 291.756 229.701C291.479 230.062 291.103 230.335 290.673 230.484C290.243 230.634 289.779 230.654 289.338 230.541C288.897 230.429 288.498 230.19 288.192 229.853C287.886 229.516 287.686 229.097 287.616 228.647C287.546 228.198 287.61 227.737 287.8 227.324C287.989 226.91 288.296 226.561 288.683 226.32C289.069 226.08 289.518 225.958 289.973 225.97C290.597 226.008 291.183 226.288 291.604 226.752C292.025 227.215 292.249 227.824 292.227 228.45Z" fill="#FF1A50"/>
<path d="M299.418 228.483C299.387 228.935 299.225 229.368 298.952 229.729C298.678 230.09 298.305 230.362 297.878 230.514C297.452 230.665 296.99 230.689 296.55 230.581C296.11 230.474 295.712 230.24 295.403 229.909C295.094 229.577 294.889 229.163 294.813 228.717C294.737 228.27 294.792 227.812 294.974 227.397C295.155 226.982 295.453 226.629 295.832 226.381C296.212 226.134 296.655 226.003 297.108 226.004C297.742 226.027 298.342 226.301 298.775 226.766C299.208 227.231 299.44 227.848 299.418 228.483Z" fill="#FF1A50"/>
<path d="M306.598 228.517C306.62 228.835 306.577 229.154 306.471 229.454C306.364 229.755 306.197 230.03 305.98 230.263C305.763 230.496 305.5 230.681 305.208 230.808C304.916 230.935 304.6 231.001 304.282 231.001C303.963 231.001 303.648 230.935 303.356 230.808C303.064 230.681 302.801 230.496 302.584 230.263C302.367 230.03 302.2 229.755 302.093 229.454C301.987 229.154 301.943 228.835 301.966 228.517C301.943 228.2 301.987 227.881 302.093 227.58C302.2 227.28 302.367 227.005 302.584 226.772C302.801 226.539 303.064 226.353 303.356 226.226C303.648 226.099 303.963 226.034 304.282 226.034C304.6 226.034 304.916 226.099 305.208 226.226C305.5 226.353 305.763 226.539 305.98 226.772C306.197 227.005 306.364 227.28 306.471 227.58C306.577 227.881 306.62 228.2 306.598 228.517Z" fill="#FF1A50"/>
<path d="M313.778 228.551C313.748 229.003 313.585 229.436 313.312 229.797C313.038 230.157 312.665 230.43 312.238 230.582C311.812 230.733 311.35 230.757 310.91 230.649C310.47 230.541 310.072 230.308 309.763 229.976C309.454 229.645 309.249 229.231 309.173 228.785C309.097 228.338 309.153 227.879 309.334 227.465C309.515 227.05 309.813 226.697 310.192 226.449C310.572 226.202 311.015 226.07 311.468 226.072C312.103 226.095 312.702 226.369 313.135 226.834C313.568 227.299 313.8 227.916 313.778 228.551Z" fill="#FF1A50"/>
<path d="M320.958 228.585C320.927 229.039 320.763 229.474 320.487 229.836C320.211 230.197 319.834 230.47 319.405 230.619C318.975 230.769 318.51 230.789 318.069 230.676C317.628 230.564 317.23 230.325 316.924 229.988C316.617 229.651 316.417 229.232 316.347 228.782C316.277 228.333 316.341 227.872 316.531 227.458C316.721 227.045 317.028 226.696 317.414 226.455C317.8 226.215 318.249 226.093 318.704 226.105C319.329 226.143 319.914 226.423 320.335 226.887C320.756 227.35 320.98 227.959 320.958 228.585Z" fill="#FF1A50"/>
<g opacity="0.2">
<path d="M263.495 228.326C263.462 228.779 263.297 229.213 263.019 229.573C262.742 229.933 262.365 230.204 261.935 230.352C261.505 230.5 261.041 230.518 260.601 230.405C260.16 230.291 259.763 230.051 259.458 229.714C259.153 229.377 258.954 228.958 258.885 228.508C258.816 228.059 258.88 227.599 259.07 227.186C259.26 226.773 259.567 226.425 259.953 226.185C260.339 225.944 260.787 225.823 261.241 225.835C261.869 225.87 262.458 226.151 262.88 226.617C263.302 227.084 263.523 227.698 263.495 228.326Z" fill="white"/>
<path d="M270.676 228.36C270.698 228.677 270.654 228.996 270.548 229.297C270.442 229.597 270.275 229.872 270.057 230.105C269.84 230.338 269.577 230.524 269.285 230.651C268.993 230.778 268.678 230.843 268.359 230.843C268.041 230.843 267.725 230.778 267.433 230.651C267.141 230.524 266.878 230.338 266.661 230.105C266.444 229.872 266.277 229.597 266.17 229.297C266.064 228.996 266.021 228.677 266.043 228.36C266.021 228.042 266.064 227.723 266.17 227.423C266.277 227.122 266.444 226.847 266.661 226.614C266.878 226.381 267.141 226.196 267.433 226.069C267.725 225.942 268.041 225.876 268.359 225.876C268.678 225.876 268.993 225.942 269.285 226.069C269.577 226.196 269.84 226.381 270.057 226.614C270.275 226.847 270.442 227.122 270.548 227.423C270.654 227.723 270.698 228.042 270.676 228.36Z" fill="white"/>
<path d="M277.867 228.393C277.834 228.847 277.668 229.281 277.39 229.641C277.113 230.001 276.736 230.272 276.306 230.419C275.876 230.567 275.412 230.586 274.972 230.472C274.532 230.359 274.134 230.119 273.829 229.782C273.524 229.445 273.325 229.025 273.256 228.576C273.187 228.127 273.251 227.667 273.441 227.254C273.631 226.841 273.938 226.493 274.324 226.252C274.71 226.012 275.158 225.89 275.612 225.902C276.239 225.94 276.827 226.222 277.248 226.688C277.669 227.154 277.892 227.766 277.867 228.393Z" fill="white"/>
<path d="M285.047 228.427C285.014 228.881 284.848 229.314 284.571 229.675C284.293 230.035 283.916 230.305 283.486 230.453C283.056 230.601 282.592 230.619 282.152 230.506C281.712 230.393 281.315 230.153 281.01 229.816C280.704 229.478 280.505 229.059 280.436 228.61C280.367 228.161 280.432 227.701 280.621 227.288C280.811 226.875 281.118 226.526 281.504 226.286C281.89 226.046 282.338 225.924 282.793 225.936C283.419 225.974 284.007 226.256 284.428 226.722C284.849 227.188 285.072 227.8 285.047 228.427Z" fill="white"/>
<path d="M292.227 228.45C292.196 228.904 292.032 229.339 291.756 229.7C291.479 230.062 291.103 230.335 290.673 230.484C290.243 230.634 289.779 230.653 289.338 230.541C288.897 230.429 288.498 230.19 288.192 229.853C287.886 229.516 287.686 229.097 287.616 228.647C287.546 228.197 287.61 227.737 287.8 227.323C287.989 226.91 288.296 226.561 288.683 226.32C289.069 226.079 289.518 225.958 289.972 225.97C290.597 226.008 291.183 226.288 291.604 226.751C292.025 227.215 292.249 227.824 292.227 228.45Z" fill="white"/>
<path d="M299.418 228.483C299.387 228.935 299.225 229.368 298.952 229.729C298.678 230.09 298.305 230.362 297.878 230.514C297.452 230.665 296.99 230.689 296.55 230.581C296.11 230.474 295.712 230.24 295.403 229.909C295.094 229.577 294.889 229.163 294.813 228.717C294.737 228.27 294.792 227.812 294.974 227.397C295.155 226.982 295.453 226.629 295.832 226.381C296.212 226.134 296.655 226.003 297.108 226.004C297.742 226.027 298.342 226.301 298.775 226.766C299.208 227.231 299.44 227.848 299.418 228.483Z" fill="white"/>
<path d="M306.598 228.517C306.62 228.835 306.577 229.154 306.471 229.454C306.364 229.755 306.197 230.03 305.98 230.263C305.763 230.496 305.5 230.681 305.208 230.808C304.916 230.935 304.6 231.001 304.282 231.001C303.963 231.001 303.648 230.935 303.356 230.808C303.064 230.681 302.801 230.496 302.584 230.263C302.367 230.03 302.2 229.755 302.093 229.454C301.987 229.154 301.943 228.835 301.966 228.517C301.943 228.2 301.987 227.881 302.093 227.58C302.2 227.28 302.367 227.005 302.584 226.772C302.801 226.539 303.064 226.353 303.356 226.226C303.648 226.099 303.963 226.034 304.282 226.034C304.6 226.034 304.916 226.099 305.208 226.226C305.5 226.353 305.763 226.539 305.98 226.772C306.197 227.005 306.364 227.28 306.471 227.58C306.577 227.881 306.62 228.2 306.598 228.517Z" fill="white"/>
<path d="M313.778 228.551C313.748 229.003 313.585 229.436 313.312 229.797C313.038 230.157 312.665 230.43 312.238 230.582C311.812 230.733 311.35 230.757 310.91 230.649C310.47 230.541 310.072 230.308 309.763 229.976C309.454 229.645 309.249 229.231 309.173 228.785C309.097 228.338 309.153 227.879 309.334 227.465C309.515 227.05 309.813 226.697 310.192 226.449C310.572 226.202 311.015 226.07 311.468 226.072C312.103 226.095 312.702 226.369 313.135 226.834C313.568 227.299 313.8 227.916 313.778 228.551Z" fill="white"/>
<path d="M320.958 228.585C320.927 229.039 320.763 229.474 320.487 229.836C320.211 230.197 319.834 230.47 319.405 230.619C318.975 230.769 318.51 230.789 318.069 230.676C317.628 230.564 317.23 230.325 316.924 229.988C316.618 229.651 316.417 229.232 316.347 228.782C316.277 228.333 316.341 227.872 316.531 227.458C316.721 227.045 317.028 226.696 317.414 226.455C317.801 226.215 318.249 226.093 318.704 226.105C319.329 226.143 319.914 226.423 320.335 226.887C320.757 227.35 320.98 227.959 320.958 228.585Z" fill="white"/>
</g>
<path d="M310.757 65.8678C311.541 65.523 312.205 64.9555 312.668 64.236C313.131 63.5165 313.372 62.6768 313.361 61.8213C313.39 61.2651 313.306 60.7089 313.113 60.1864C312.921 59.6639 312.624 59.1861 312.24 58.7821C311.857 58.3782 311.395 58.0565 310.884 57.8366C310.372 57.6168 309.821 57.5034 309.264 57.5034C308.707 57.5034 308.156 57.6168 307.644 57.8366C307.133 58.0565 306.671 58.3782 306.288 58.7821C305.904 59.1861 305.607 59.6639 305.415 60.1864C305.222 60.7089 305.138 61.2651 305.167 61.8213C305.15 62.6853 305.389 63.5351 305.854 64.2633C306.32 64.9916 306.99 65.5656 307.782 65.9129C301.47 66.8597 301.751 73.7129 301.751 73.7129L316.675 73.7805C316.675 73.7805 317.025 66.8033 310.757 65.8678Z" fill="#FF1A50"/>
<path opacity="0.1" d="M310.757 65.8678C311.541 65.523 312.205 64.9555 312.668 64.236C313.131 63.5165 313.372 62.6768 313.361 61.8213C313.39 61.2651 313.306 60.7089 313.113 60.1864C312.921 59.6639 312.624 59.1861 312.24 58.7821C311.857 58.3782 311.395 58.0565 310.884 57.8366C310.372 57.6168 309.821 57.5034 309.264 57.5034C308.707 57.5034 308.156 57.6168 307.644 57.8366C307.133 58.0565 306.671 58.3782 306.288 58.7821C305.904 59.1861 305.607 59.6639 305.415 60.1864C305.222 60.7089 305.138 61.2651 305.167 61.8213C305.15 62.6853 305.389 63.5351 305.854 64.2633C306.32 64.9916 306.99 65.5656 307.782 65.9129C301.47 66.8597 301.751 73.7129 301.751 73.7129L316.675 73.7805C316.675 73.7805 317.025 66.8033 310.757 65.8678Z" fill="black"/>
<path d="M335.008 78.2005L281.818 77.9591L281.789 84.3162L334.979 84.5576L335.008 78.2005Z" fill="#FF1A50"/>
<path opacity="0.2" d="M335.008 78.2005L281.818 77.9591L281.789 84.3162L334.979 84.5576L335.008 78.2005Z" fill="white"/>
<path d="M139.462 111.146H138.933L137.4 111.259C136.57 111.309 135.745 111.418 134.931 111.586C134.404 111.66 133.881 111.761 133.364 111.89L131.617 112.375C128.644 113.287 125.838 114.676 123.31 116.489C119.97 118.913 117.181 122.017 115.127 125.596C113.919 127.66 112.958 129.858 112.264 132.145C111.534 134.631 111.114 137.198 111.013 139.787C110.946 141.147 110.968 142.511 111.08 143.868C111.08 144.555 111.272 145.243 111.362 145.942C111.438 146.646 111.57 147.343 111.757 148.027C112.77 152.55 114.827 156.773 117.762 160.361C120.698 163.948 124.431 166.799 128.664 168.688C131.728 170.01 135.012 170.748 138.346 170.863C141.791 171.053 145.238 170.558 148.491 169.409L149.483 169.037H149.618L149.731 169.105L163.944 176.319L163.527 176.679C162.006 171.968 160.54 167.403 159.12 163.018V162.849L159.244 162.725C162.692 159.252 165.252 154.999 166.706 150.326C168.023 146.054 168.407 141.549 167.833 137.116C167.322 133.176 166.055 129.372 164.102 125.912C162.418 122.94 160.247 120.273 157.677 118.022C155.558 116.24 153.212 114.747 150.7 113.581C148.8 112.761 146.821 112.138 144.794 111.721L142.539 111.349L140.905 111.225L139.913 111.157H139.575C139.687 111.145 139.801 111.145 139.913 111.157H140.916L142.551 111.225L144.805 111.552C146.857 111.938 148.863 112.539 150.79 113.344C153.345 114.496 155.733 115.986 157.891 117.774C160.508 120.015 162.726 122.682 164.452 125.664C166.46 129.161 167.766 133.017 168.295 137.015C168.917 141.516 168.56 146.099 167.247 150.45C165.783 155.22 163.184 159.564 159.672 163.108L159.74 162.815C161.16 167.2 162.637 171.765 164.17 176.465L164.384 177.153L163.741 176.826L149.528 169.623H149.776L148.761 169.995C145.446 171.162 141.935 171.667 138.425 171.483C135.019 171.353 131.666 170.589 128.54 169.229C122.577 166.675 117.616 162.236 114.417 156.593C112.945 153.987 111.869 151.176 111.227 148.252C111.051 147.551 110.919 146.84 110.832 146.122C110.742 145.412 110.596 144.713 110.562 144.014C110.257 140.004 110.681 135.971 111.813 132.111C112.525 129.792 113.513 127.567 114.755 125.484C116.858 121.872 119.705 118.748 123.107 116.32C125.677 114.503 128.529 113.124 131.55 112.239L133.319 111.789C133.84 111.668 134.367 111.574 134.897 111.507C135.72 111.354 136.552 111.264 137.388 111.236L138.933 111.18C139.108 111.156 139.285 111.145 139.462 111.146Z" fill="#FF1A50"/>
<path d="M145.887 137.431H143.802L139.293 131.097V126.937C139.293 126.937 136.07 126.735 136.453 132.179C136.836 137.623 136.453 136.237 136.453 136.237C136.453 136.237 129.611 136.237 129.047 136.857C128.484 137.476 128.45 144.082 128.371 147.767C128.328 148.656 128.583 149.533 129.095 150.261C129.608 150.988 130.349 151.522 131.2 151.78C131.439 151.846 131.685 151.88 131.933 151.882C133.646 151.882 142.359 150.495 142.359 150.495H145.955L145.887 137.431Z" fill="#FF1A50"/>
<path d="M151.85 136.315L150.565 150.563H147.003V136.609L151.85 136.315Z" fill="#FF1A50"/>
<path d="M300.545 140.182C300.095 139.719 298.979 139.945 298.979 139.945C299.09 139.296 299.09 138.633 298.979 137.984C298.776 137.352 297.355 137.476 297.355 137.476C297.29 136.945 297.29 136.407 297.355 135.876C297.367 135.758 297.342 135.64 297.283 135.537C297.225 135.434 297.136 135.351 297.029 135.301C296.357 135.027 295.635 134.896 294.91 134.918C294.042 134.298 297.558 129.372 298.866 127.794C300.173 126.216 299.937 124.987 298.776 124.987C297.975 124.987 293.873 129.722 292.61 131.311C291.348 132.9 288 137.319 287.887 133.791C287.775 130.263 286.354 127.602 285.464 127.152C284.573 126.701 283.627 127.76 284.111 128.741C284.537 129.855 284.803 131.024 284.9 132.213C285.023 133.159 284.981 134.12 284.776 135.053C284.403 136.788 283.894 138.492 283.255 140.148H283.165C283.165 140.148 258.57 163.739 256.789 165.419C255.2 166.929 223.233 163.627 216.82 162.95C214.64 162.631 212.44 162.481 210.237 162.499C207.453 162.623 206.957 163.018 204.184 163.052C197.182 163.129 190.195 163.744 183.287 164.889C180.158 165.421 177.236 166.802 174.839 168.881C172.442 170.96 170.662 173.657 169.693 176.679C163.234 196.855 148.604 244.613 146.022 271.44C144.072 274.977 142.311 278.615 140.747 282.34C138.933 287.276 139.372 287.446 139.981 287.558C141.627 287.863 143.498 279.003 144.196 281.145C144.895 283.286 140.646 291.706 142.37 291.954C144.625 292.27 146.417 282.937 146.631 282.193C146.845 281.449 147.961 281.686 147.758 282.385C147.431 283.377 144.264 293.893 146.473 294.231C147.691 294.411 147.826 292.191 147.826 292.191C147.826 292.191 150.08 282.125 151.106 282.328C152.132 282.531 151.038 288.471 150.52 290.455C150.001 292.439 150.723 293.442 151.782 292.957C152.504 292.619 154.228 286.589 154.702 284.628C155.175 282.666 156.359 277.233 157.948 280.378C159.537 283.523 161.949 285.349 162.941 285.394C163.165 285.368 163.375 285.276 163.546 285.13C163.717 284.983 163.84 284.789 163.899 284.572C163.959 284.355 163.952 284.125 163.879 283.912C163.807 283.699 163.673 283.513 163.493 283.377C162.64 282.543 161.908 281.595 161.318 280.559C160.792 279.751 160.411 278.859 160.191 277.921C159.737 276.051 159.472 274.14 159.402 272.218L159.222 271.09C161.746 258.59 169.017 221.901 179.511 198.467L183.816 207.327L185.687 213.887L174.213 242.212L223.154 241.57L215.85 213.459L224.721 184.152C234.313 184.366 258.942 184.727 263.045 182.867C268.207 180.613 294.91 146.888 294.91 146.888C296.65 145.536 298.317 144.091 299.903 142.56C299.903 142.56 301.526 141.196 300.545 140.182Z" fill="#FFBE9D"/>
<path d="M172.06 221.281C173.48 216.434 180.773 192.471 180.773 192.471C180.773 192.471 184.357 212.005 183.41 214.36C182.54 216.377 181.511 218.322 180.333 220.176C172.06 232.767 173.142 239.068 173.142 239.068L223.132 237.546C223.244 230.558 219.108 214.304 218.251 211.711C217.394 209.119 220.246 200.631 220.246 200.631C220.246 200.631 225.882 194.894 225.679 191.941C225.572 189.288 225.244 186.649 224.698 184.051L255.132 185.178L254.174 164.551L210.462 160.177C208.941 164.472 195.178 162.364 195.178 162.364C180.322 162.86 179.398 165.588 173.221 170.39C167.044 175.191 156.821 216.4 156.821 216.4L172.06 221.281Z" fill="#FF1A50"/>
<path d="M201.614 216.4C200.748 216.555 199.865 216.601 198.988 216.536C197.353 216.536 195.11 216.423 192.642 216.175C190.173 215.927 187.942 215.578 186.352 215.262C185.476 215.149 184.617 214.93 183.794 214.608C184.675 214.608 185.554 214.692 186.42 214.856C188.021 215.059 190.241 215.341 192.698 215.589C195.155 215.837 197.387 216.006 198.999 216.119C199.878 216.13 200.753 216.224 201.614 216.4Z" fill="#263238"/>
<path d="M205.041 212.151C204.174 212.576 203.258 212.89 202.313 213.087C197.816 214.269 193.176 214.819 188.528 214.721C187.566 214.753 186.604 214.662 185.665 214.451C186.614 214.331 187.571 214.282 188.528 214.304C190.297 214.248 192.732 214.124 195.415 213.808C198.097 213.493 200.487 213.042 202.178 212.681C203.117 212.43 204.074 212.253 205.041 212.151Z" fill="#263238"/>
<path d="M221.858 193.192C221.835 194.052 221.718 194.906 221.509 195.74C221.216 197.306 220.765 199.448 220.19 201.792C219.615 204.137 219.063 206.301 218.567 207.766C218.367 208.605 218.072 209.418 217.688 210.19C217.75 209.333 217.909 208.486 218.161 207.665C218.589 205.907 219.074 203.878 219.615 201.657C220.156 199.437 220.674 197.408 221.103 195.649C221.255 194.803 221.509 193.978 221.858 193.192Z" fill="#263238"/>
<path d="M172.59 218.407C169.982 218.004 167.409 217.405 164.891 216.615C162.319 216.013 159.795 215.222 157.339 214.248C159.946 214.657 162.519 215.256 165.038 216.04C167.611 216.639 170.135 217.431 172.59 218.407Z" fill="#263238"/>
<path d="M225.24 183.803C224.814 183.876 224.38 183.876 223.955 183.803C222.777 183.682 221.621 183.405 220.517 182.98C218.673 182.287 216.994 181.216 215.589 179.836C214.183 178.456 213.082 176.797 212.356 174.966C211.553 172.952 211.211 170.784 211.353 168.62C211.403 166.835 211.937 165.098 212.897 163.593C213.573 162.579 214.581 161.833 215.749 161.485C216.061 161.399 216.383 161.357 216.707 161.361C216.932 161.361 217.045 161.361 217.045 161.361C217.045 161.361 216.572 161.361 215.816 161.665C214.745 162.061 213.837 162.803 213.235 163.773C211.702 166.185 211.274 170.593 212.908 174.707C213.669 176.647 214.86 178.389 216.391 179.801C217.646 180.958 219.091 181.888 220.663 182.552C222.138 183.135 223.673 183.554 225.24 183.803Z" fill="#263238"/>
<path d="M251.514 184.772C251.232 181.316 251.141 177.846 251.243 174.38C251.155 170.916 251.26 167.451 251.559 163.999C251.841 167.452 251.931 170.917 251.829 174.38C251.924 177.847 251.819 181.317 251.514 184.772Z" fill="#263238"/>
<path d="M210.169 161.44C210.293 158.926 210.553 156.086 210.553 156.086C210.553 156.086 216.775 155.398 217.147 148.974C217.518 142.549 217.147 127.727 217.147 127.727L205.875 121.955L193.363 131.796L195.291 163.92L206.765 164.652C207.642 164.677 208.493 164.352 209.131 163.75C209.77 163.148 210.143 162.317 210.169 161.44Z" fill="#FFBE9D"/>
<path d="M211.285 143.89C211.285 143.89 211.285 144.014 211.184 144.161C211.1 144.267 210.991 144.351 210.868 144.406C210.744 144.461 210.609 144.485 210.474 144.476C209.752 144.476 209.053 143.642 208.805 142.673C208.688 142.203 208.688 141.711 208.805 141.241C208.829 141.036 208.903 140.84 209.021 140.671C209.139 140.501 209.297 140.364 209.482 140.272C209.633 140.209 209.804 140.209 209.955 140.272C210.068 140.328 210.159 140.419 210.214 140.531C210.293 140.723 210.214 140.847 210.214 140.835C210.214 140.824 210.214 140.723 210.102 140.61C210.043 140.529 209.956 140.473 209.858 140.452C209.761 140.431 209.659 140.447 209.572 140.497C209.434 140.581 209.319 140.698 209.238 140.838C209.157 140.978 209.113 141.136 209.11 141.298C209.015 141.717 209.015 142.152 209.11 142.571C209.335 143.45 209.944 144.161 210.485 144.228C210.591 144.243 210.698 144.235 210.801 144.206C210.904 144.177 211 144.127 211.082 144.059C211.218 143.969 211.263 143.879 211.285 143.89Z" fill="#EB996E"/>
<path d="M221.013 124.255C220.145 121.302 217 119.836 214.137 119.025C209.775 117.785 205.063 117.244 200.803 118.811C196.542 120.377 191.425 123.128 191.425 127.828C188.911 127.625 187.468 129.823 186.476 132.551C185.842 134.213 185.462 135.961 185.349 137.736C185.034 143.89 183.309 152.389 179.319 156.898C177.065 159.411 173.942 161.147 172.657 164.281C171.53 166.997 172.116 170.221 171.068 172.971C170.132 175.394 168.07 177.119 166.559 179.227C165.021 181.618 164.115 184.361 163.928 187.198C163.74 190.036 164.278 192.874 165.489 195.447C166.708 197.953 168.426 200.185 170.536 202.007C172.646 203.829 175.105 205.201 177.763 206.042C183.028 207.644 188.643 207.699 193.938 206.2C197.912 205.249 201.62 203.411 204.782 200.823C208.017 198.181 210.239 194.502 211.071 190.408C211.871 185.809 210.586 181.132 209.628 176.555C206.63 162.094 207.487 161.339 211.274 147.914C211.364 147.677 211.409 147.429 211.477 147.193C211.545 146.956 211.578 146.843 211.623 146.663C211.731 146.132 211.788 145.593 211.792 145.051C211.239 145.257 210.639 145.3 210.062 145.177C209.485 145.053 208.955 144.767 208.535 144.352C208.114 143.91 207.82 143.363 207.685 142.767C207.55 142.172 207.579 141.551 207.769 140.971C208.034 140.336 208.431 139.764 208.932 139.292C209.433 138.821 210.027 138.459 210.677 138.232C211.928 137.713 213.269 137.443 214.498 136.868C217.101 135.628 218.905 133.058 220.133 130.364C221.144 128.497 221.455 126.331 221.013 124.255Z" fill="#263238"/>
<path d="M211.736 144.194C211.974 144.546 212.171 144.924 212.322 145.321C212.66 146.032 213.111 147.035 213.607 148.196L213.697 148.41H213.461L212.334 148.511C211.556 148.511 210.902 148.658 210.136 148.647C210.069 148.632 210.007 148.6 209.956 148.555C209.904 148.509 209.866 148.452 209.842 148.387C209.809 148.285 209.809 148.174 209.842 148.072C209.869 147.92 209.902 147.769 209.944 147.621L210.147 146.821C210.249 146.287 210.407 145.765 210.62 145.265C210.599 145.809 210.52 146.35 210.384 146.877L210.226 147.677C210.169 147.948 210.068 148.365 210.226 148.331C210.789 148.331 211.59 148.207 212.334 148.162L213.461 148.061L213.314 148.308C212.829 147.181 212.424 146.122 212.187 145.389C211.979 145.015 211.827 144.612 211.736 144.194Z" fill="#FF1A50"/>
<path d="M173.142 239.068L223.132 237.546L244.886 322.467L240.885 419.876H214.453L217.688 324.541L198.357 265.421L201.332 423.652L174.619 424.047L171.812 275.317C171.688 271.181 170.335 261.859 170.843 257.756L173.142 239.068Z" fill="#263238"/>
<path d="M205.007 266.627C204.189 266.678 203.367 266.629 202.561 266.48C201.051 266.3 198.988 265.984 196.722 265.533C194.457 265.083 192.428 264.564 190.963 264.147C190.179 263.975 189.422 263.702 188.708 263.335C188.708 263.166 192.383 264.046 196.891 264.959C201.4 265.872 205.03 266.458 205.007 266.627Z" fill="#455A64"/>
<path d="M197.647 419.132C197.489 419.132 196.79 384.562 196.08 341.922C195.37 299.281 194.953 264.688 195.099 264.688C195.246 264.688 195.967 299.247 196.666 341.91C197.365 384.573 197.816 419.132 197.647 419.132Z" fill="#455A64"/>
<path d="M237.063 414.534C237.051 414.38 237.051 414.225 237.063 414.072V412.719C237.063 411.502 237.154 409.755 237.221 407.534C237.379 403.025 237.604 396.477 237.886 388.451C238.495 372.31 239.352 350.06 240.287 325.499C240.287 325.262 240.287 325.037 240.287 324.834V324.913C234.37 301.242 229.015 279.759 225.127 264.215L220.618 245.831C220.1 243.678 219.705 241.999 219.423 240.826C219.288 240.274 219.198 239.846 219.119 239.519C219.075 239.372 219.049 239.221 219.04 239.068C219.099 239.21 219.144 239.357 219.175 239.508C219.266 239.823 219.378 240.252 219.536 240.793C219.84 241.92 220.28 243.633 220.844 245.775C221.971 250.126 223.56 256.393 225.544 264.114C229.466 279.646 234.877 301.073 240.873 324.778V324.857C240.873 325.059 240.873 325.296 240.873 325.522C239.87 350.082 238.957 372.321 238.292 388.462C237.943 396.499 237.65 403.003 237.447 407.534C237.334 409.788 237.244 411.502 237.187 412.719C237.187 413.294 237.12 413.745 237.109 414.072C237.11 414.227 237.095 414.382 237.063 414.534Z" fill="#455A64"/>
<path d="M228.441 322.85C226.542 323.474 224.586 323.908 222.602 324.146C220.167 324.563 218.093 324.856 217.158 324.901V324.676C217.462 324.766 217.62 324.822 217.62 324.867C217.62 324.913 217.428 324.867 217.113 324.867H216.436L217.113 324.665C217.992 324.405 220.066 323.977 222.501 323.537C224.453 323.114 226.443 322.883 228.441 322.85Z" fill="#455A64"/>
<path d="M227.979 326.085C226.22 326.165 224.459 326.086 222.715 325.848C220.954 325.812 219.2 325.62 217.473 325.273C220.996 324.986 224.542 325.26 227.979 326.085Z" fill="#455A64"/>
<path opacity="0.2" d="M172.928 240.86C173.52 241.62 174.266 242.247 175.116 242.7C175.967 243.152 176.904 243.42 177.865 243.486C179.878 243.725 181.915 243.687 183.918 243.374C196.824 241.942 210.496 240.623 223.132 237.546C206.777 238.459 189.497 238.155 173.142 239.068L172.973 240.465" fill="black"/>
<g opacity="0.2">
<path d="M189.779 263.911L198.999 299.687L198.357 265.421L189.779 263.911Z" fill="black"/>
</g>
</g>
<defs>
<clipPath id="clip0_305_2104">
<rect width="645" height="408" fill="white" transform="translate(0 0.919922)"/>
</clipPath>
</defs>
</svg>
